<?xml version="1.0" encoding="utf-8"?>
<!-- Generator: Adobe Illustrator 24.3.0, SVG Export Plug-In . SVG Version: 6.00 Build 0)  -->
<svg version="1.1" xmlns="http://www.w3.org/2000/svg" xmlns:xlink="http://www.w3.org/1999/xlink" x="0px" y="0px"
	 viewBox="0 0 1500 1500" style="enable-background:new 0 0 1500 1500;" xml:space="preserve">
<style type="text/css">
	.st0{display:none;}
	.st1{display:inline;fill:#F54F50;}
	.st2{display:inline;}
	.st3{fill:#8CD1E4;}
	.st4{display:inline;fill:#66BC62;}
	.st5{fill:#A5A5A5;}
</style>
<g id="МЫСЛИШКИ">
	<g id="_x31_" class="st0">
		<path class="st1" d="M174.8,733.4c27.3,40.7,66.4,71.7,105.4,101.4c81,61.7,164.2,120.4,249.5,176.1c24.1,15.7,54.7,31.6,80.1,18
			c18.9-10.2,26.6-33,32.6-53.6C671.4,875,700.8,773.1,701,668.6c0.2-104.4-32.7-213.6-110.5-283.3
			c-68.7-61.6-169.2-85.6-258.4-61.7c-68.8,18.4-127.1,64.5-165.8,123.7C137,492.3,134.7,553.6,135.7,606
			C136.5,651,149.7,696,174.8,733.4z"/>
		<g class="st2">
			<g>
				<path d="M236.6,811.7c5.9,7,11.1,14.7,17.8,21c6.7,6.3,13.6,12.4,20.4,18.5c13.5,12,27.3,23.7,41.2,35.2
					c27.9,23,56.6,45,86.1,66c59.7,42.5,122.6,80.8,188,114c16.2,8.2,32.6,16.1,49.1,23.7c12.9,5.9,30.8,13.4,40-2.3
					c4.1-7.1,5.5-15.9,7.5-23.7c2.5-9.7,4.9-19.4,7.2-29.1c4.8-19.6,9.4-39.3,13.7-59.1c8.7-39.2,16.5-78.7,23.6-118.2
					c6.6-37.3,12.9-74.8,16.7-112.6c7.3-71.4,5.5-146.1-23.9-212.8C699.7,477.8,657,432.1,605.6,402
					c-51.8-30.3-112.6-44.6-172.4-37.6c-60.2,7.1-117.6,33.8-162.4,74.4c-22.3,20.2-41.5,43.9-56.2,70.2c-15.7,28-28.5,58.6-35.7,90
					c-6.6,28.5-7.7,58-2.4,86.8c6.2,33.5,20.6,64.9,38.2,93.8c7.5,12.3,15.7,24.2,24.6,35.6c2,2.5,5.5-1,3.5-3.5
					c-38.1-48.8-67.5-109.3-64.6-172.6c1.4-29.9,9.6-59.1,21-86.6c11.9-28.8,26.8-56.4,46.7-80.5c38-46,90.6-79.6,148.2-95
					c57.5-15.5,118.4-11.2,173.4,11.6c54.1,22.4,101.4,61.4,133,110.8c37.1,58.1,47.7,127.6,45.8,195.4c-1.1,36.3-5.4,72.5-11,108.3
					c-5.9,38-12.8,75.9-20.3,113.6c-7.6,38.2-16,76.3-25.2,114.3c-2.4,9.7-4.8,19.4-7.2,29.1c-2,8-3.3,17-7.2,24.4
					c-4.6,8.8-13.4,9.1-21.9,6.3c-8-2.6-15.7-6.7-23.4-10.3c-64.5-30.3-126.5-65.6-185.8-105c-59.2-39.4-115.7-83-168.8-130.3
					c-6.3-5.6-12.8-11.1-18.8-17.1c-6.1-6.1-11-13.3-16.6-19.8C238,805.7,234.5,809.3,236.6,811.7L236.6,811.7z"/>
			</g>
		</g>
		<g class="st2">
			<g>
				<path d="M292.6,641c1.5-35.6,15.1-70.2,36.3-98.7c21.7-29,51.6-51.2,86.3-62.1c36-11.3,75.5-10.9,111.2,1.1
					c33.8,11.4,63.2,33.7,84.1,62.5c20.5,28.3,33.1,62.5,34.4,97.5c1.3,35.7-8.9,71.3-27.8,101.5c-19.2,30.7-47.5,55-81,68.7
					c-34,13.9-72.2,17.6-108.1,9.8c-35.8-7.7-68.8-27-93.3-54.3c-12.5-14-22.9-30.1-30-47.5c-7.3-17.8-11.2-36.8-12.2-56
					c-0.5-9.7-0.2-19.4,0.6-29.1c0.3-3.2-4.7-3.2-5,0c-1.6,20.2-0.8,40.6,3.6,60.3c4.3,19.1,12,37.5,22.7,53.9
					c20.5,31.6,51.2,56.1,86.3,69.7c35.3,13.7,74.9,15.4,111.5,6.2c36.4-9.1,69.5-29.2,93.7-58c23.7-28.1,38.9-63.1,43.1-99.6
					c4.1-36-3.5-72.6-20.6-104.4c-16.9-31.5-43-58.4-74.8-75.1c-34.4-18.1-74.6-24.1-113-18.2c-19.1,2.9-37.8,8.9-55,17.9
					c-16.2,8.4-30.9,19.6-43.7,32.6c-25.6,26-44,59.6-51.1,95.4c-1.7,8.5-2.7,17.2-3.1,25.8C287.5,644.2,292.5,644.2,292.6,641
					L292.6,641z"/>
			</g>
		</g>
	</g>
	<g id="_x32_">
		<path class="st3" d="M304.3,746.1c78.4-24.3,156.8-48.6,235.2-72.9c9.4-2.9,18.9-5.8,28.7-5.8c13,0,25.3,5.1,37.6,9
			c44.8,14.3,94.1,14,138.8-0.8c4.1-1.3,8.2-2.8,12.5-2.5c3.2,0.2,6.3,1.5,9.3,2.8c45.5,19,90.9,38.1,136.4,57.1
			c13.3,5.6,26.9,11.3,37.9,20.7c14.2,12.1,23,29.2,30.8,46.2c20.6,45,36.4,92.2,47.1,140.5c-55.1-5-108.4-27.8-149.9-64.4
			c-4.4-3.9-10.5-8.1-15.5-5.2c-3,1.7-4.3,5.4-5.4,8.8c-7.7,23.6-20.2,45.6-36.5,64.4c-15.6,17.9-34.5,32.7-53.2,47.3
			c-33.7,26.4-68.4,53.2-109.1,66.6c-25.5,8.4-52.5,11.1-79.3,12.7c-64.1,3.7-129.1,1-191.2-15c-48.2-12.4-110.8-34.2-145.7-71.6
			c-15.7-16.8-5.5-33,2.2-51.4c12-28.7,23.1-57.8,34-87C281.2,812.6,293,779.4,304.3,746.1z"/>
		<path class="st3" d="M503.3,305c18.2-56.2,67.5-101.2,125.1-114.3c57.6-13,121.5,6.5,162.1,49.4c43.2,45.7,58,116.4,36.7,175.6
			c-5,13.9-11.8,27.1-20.7,38.9c-9.1,12.2-20.4,22.7-28.5,35.6c-12.8,20.5-16.7,45.3-17.7,69.5c-0.8,16.9-1.6,36.5-15.3,46.4
			c-4.8,3.5-10.6,5.2-16.3,6.6c-42.8,10.7-89,7.1-129.7-10c-5.6-2.4-11.5-5.2-14.7-10.4c-2-3.1-2.8-6.9-3.6-10.5
			c-5.4-25.2-8.4-53.1-19.6-76.6c-8.2-17.1-22-31.1-32.6-46.6C497.8,414.1,486.6,357.2,503.3,305z"/>
		<g>
			<g>
				<path d="M600.7,533.7c-21.5-17.3-38.1-40-48.9-65.3c-10.8-25.2-15.7-53-14.1-80.4c1.6-27.6,10.3-54.3,25.2-77.5
					c14.9-23.2,35.6-42.6,59.4-56.5c23.7-13.9,50.8-22.5,78.3-23.7c27.5-1.2,55,5.1,79.6,17.2c24.6,12.1,46.6,29.9,63.3,51.7
					c16.8,21.9,27.9,47.6,31.9,74.9c4,27.1,0.9,55.1-7.8,81c-8.7,25.8-23.3,49.8-42.9,68.8c-4.7,4.6-9.8,9-15.1,12.9
					c-1.1,0.8-1.6,2.2-0.9,3.4c0.6,1.1,2.3,1.7,3.4,0.9c22.6-17,40.6-39.7,52.5-65.3c11.9-25.6,18.1-54,17.4-82.2
					c-0.7-28.2-8.5-55.9-22.9-80.2c-14.4-24.4-34.9-45.1-58.7-60.3c-23.8-15.2-51.1-24.9-79.2-27.4c-28.3-2.5-56.9,3-82.8,14.4
					c-25.9,11.4-49.3,29-67.4,50.9c-18,21.8-30.6,47.8-35.7,75.7c-5.1,27.9-3.2,56.9,4.9,84c8.1,27.1,22.4,52.4,42,72.8
					c4.7,4.9,9.7,9.5,15,13.7c1.1,0.9,2.5,1,3.5,0C601.5,536.4,601.7,534.6,600.7,533.7L600.7,533.7z"/>
			</g>
		</g>
		<g>
			<g>
				<path d="M596.5,536.1c5.1,27.1,12,53.8,17.9,80.7c1.7,7.6,3.2,15.1,4.7,22.7c0.3,1.3,1.9,2.1,3.1,1.7c1.4-0.4,2-1.7,1.7-3.1
					c-5.1-27.1-12-53.8-17.9-80.7c-1.7-7.6-3.2-15.1-4.7-22.7c-0.3-1.3-1.9-2.1-3.1-1.7C596.8,533.4,596.2,534.8,596.5,536.1
					L596.5,536.1z"/>
			</g>
		</g>
		<g>
			<g>
				<path d="M813.3,539c-0.2-2.7-3.7-3.5-4.8-1c-0.2,0.4-0.3,0.8-0.4,1.2c-0.4,1.7-0.8,3.5-1.2,5.2c-1.5,6.8-2.9,13.7-4.2,20.5
					c-1.9,9.5-3.7,19-5.5,28.5c-1.8,9.9-3.6,19.8-5.3,29.8c-1.4,8.2-2.7,16.5-3.6,24.8c-0.1,0.8-0.2,1.6-0.3,2.4
					c-0.1,1.3,1.2,2.5,2.5,2.5c1.5,0,2.4-1.2,2.5-2.5c0.2-1.6,0.4-3.2,0.6-4.8c0.1-0.8,0.2-1.7,0.3-2.5c-0.1,0.6,0.1-0.5,0.1-0.7
					c0.1-0.5,0.1-1.1,0.2-1.6c0.6-4.1,1.2-8.2,1.9-12.2c1.5-9.4,3.2-18.7,4.9-28.1c3.1-16.7,6.3-33.4,9.8-50.1
					c0.5-2.6,1.1-5.2,1.7-7.8c0.2-0.7,0.3-1.5,0.5-2.2c0.1-0.2,0.1-0.4,0.2-0.6c0-0.1,0.1-0.1,0.1-0.2c0,0.6-1.2,1.6-1.7,1.6
					c-0.4,0-0.9,0-1.3,0c0,0,0,0,0,0c-0.4-0.2-0.7-0.4-1.1-0.6c-0.5-0.6-0.7-1.1-0.7-1.7c0.1,1.3,1.1,2.5,2.5,2.5
					C812,541.5,813.4,540.4,813.3,539L813.3,539z"/>
			</g>
		</g>
		<g>
			<g>
				<path d="M620.2,641.1c20.1,10.6,42.1,17.3,64.5,20.6c23,3.4,46.4,3.4,69.4,0c12.6-1.9,25-4.8,37-8.9c1.3-0.4,2.1-1.7,1.7-3.1
					c-0.3-1.2-1.8-2.2-3.1-1.7c-21.1,7.2-43.4,10.8-65.7,11.2c-22.6,0.4-45.4-2.4-67.1-8.8c-11.8-3.5-23.3-8-34.2-13.8
					C619.9,635.3,617.4,639.6,620.2,641.1L620.2,641.1z"/>
			</g>
		</g>
		<g>
			<g>
				<path d="M597.6,537.6c11.5,5.2,23.5,9.6,35.6,13.1c13.4,3.9,27.2,6.9,41,9c14.7,2.2,29.5,3.3,44.3,3.1
					c15.1-0.2,30.3-1.7,45.1-4.7c14.9-3.1,29.5-7.9,43.3-14.5c1.7-0.8,3.4-1.7,5.1-2.5c2.9-1.5,0.3-5.8-2.5-4.3
					c-13.2,6.9-27.4,11.9-41.9,15.3c-14.3,3.4-29,5.1-43.7,5.6c-14.6,0.5-29.3-0.3-43.8-2.2c-13.7-1.8-27.2-4.5-40.5-8.2
					c-12-3.3-24-7.4-35.4-12.3c-1.3-0.6-2.7-1.2-4-1.8c-1.2-0.6-2.7-0.4-3.4,0.9C596.1,535.3,596.4,537.1,597.6,537.6L597.6,537.6z"
					/>
			</g>
		</g>
		<g>
			<g>
				<path d="M258.6,1022.5c9.6-25.9,19.5-51.8,29.4-77.6c10.6-27.6,21.2-55.3,31.6-83c2.1-5.6,4.2-11.2,6.3-16.7
					c2.8-7.5,5.5-15,9.2-22.1c3.7-7.1,8.3-13.7,14.5-18.8c6.6-5.4,14.7-8.8,22.6-11.6c18.1-6.4,36.6-11.7,55-17.3
					c18.9-5.8,37.8-11.4,56.8-16.9c38.2-11,76.5-21.5,115-31.4c4.8-1.2,9.5-2.4,14.3-3.6c3.1-0.8,1.8-5.6-1.3-4.8
					c-39,9.9-77.8,20.3-116.4,31.3c-38.4,11-76.7,22.5-114.8,34.6c-8.2,2.6-16.5,5.3-24.2,9.3c-7.5,3.9-14,9.3-19.1,16
					c-9.1,12-13.7,26.8-18.9,40.8c-10.2,27.2-20.6,54.4-31,81.5c-10.3,26.9-20.7,53.9-30.8,80.9c-1,2.6-2,5.3-3,7.9
					C252.7,1024.1,257.5,1025.5,258.6,1022.5L258.6,1022.5z"/>
			</g>
		</g>
		<g>
			<g>
				<path d="M787.7,724.2c30.1,14,60.3,28.1,90.4,42.1c15.2,7.1,30.3,14.1,45.5,21.2c13.4,6.2,26.9,12.5,39.2,20.8
					c8.8,6,16.5,13.3,23,21.7c6.4,8.3,11.9,17.4,16.7,26.7c10.9,20.8,19,43,26,65.4c6.5,21,12,42.3,16.7,63.7c0.5,2.3,1,4.5,1.5,6.8
					c0.7,3.1,5.5,1.8,4.8-1.3c-4.6-21.1-9.7-42.1-15.9-62.8c-6.8-22.9-14.8-45.6-25.2-67.2c-4.8-9.8-10.1-19.4-16.3-28.4
					c-5.5-7.9-11.8-15.5-19.2-21.7c-11.5-9.7-24.8-16.8-38.3-23.2c-14.7-7-29.5-13.8-44.3-20.7c-30.3-14.1-60.6-28.2-90.9-42.3
					c-3.7-1.7-7.5-3.5-11.2-5.2c-1.2-0.6-2.7-0.3-3.4,0.9C786.2,721.9,786.5,723.7,787.7,724.2L787.7,724.2z"/>
			</g>
		</g>
		<g>
			<g>
				<path d="M611.3,723.2c9.4,4.5,19.4,7.7,29.5,10.3c12.1,3.1,24.3,5.2,36.7,6.6c13,1.5,26,2.2,39,1.8c12.8-0.3,25.6-1.6,38.1-4.2
					c11.2-2.4,22.2-6,32.2-11.6c1.1-0.6,2.2-1.3,3.4-2c2.7-1.7,0.2-6-2.5-4.3c-9.3,5.8-19.5,9.5-30.2,12.1
					c-11.9,2.9-24.1,4.3-36.3,4.9c-12.9,0.6-25.9,0.1-38.8-1.1c-12.2-1.2-24.2-3.1-36.1-6c-5.4-1.3-10.8-2.7-16-4.4
					c-2.4-0.8-4.8-1.6-7.2-2.5c-2.2-0.8-4.4-1.7-6.2-2.5c-1-0.5-2.1-0.9-3.1-1.4c-1.2-0.6-2.7-0.3-3.4,0.9
					C609.8,720.9,610.1,722.7,611.3,723.2L611.3,723.2z"/>
			</g>
		</g>
	</g>
	<g id="_x33_" class="st0">
		<path class="st4" d="M823.6,404.6c51.5-1.8,104.3,3.1,151.1,24.5c75.3,34.5,125.8,107.5,161,182.5s59.2,155.4,101.5,226.7
			c-73.6,39.6-160.3,44.4-243.7,48.3c-26.8,1.3-53.8,2.5-80.6,0.4c-41.8-3.3-82.5-14.6-122.6-26.9
			c-94.1-28.9-191.9-67.1-250.8-145.9c-23.9-32-39.8-68.9-52.6-106.5c-8.6-25.4-19.8-56-4.4-81c17.1-27.8,56.7-43.9,84.7-57.6
			c37.4-18.3,76.6-33,116.9-43.7C729.6,413.3,776.5,406.2,823.6,404.6z"/>
		<g class="st2">
			<g>
				<path d="M403.3,579c43-46.5,101.7-76.6,160.9-97.2c29.7-10.3,60.1-18.2,90.9-24.2c35.9-6.9,72.4-11.8,109-12.5
					c36.1-0.6,72.4,3,107,13.6c31.2,9.6,60.3,25.1,86.2,44.9c51,39.1,89.1,93,118.1,149.7c34.4,67.1,57.6,139,85.8,208.7
					c3.3,8.2,6.7,16.3,10.2,24.4c1.3,2.9,5.6,0.4,4.3-2.5c-30.1-70.3-53.1-143.5-85.9-212.6c-28.1-59.2-64.4-115.9-114.2-159.1
					c-23.7-20.6-50.3-37.7-79.3-49.7c-33.6-13.9-69.8-20.5-106-22.1c-36.8-1.6-73.6,1.8-109.9,7.6c-32.7,5.2-65,12.3-96.7,22
					c-60.4,18.6-120.6,46.1-167.7,89.1c-5.7,5.2-11.1,10.6-16.3,16.2C397.6,577.8,401.1,581.4,403.3,579L403.3,579z"/>
			</g>
		</g>
		<g class="st2">
			<g>
				<path d="M399.1,577.2c4.2,59.5,26.9,116.5,61.5,164.9c35.3,49.4,82.6,89.1,135.2,119.2c52.5,30,110.4,51.4,169.6,63.6
					c60.5,12.5,122.6,15.6,184.2,11c67.8-5,134.7-19.2,199.4-39.8c8.5-2.7,17-5.5,25.4-8.5c3-1,1.7-5.9-1.3-4.8
					c-64.1,22.3-130.5,38.5-198.1,45.8c-61.5,6.6-124,6-185-4.2c-58.7-9.8-116.2-28.4-169.2-55.4c-53.7-27.3-103.2-64-141.5-110.8
					c-37.3-45.6-64-100.6-72.7-159.1c-1.1-7.3-1.9-14.6-2.4-21.9C403.8,574,398.8,574,399.1,577.2L399.1,577.2z"/>
			</g>
		</g>
		<g class="st2">
			<g>
				<path d="M817.7,477.7c-17.6-2.8-35.6-3.3-53.4-1.8c-18.5,1.6-36.9,5.2-54.6,10.8c-17.5,5.5-34.5,12.9-50.3,22.4
					c-15.2,9.2-29.3,20.3-41.2,33.6c-11.7,13.1-20.8,28.2-26.9,44.7c-6.6,18-10.1,37.1-10.7,56.3c-0.6,19.1,1.7,38.3,6.6,56.8
					c4.9,18.6,12.5,36.5,22.5,52.9c10,16.3,22.4,31.2,37,43.7c17.1,14.6,37,25.6,57.8,33.9c22,8.8,45.2,14.4,68.6,18.4
					c21,3.6,42.3,6,63.7,6c20.5,0,41.2-2.2,60.8-8.5c19.1-6.1,36.9-16.2,50.8-30.7c15.1-15.7,24.9-35.7,30.6-56.5
					c5.9-21.4,7.8-43.9,7.2-66.1c-0.5-23.4-4-46.9-10.7-69.3c-6.6-22.3-16.4-43.9-29.5-63.2c-11.9-17.6-26.5-33.3-43.3-46.3
					c-16.6-12.9-35.3-23.2-55.3-29.9C837.8,481.5,827.8,479.2,817.7,477.7c-1.3-0.2-2.7,0.3-3.1,1.7c-0.3,1.2,0.4,2.9,1.7,3.1
					c20.4,2.9,40.1,9.6,58.2,19.5c18.1,10,34.6,22.9,48.6,38.1c14.8,16,26.8,34.4,35.9,54.2c9.6,20.7,15.9,43,19.3,65.5
					c3.4,22.2,4,45,1.6,67.4c-2.2,21.1-7.4,42.3-17.5,61c-9.7,18.1-24,33-41.8,43.2c-17,9.7-36.3,14.9-55.7,17.3
					c-20.2,2.4-40.7,1.9-60.9-0.1c-22.2-2.3-44.5-6.2-66.1-12c-22.2-6-43.9-14.2-63.7-26.1c-16.9-10.1-32-22.9-44.7-38
					c-11.9-14.3-21.6-30.5-28.8-47.7c-7.2-17.2-12-35.6-14.1-54.1c-2-18.5-1.5-37.4,2.1-55.7c3.4-17.5,9.3-34.7,18.7-49.9
					c8.9-14.4,20.6-26.9,33.8-37.5c13.8-11.1,29.2-20,45.4-27.1c16.6-7.3,34.2-12.7,52.1-16.1c17.5-3.4,35.3-4.9,53.1-4.3
					c8.2,0.3,16.4,1,24.5,2.3C819.5,483.1,820.8,478.2,817.7,477.7L817.7,477.7z"/>
			</g>
		</g>
		<g class="st2">
			<g>
				<path d="M764.3,594.7c5.6-19.5-9.5-40.1-28.6-44.4c-10.5-2.3-21.5-0.4-31.2,4.3c-9.9,4.8-18,12.6-23.8,21.9
					c-6,9.6-9.7,20.5-11.6,31.7c-1.7,10.3-1.9,20.6-0.5,30.9c2.8,20.5,11.5,40,23.2,56.9c11.8,17.1,27,32.2,44.7,43.3
					c2,1.3,4.1,2.5,6.2,3.7c2.8,1.6,5.3-2.8,2.5-4.3c-17.2-9.5-32.1-22.9-44.1-38.4c-12-15.5-21.4-33.5-25.8-52.6
					c-4.5-19.3-3.3-40.1,4.5-58.4c4-9.5,10.1-18.5,18.5-24.8c7.9-6,17.5-9.8,27.5-10c9.4-0.2,18.2,3.1,24.9,9.7
					c6.1,6,10.2,14.4,9.9,23.1c-0.1,2.1-0.4,4.2-1,6.2C758.5,596.4,763.4,597.8,764.3,594.7L764.3,594.7z"/>
			</g>
		</g>
		<g class="st2">
			<g>
				<path d="M763.6,595.8c5.8-6.6,13-11.9,20.8-15.8c7.7-3.8,16.2-6.3,24.9-6.3c17.4,0.1,32.3,13,39.4,28.1
					c3.7,7.9,5.3,16.7,4.6,25.3c-0.8,9.6-4.5,18.7-9.5,26.9c-5.1,8.4-11.4,15.9-18.2,22.9c-7.4,7.6-15.2,14.8-23.4,21.6
					c-16.3,13.7-33.9,25.8-52.5,36.2c-2.3,1.3-4.7,2.5-7,3.8c-2.8,1.5-0.3,5.8,2.5,4.3c19.7-10.4,38.3-22.7,55.6-36.7
					c8.6-7,16.8-14.3,24.7-22.1c7.4-7.3,14.4-15.1,20.2-23.8c5.6-8.4,10.1-17.8,11.8-27.7c1.7-9.5,0.9-19.1-2.4-28.2
					c-3.2-8.8-8.5-16.8-15.4-23c-6.7-6.1-15.1-10.9-24.1-12.2c-18.5-2.7-37.7,6-51.1,18.4c-1.6,1.5-3.1,3-4.5,4.7
					c-0.9,1-1,2.5,0,3.5C761,596.7,762.7,596.8,763.6,595.8L763.6,595.8z"/>
			</g>
		</g>
	</g>
</g>
<g id="ОБЛАЧЕЧИ">
	<g id="_x31__1_" class="st0">
		<g class="st2">
			<g>
				<path class="st5" d="M111.7,706c-14.8,4.9-28.7,12.2-41.1,21.7c-12.4,9.5-23.1,20.8-31.9,33.7c-8.7,12.7-15.3,27-19.4,41.8
					c-4.2,15.4-5.5,31.5-4.1,47.4c1.5,16.3,5.7,32.2,12.3,47.2c6.5,14.9,15.4,28.8,26.2,41.1c10.7,12.3,23.4,22.9,37.4,31.1
					c15.1,8.8,31.7,15,48.8,18.4c17.2,3.4,35,4.1,52.5,2.1c17.7-2,34.9-6.7,51.1-14c3.9-1.7,7.7-3.6,11.4-5.7
					c2.8-1.5,0.3-5.9-2.5-4.3c-15,8.2-31.3,13.9-48.1,17.1c-16.8,3.2-34,3.8-51,1.8c-16.8-2-33.4-6.6-48.6-13.9
					c-14.5-6.9-27.8-16.3-39.3-27.5c-11.4-11.1-20.9-24-28.4-38c-7.4-13.9-12.6-28.9-15.3-44.3c-2.7-15.2-2.8-31,0-46.3
					c2.7-14.7,7.9-28.8,15.2-41.8c7.4-13.1,16.9-24.9,28.1-34.9c11.2-10,24-18.3,37.8-24.1c3.3-1.4,6.7-2.7,10.1-3.8
					C116.1,709.8,114.8,705,111.7,706L111.7,706z"/>
			</g>
		</g>
		<g class="st2">
			<g>
				<path class="st5" d="M251.3,968.1c-8.3,22.1-13.4,45.3-15.3,68.9c-1.8,23.3-0.5,46.9,4,69.9c4.4,22.7,11.8,44.9,22.3,65.5
					c10.3,20.5,23.6,39.5,39.6,56c16.1,16.6,35,30.6,55.7,41c19.8,10,41,16.9,62.8,20.8c21.9,3.9,44.4,4.9,66.6,2.9
					c22.5-2,44.8-6.9,66-14.7c21.1-7.8,41.3-18.4,59.4-31.7c18.6-13.7,35-30.1,48.6-48.8c3.4-4.7,6.6-9.5,9.6-14.4
					c1.7-2.8-2.6-5.3-4.3-2.5c-11.9,19.5-26.9,36.9-44.2,51.8c-16.9,14.4-36.1,26.2-56.4,35.2c-20.1,8.9-41.5,15-63.3,18.3
					c-21.7,3.3-43.9,3.7-65.7,1.3c-21.5-2.4-42.7-7.8-62.7-16.1c-20.8-8.6-40.1-20.6-57-35.5c-16.8-14.9-31.1-32.5-42.6-51.8
					c-11.6-19.5-20.2-40.6-25.9-62.6c-5.8-22.2-8.5-45.1-8.2-68c0.3-23,3.8-45.9,10.4-68c1.6-5.5,3.5-10.9,5.5-16.2
					C257.3,966.4,252.5,965.1,251.3,968.1L251.3,968.1z"/>
			</g>
		</g>
		<g class="st2">
			<g>
				<path class="st5" d="M1205.9,964.9c-15.2-4.4-31.7-2.6-46,4c-14.6,6.7-26.3,18.6-32.5,33.5c-6.2,15-6.5,32.5-1.1,47.8
					c5.4,15.3,16.4,27.8,30.8,35.2c14,7.2,30.4,9.6,45.8,6.1c1.9-0.4,3.7-1,5.5-1.6c3-1,1.7-5.8-1.3-4.8c-14,4.7-29.3,3.7-42.9-1.9
					c-13.7-5.6-24.9-16-31.2-29.5c-6.3-13.7-7.2-29.9-2.9-44.3c4.3-14.4,14.1-26.3,27.1-33.7c12.5-7.1,27.6-10.1,41.9-7.4
					c1.8,0.3,3.6,0.8,5.4,1.3C1207.6,970.6,1208.9,965.8,1205.9,964.9L1205.9,964.9z"/>
			</g>
		</g>
		<g class="st2">
			<g>
				<path class="st5" d="M1209.9,970.2c2.5-15.4,12.6-28.2,25.5-36.6c13.1-8.6,28.5-12.8,44.1-12.9c15.2-0.1,30.4,3.7,44,10.5
					c13.6,6.8,25.9,16.6,35.1,28.9c9.1,12.2,14.9,26.6,16.8,41.8c1.9,15.2,0.2,30.7-4.7,45.2c-4.9,14.4-13.1,27.7-24.1,38.3
					c-10.4,9.9-23.3,17.1-36.9,21.3c-14.4,4.5-29.8,5.8-44.8,3.9c-16.2-2-31.7-8.1-45.2-17.2c-3.5-2.4-6.9-5-10.1-7.7
					c-1-0.9-2.5-1-3.5,0c-0.9,0.9-1,2.7,0,3.5c13.4,11.5,29.3,19.9,46.5,24.1c15.6,3.8,32,4,47.8,0.8c14.8-3,29.1-9.1,41.2-18.1
					c12.8-9.6,23-22.4,29.7-36.9c6.8-14.6,10.3-30.7,10-46.8c-0.3-16.1-4.4-32-12.4-46c-8-13.9-19.7-25.7-33.2-34.3
					c-13.7-8.7-29.3-14.2-45.4-16c-16.2-1.8-32.8,0.7-47.6,7.6c-14.8,6.9-27.9,18.5-34.3,33.8c-1.5,3.6-2.6,7.3-3.2,11.2
					c-0.2,1.3,0.3,2.7,1.7,3.1C1208,972.3,1209.7,971.6,1209.9,970.2L1209.9,970.2z"/>
			</g>
		</g>
		<g class="st2">
			<g>
				<path class="st5" d="M1460.6,1076.3c-13.2-1.8-28-0.1-37.5,10.2c-7.3,8-9.9,19.3-7.8,29.8c2.1,10.5,9.3,19.6,19.4,23.4
					c6.6,2.5,14,2.4,20.9,1.1c9.5-1.8,18.5-6.6,24.4-14.4c5.9-7.7,7.7-17.8,5-27.1c-2.7-8.9-9.2-17-17.7-20.9
					C1465.1,1077.5,1462.9,1076.8,1460.6,1076.3c-1.3-0.2-2.7,0.4-3.1,1.7c-0.3,1.2,0.4,2.8,1.7,3.1c8.3,1.6,15.1,7.3,18.9,14.7
					c3.8,7.5,4.1,16.3,0.2,23.8c-4,7.6-11.3,12.6-19.3,15.1c-4.1,1.3-8.4,2-12.7,2c-1.4,0-2.8-0.1-4.1-0.2c-0.5-0.1-0.1,0,0,0
					c-0.2,0-0.4-0.1-0.6-0.1c-0.3,0-0.5-0.1-0.8-0.1c-0.7-0.1-1.3-0.3-2-0.5c-0.6-0.2-1.3-0.4-1.9-0.6c-0.2-0.1-0.5-0.2-0.7-0.3
					c-0.2-0.1-1.2-0.5-0.7-0.3c-1.1-0.5-2.2-1-3.2-1.6c-0.5-0.3-0.9-0.6-1.4-0.9c-0.3-0.2-0.5-0.4-0.7-0.5c-0.6-0.4,0.1,0.1-0.4-0.3
					c-0.9-0.8-1.8-1.6-2.7-2.5c-0.4-0.4-0.7-0.8-1.1-1.2c-0.2-0.2-0.3-0.4-0.5-0.6c-0.1-0.1-0.4-0.5,0,0c-0.1-0.1-0.2-0.3-0.3-0.4
					c-0.7-0.9-1.3-1.9-1.9-2.9c-0.3-0.5-0.6-1-0.8-1.5c-0.1-0.2-0.2-0.5-0.4-0.7c-0.1-0.1-0.4-1-0.3-0.7c0.1,0.3-0.2-0.4-0.2-0.5
					c-0.1-0.3-0.2-0.6-0.3-0.8c-0.2-0.6-0.4-1.1-0.6-1.7c-0.3-1.1-0.6-2.2-0.8-3.3c-0.1-0.3-0.1-0.6-0.2-0.9c0-0.1,0-0.2-0.1-0.4
					c-0.1-0.6,0.1,0.4,0,0c-0.1-0.6-0.1-1.2-0.2-1.8c-0.1-1.2-0.1-2.4-0.1-3.5c0-0.5,0.1-1.1,0.1-1.6c0-0.3,0.1-0.6,0.1-0.9
					c0-0.1,0-0.2,0-0.4c0.1-0.6-0.1,0.6,0-0.1c0.4-2.3,0.9-4.6,1.8-6.9c0-0.1,0.1-0.2,0.1-0.3c0.2-0.6-0.2,0.4,0,0
					c0.1-0.3,0.2-0.5,0.3-0.8c0.3-0.6,0.5-1.1,0.8-1.6c0.6-1.1,1.2-2.1,1.9-3.1c0.2-0.2,0.3-0.5,0.5-0.7c-0.4,0.5,0.2-0.3,0.3-0.4
					c0.4-0.5,0.8-1,1.3-1.4c0.8-0.9,1.7-1.7,2.7-2.5c0.1-0.1,0.2-0.2,0.3-0.2c0.5-0.4-0.4,0.3,0.1-0.1c0.2-0.2,0.4-0.3,0.6-0.5
					c0.5-0.4,1.1-0.8,1.7-1.1c1.2-0.7,2.4-1.4,3.7-1.9c0.1-0.1,0.3-0.1,0.4-0.2c-0.4,0.2-0.1,0,0,0c0.3-0.1,0.7-0.3,1-0.4
					c0.7-0.3,1.4-0.5,2.1-0.7c1.4-0.4,2.9-0.8,4.4-1c0.4-0.1,0.8-0.1,1.2-0.2c0.5-0.1,0.2,0,0.1,0c0.2,0,0.4-0.1,0.6-0.1
					c0.9-0.1,1.8-0.2,2.7-0.2c1.8-0.1,3.5-0.1,5.3,0c1.8,0.1,3.7,0.3,5.4,0.5c1.3,0.2,2.7-0.3,3.1-1.7
					C1462.7,1078.3,1462,1076.5,1460.6,1076.3L1460.6,1076.3z"/>
			</g>
		</g>
		<g class="st2">
			<g>
				<path class="st5" d="M114.6,707.2c-14.1-27.4-25.4-56.1-33.4-85.8c-8-29.8-12.7-60.5-13.6-91.3c-0.8-29.1,2-58.3,8.5-86.7
					c6.3-27.7,16.1-54.6,29.3-79.8c13.1-24.9,29.4-48.1,48.9-68.4c19-19.7,40.8-36.6,64.7-50c23.9-13.4,49.8-23.4,76.6-29
					c26.3-5.5,53.5-6.7,80.2-3.2c26.4,3.4,52.3,11.3,76.1,23.2c23.6,11.8,45.2,27.5,63.3,46.7c4.4,4.7,8.6,9.6,12.6,14.7
					c2,2.5,5.5-1,3.5-3.5c-16.6-21.2-37.3-39.1-60.3-53c-23-13.9-48.4-23.9-74.6-29.5c-26.7-5.7-54.2-7-81.3-3.6
					c-27.6,3.5-54.5,11.5-79.7,23.2c-25.3,11.8-48.8,27.4-69.6,46c-21.1,18.9-39.3,41-54.1,65.1c-15.1,24.5-26.8,51.2-35,78.8
					c-8.3,27.9-12.9,56.9-14,86c-1.1,31.1,1.8,62.3,8.2,92.8c6.4,30.7,16.4,60.6,29.4,89.1c3.2,7,6.5,13.9,10,20.7
					C111.7,712.6,116,710,114.6,707.2L114.6,707.2z"/>
			</g>
		</g>
		<g class="st2">
			<g>
				<path class="st5" d="M531.6,296.9c8.1-17.6,19.8-33.4,34.1-46.5c14.2-13,30.9-23.4,48.9-30.2c18.5-6.9,38.2-9.8,57.9-8.6
					c20.5,1.2,40.7,6.4,59.4,14.9c18.8,8.5,36.2,20.2,51.2,34.4c15.5,14.7,28.2,31.9,38.1,50.8c10.1,19.2,17.1,40,21.2,61.3
					c4.2,21.6,5.3,43.8,3.4,65.7c-1.9,22.1-7.1,43.9-14.9,64.7c-7.8,20.9-18.2,40.8-29.9,59.7c-2.9,4.7-6,9.4-9.1,14
					c-1.8,2.7,2.5,5.2,4.3,2.5c12.8-19.1,24.4-39.1,33.5-60.2c9-20.8,15.8-42.5,19.2-64.9c3.4-22.4,3.6-45.2,0.7-67.6
					c-2.9-22.1-8.7-43.8-17.7-64.2c-8.8-20.1-20.7-38.9-35.4-55.1c-14.2-15.7-31.2-29-49.7-39.2c-18.5-10.1-38.7-17.2-59.6-20.3
					c-20.3-3-41-2.3-60.8,3c-19.1,5.1-37.2,14.2-53,26.2c-15.8,12.1-29.4,27-39.5,44.2c-2.5,4.2-4.7,8.4-6.7,12.8
					C526,297.3,530.3,299.8,531.6,296.9L531.6,296.9z"/>
			</g>
		</g>
		<g class="st2">
			<g>
				<path class="st5" d="M667.2,1184.4c27.8,18.1,59.6,29.1,92.4,33.4c33.3,4.3,67.3,1.7,99.7-6.9c32.4-8.6,63.4-23.1,90.4-43.1
					c27.6-20.4,51-46.4,69.5-75.2c18.8-29.2,32.6-61.6,41.6-95.2c9.1-34,13.2-69.3,12.5-104.4c-0.8-37.2-7.1-74.4-18.8-109.7
					c-11.8-35.7-29.1-69.5-52.1-99.3c-22.4-29-50.2-53.6-81.9-72.1c-31.3-18.3-66.2-30.4-102.3-34.4c-8.8-1-17.6-1.4-26.4-1.4
					c-3.2,0-3.2,5,0,5c35.7-0.1,71.2,8.3,103.6,23.3c32.4,15.1,61.9,36.5,86.2,62.7c25.2,27,45,59,59.1,93.1
					c14.2,34.4,23,71,26.3,108c3.1,34.3,1.4,69.1-5.1,103c-6.5,33.6-17.7,66.4-33.8,96.7c-16,30-36.8,57.5-62.1,80.3
					c-24.5,22.2-53.4,39.3-84.4,50.6c-30.9,11.2-63.9,16.9-96.8,16c-32.5-0.9-65-8.2-94.2-22.7c-7.1-3.6-14.1-7.5-20.7-11.9
					C667,1178.3,664.5,1182.6,667.2,1184.4L667.2,1184.4z"/>
			</g>
		</g>
	</g>
	<g id="_x32__1_">
		<g>
			<g>
				<path class="st5" d="M190.7,795.8c-26.2-4.9-50.5-17.4-69.9-35.7c-19.2-18.2-33.3-41.6-40.6-67c-7.7-26.7-8.1-55.9-0.2-82.6
					c7.9-26.6,23-50.9,43.2-70c19.8-18.7,44.4-32,71-38.3c3.3-0.8,6.6-1.4,9.9-2c1.3-0.2,2.1-1.9,1.7-3.1c-0.4-1.4-1.7-2-3.1-1.7
					c-13.9,2.3-27.4,6.6-40.2,12.5c-12.7,5.9-24.6,13.5-35.3,22.4c-10.8,9-20.4,19.4-28.6,30.9c-8.3,11.7-15.1,24.5-20.1,38
					c-5.1,13.8-8.1,28.2-9,42.9c-0.8,14.2,0.3,28.5,3.4,42.4c2.9,13.5,7.7,26.6,14.1,38.8c6.3,12,14.2,23.3,23.4,33.2
					c9.2,9.9,19.8,18.6,31.3,25.6c11.7,7.1,24.5,12.6,37.8,16.1c3.3,0.9,6.6,1.6,10,2.2c1.3,0.2,2.7-0.4,3.1-1.7
					C192.8,797.7,192,796.1,190.7,795.8L190.7,795.8z"/>
			</g>
		</g>
		<g>
			<g>
				<path class="st5" d="M187.6,797.5c-10.7,63-1.2,127.9,32.9,182.5c32.5,52,82.9,90.8,138.2,116.1
					c59.7,27.3,125.8,40.3,191.4,39.9c66-0.4,132.5-14.6,191.4-45c60-31,110.1-79.1,141.4-139.2c4.1-8,7.9-16.1,11.4-24.3
					c-1.1,0.3-2.3,0.6-3.4,0.9c59.9,39.8,129.6,67.3,201.8,71.6c36.2,2.2,72.9-1.9,107.4-13.1c33.2-10.8,61.1-30.3,83.9-56.8
					c12.3-14.3,23-30,32.4-46.3c11.3-19.4,16.6-40.5,20.1-62.6c0.5-3.1-4.3-4.5-4.8-1.3c-3,19.2-7.1,38.2-16.3,55.5
					c-7.9,15-17.6,29.5-28.2,42.8c-21.2,26.9-47.9,49.2-80.4,61c-66.8,24.2-140.1,19.5-206.7-2.6c-37.8-12.5-73.6-30.6-106.8-52.6
					c-1-0.7-2.9-0.3-3.4,0.9c-26.4,62.4-71.7,114.6-129.6,149.8c-55.8,33.8-120.5,51.6-185.3,55.5c-64.8,3.9-130.8-5.6-191.4-29
					c-56.2-21.7-109-56.2-145.6-104.7C200.4,947,184,885.9,189.2,824.2c0.7-8.5,1.8-16.9,3.3-25.3
					C193,795.7,188.1,794.4,187.6,797.5L187.6,797.5z"/>
			</g>
		</g>
		<g>
			<g>
				<path class="st5" d="M1334,823.1c16.8-1.3,33.1-6.9,47.3-16c14.1-9.1,25.9-21.5,34.4-35.9c8.8-14.8,14-31.5,14.9-48.7
					c0.9-17.3-2.6-34.6-9.5-50.4c-6.9-15.7-17.4-30-30.8-40.8c-1.7-1.4-3.5-2.7-5.3-4c-1.1-0.8-2.8-0.2-3.4,0.9
					c-0.7,1.3-0.2,2.6,0.9,3.4c13.4,9.5,24.2,22.6,31.6,37.2c7.4,14.7,11.5,31.1,11.6,47.5c0.1,16.4-3.8,32.6-11.4,47.1
					c-7.3,14.1-17.9,26.6-30.7,36c-12.9,9.5-28,15.8-43.9,18.1c-1.9,0.3-3.8,0.5-5.7,0.6c-1.3,0.1-2.5,1.1-2.5,2.5
					C1331.5,821.8,1332.7,823.2,1334,823.1L1334,823.1z"/>
			</g>
		</g>
		<g>
			<g>
				<path class="st5" d="M726.7,1176.6c-23,7.3-38.2,32.2-33.1,56c2.5,11.6,9.3,22.2,18.7,29.4c10.2,7.8,23.2,10.8,35.9,9.5
					c15.4-1.6,29.8-8.3,42.5-16.9c-1.1-0.3-2.3-0.6-3.4-0.9c7.8,15.3,25.8,22.9,42.4,21.7c18.6-1.4,34.2-13.9,43.1-29.8
					c10.7-19.2,11.4-41.8,7.2-63c-2.2-11-5.5-22.1-10.1-32.3c-4.2-9.4-10.4-18.3-19.6-23.4c-8.3-4.7-19.2-6.3-27.8-1.3
					c-7.2,4.2-12.3,12.9-11.3,21.4c0.3,2.2,0.9,4.2,1.9,6.2c0.6,1.1,2,1.5,3.1,1c1.2-0.5,1.6-1.7,1.4-2.9c-0.8-6-6.3-10.5-11.1-13.4
					c-6.8-4-14.6-6.3-22.4-7.4c-8.9-1.2-18-1.1-26.7,1.2c-8.5,2.2-16.7,6.6-22.4,13.4c-6.9,8.2-9.9,18.6-10.2,29.2
					c0,1.6,0,3.1,0,4.7c0.1,3.2,5.1,3.2,5,0c-0.2-5.8,0.2-10.9,1.6-16.3c0.3-1.2,0.7-2.3,1.1-3.4c0.2-0.5,0.4-1.1,0.6-1.6
					c0.1-0.1,0.1-0.3,0.2-0.4c-0.2,0.4,0,0.1,0,0c0.1-0.3,0.3-0.6,0.4-0.9c0.9-2,2.1-3.9,3.3-5.8c0.1-0.2,0.3-0.4,0.4-0.6
					c0.1-0.1,0.2-0.2,0.2-0.3c0.2-0.3-0.2,0.3,0,0c0.3-0.4,0.7-0.8,1-1.2c0.7-0.8,1.4-1.5,2.1-2.3c0.8-0.7,1.5-1.4,2.4-2.1
					c0.2-0.1,0.4-0.3,0.5-0.4c0.3-0.2-0.3,0.2,0,0c0.1-0.1,0.2-0.2,0.3-0.2c0.4-0.3,0.8-0.6,1.3-0.9c1.7-1.2,3.5-2.2,5.3-3.1
					c0.4-0.2,0.9-0.4,1.3-0.6c0.1-0.1,0.2-0.1,0.4-0.2c0.3-0.1-0.4,0.2-0.1,0c0.3-0.1,0.5-0.2,0.8-0.3c0.9-0.4,1.9-0.7,2.9-1
					c2-0.6,4-1.2,6.1-1.6c1-0.2,2-0.4,3.1-0.5c0.6-0.1-0.3,0,0.3,0c0.2,0,0.5-0.1,0.7-0.1c0.5-0.1,1.1-0.1,1.6-0.2
					c4.2-0.4,8.4-0.3,12.6,0.1c0.5,0,1,0.1,1.5,0.2c0.3,0,0.5,0.1,0.8,0.1c0.6,0.1-0.3-0.1,0.4,0.1c1,0.1,2,0.3,3,0.5
					c2,0.4,3.9,0.8,5.8,1.3c1.8,0.5,3.6,1.1,5.4,1.8c0.4,0.2,0.8,0.3,1.2,0.5c0.1,0,0.7,0.3,0.3,0.1c-0.3-0.1,0.4,0.2,0.5,0.2
					c0.8,0.4,1.6,0.7,2.4,1.1c1.4,0.7,2.8,1.5,4.2,2.4c0.3,0.2,0.6,0.4,1,0.7c0.1,0.1,0.3,0.2,0.4,0.3c0.4,0.3-0.4-0.3,0.1,0.1
					c0.5,0.4,1.1,0.9,1.6,1.4c0.5,0.5,1,0.9,1.4,1.4c0.2,0.2,0.4,0.5,0.6,0.8c-0.5-0.6,0.1,0.1,0.2,0.4c0.3,0.5,0.7,1,0.9,1.6
					c0.1,0.1,0.1,0.2,0.2,0.4c0.2,0.5-0.2-0.5-0.1-0.1c0.1,0.3,0.2,0.6,0.3,0.9c0.2,0.5,0.3,1.1,0.4,1.6c1.5-0.6,3-1.3,4.6-1.9
					c-3.3-6.4-0.3-14.2,4.9-18.8c6.2-5.5,15.6-5.2,22.8-1.9c8.7,4,14.6,11.4,18.8,19.7c4.6,9.2,7.7,19.3,10.1,29.3
					c4.6,19.4,5.5,40.7-3,59.2c-6.9,15-19.6,28.3-36.3,31.7c-14.3,2.9-31-1.8-40-13.7c-1.2-1.5-2.1-3.2-3-4.9
					c-0.6-1.1-2.3-1.6-3.4-0.9c-19.6,13.2-47.2,23.8-69.3,10.1c-9.1-5.6-16.1-14.6-19.3-24.8c-3.3-10.3-2.4-21.3,2.3-31
					c5.3-10.8,14.7-19.6,26.2-23.2C731.1,1180.4,729.8,1175.6,726.7,1176.6L726.7,1176.6z"/>
			</g>
		</g>
		<g>
			<g>
				<path class="st5" d="M849.9,1370.6c4.9-5,9.6-11.1,11.1-18.1c1.1-5.1,0.3-10.5-2.7-14.9c-6.3-9.3-18.5-13.3-29.2-14.7
					c-5.8-0.8-11.6-0.7-17.3,0.2c-5,0.8-10,2.5-14.1,5.7c-5.1,4-6.8,10.5-7.6,16.7c-1.1,8.6,0.6,17.6,5.1,25.1
					c4.2,7,11,12.5,19.2,14.1c10,1.9,20-1.9,28-7.8C845.1,1374.9,847.5,1372.8,849.9,1370.6c2.3-2.2-1.2-5.8-3.5-3.5
					c-7.1,6.8-16.2,13-26.1,13.2c-7.2,0.1-13.5-3.1-18.2-8.7c-4.7-5.6-7.1-13.4-7.2-20.9c0-4.2,0.6-8.1,2-12.1
					c0.2-0.5,0.4-1,0.5-1.5c0.2-0.6-0.2,0.4,0.1-0.2c0.2-0.4,0.4-0.8,0.7-1.3c0.1-0.2,0.2-0.4,0.4-0.6c0.2-0.3,0.4-0.5,0.1-0.1
					c0.3-0.4,0.6-0.8,1-1.1c0.3-0.3,0.7-0.7,1-1c0.2-0.2,0.4-0.3,0.6-0.5c-0.6,0.5,0.2-0.1,0.3-0.2c0.8-0.6,1.7-1.1,2.6-1.6
					c0.5-0.2,1-0.5,1.5-0.7c-0.7,0.3,0.1-0.1,0.3-0.1c0.3-0.1,0.6-0.2,0.9-0.3c1.1-0.4,2.2-0.7,3.4-1c1.2-0.3,2.4-0.5,3.6-0.7
					c0.2,0,0.4-0.1,0.6-0.1c-0.1,0-0.6,0.1-0.1,0c0.3,0,0.6-0.1,0.9-0.1c0.7-0.1,1.4-0.1,2.1-0.2c2.7-0.2,5.4-0.2,8,0
					c0.7,0,1.3,0.1,2,0.2c0.3,0,0.7,0.1,1,0.1c0.1,0,0.3,0,0.4,0c0.5,0.1-0.4-0.1,0.2,0c1.4,0.2,2.7,0.4,4,0.7
					c2.6,0.6,5.2,1.3,7.7,2.2c0.6,0.2,1.2,0.5,1.8,0.7c-0.6-0.3,0.3,0.1,0.4,0.2c0.3,0.2,0.7,0.3,1,0.5c1.1,0.5,2.3,1.2,3.3,1.8
					c0.5,0.3,0.9,0.6,1.4,0.9c0.2,0.2,0.5,0.3,0.7,0.5c0.1,0.1,0.2,0.2,0.3,0.3c0.5,0.4-0.4-0.3,0,0c0.9,0.7,1.8,1.5,2.6,2.3
					c0.4,0.4,0.7,0.8,1.1,1.2c0.1,0.1,0.1,0.2,0.2,0.2c0.4,0.4-0.3-0.5,0,0c0.2,0.2,0.3,0.5,0.5,0.7c0.6,0.9,1.1,1.8,1.5,2.8
					c-0.3-0.7,0,0.1,0.1,0.3c0.1,0.2,0.2,0.5,0.2,0.7c0.2,0.5,0.3,1.1,0.4,1.7c0,0.3,0.1,0.5,0.1,0.8c-0.1-0.6,0-0.1,0,0.2
					c0,0.6,0.1,1.1,0.1,1.7c0,0.6-0.1,1.1-0.1,1.7c-0.1,0.6,0.1-0.6,0,0c0,0.1,0,0.2-0.1,0.3c-0.1,0.4-0.1,0.7-0.2,1.1
					c-0.1,0.6-0.3,1.2-0.5,1.8c-0.1,0.3-0.2,0.6-0.3,0.9c-0.1,0.2-0.4,1-0.3,0.8c0.2-0.4-0.1,0.3-0.1,0.3c-0.1,0.2-0.1,0.3-0.2,0.5
					c-0.1,0.3-0.3,0.6-0.4,0.9c-0.4,0.7-0.8,1.5-1.2,2.2c-0.8,1.4-2,3-2.8,4c-1.2,1.5-2.5,2.9-3.8,4.3
					C844.1,1369.4,847.6,1372.9,849.9,1370.6L849.9,1370.6z"/>
			</g>
		</g>
		<g>
			<g>
				<path class="st5" d="M201.8,502c-1.9-37.9,4-75.9,16.5-111.7c12.5-35.7,31.7-69.2,56.4-98c25.1-29.2,55.7-53.1,90.2-70.1
					c35-17.3,73.5-27.5,112.4-30.2c39-2.8,78.4,1.8,115.5,14.2c4.5,1.5,9,3.1,13.4,4.9c3,1.2,4.3-3.7,1.3-4.8
					c-37-14.5-76.9-21-116.6-20c-39.7,1.1-79.2,9.7-115.6,25.6c-35.8,15.5-68.1,38.3-94.9,66.6c-26.5,28.1-47.4,61.2-61.9,96.9
					c-14.4,35.6-22.2,74-22.2,112.4c0,4.7,0.1,9.4,0.4,14.1C197,505.2,202,505.2,201.8,502L201.8,502z"/>
			</g>
		</g>
		<g>
			<g>
				<path class="st5" d="M608.7,210.5c38-31.2,81.8-55.8,128.4-71.7c24.1-8.2,49.1-14.1,74.4-17.2c21.1-2.5,42.4-2.3,63.6-0.2
					c44.9,4.5,90,16.8,130.4,37c38.6,19.3,72.5,48.7,97.7,83.7c25.6,35.4,40.1,77.4,39.3,121.3c-0.1,5.6-0.4,11.1-0.9,16.7
					c-0.3,3.2,4.7,3.2,5,0c2.1-22.7,0.7-45.6-4.8-67.7c-5.2-20.9-13.9-40.9-25.2-59.2c-11.9-19.2-26.6-36.6-42.9-52.2
					c-15.7-15-32.7-28.5-51.5-39.3c-39.6-22.7-84.7-36.6-129.7-43.2c-21.9-3.2-44.1-4.7-66.2-3.3c-24.7,1.5-49.4,6.3-73.2,13.2
					c-48.4,13.9-94.1,37.2-134.3,67.5c-4.7,3.5-9.3,7.2-13.9,10.9C602.7,209,606.3,212.5,608.7,210.5L608.7,210.5z"/>
			</g>
		</g>
		<g>
			<g>
				<path class="st5" d="M1144.9,382.6c14.6-5.4,29.6-9.5,45-11.6c14.2-2,28.7-2.2,43-0.7c13.8,1.5,27.4,4.8,40.4,9.6
					c13.2,4.9,25.8,11.5,37.5,19.4c12.2,8.2,23.6,17.7,33.8,28.3c9.4,9.8,17.6,20.8,24.4,32.6c6.8,11.8,12.3,24.3,16.4,37.3
					c4.1,13,6.9,26.5,8.2,40.1c1.4,13.8,1.3,27.7-0.1,41.5c-1.4,13.6-4.3,27.1-8.6,40.1c-1.1,3.2-2.2,6.4-3.4,9.6
					c-0.5,1.3,0.5,2.7,1.7,3.1c1.4,0.4,2.6-0.5,3.1-1.7c5.1-13.1,8.7-26.7,10.9-40.6c2.2-13.9,2.9-28.1,2.2-42.1
					c-0.7-14-2.9-28-6.4-41.6c-3.6-13.6-8.5-26.8-14.9-39.3c-6.3-12.4-14.1-24.1-23.1-34.8c-9.6-11.3-20.8-21.4-32.6-30.3
					c-11.6-8.7-24.2-16.2-37.5-22.1c-13.1-5.8-26.8-10-41-12.4c-14.3-2.4-28.9-3.1-43.4-1.9c-15.4,1.2-30.7,4.3-45.4,9
					c-3.8,1.2-7.6,2.5-11.4,3.9c-1.3,0.5-2.1,1.7-1.7,3.1C1142.2,382,1143.6,383,1144.9,382.6L1144.9,382.6z"/>
			</g>
		</g>
	</g>
	<g id="_x33__1_" class="st0">
		<g class="st2">
			<g>
				<path class="st5" d="M320.6,741.9c-5.4,85.9,24.3,173.9,76.2,242.1c55.7,73.3,140.1,120.4,225.4,151
					c45.5,16.3,92.6,28.4,140.1,37.3c49.1,9.2,99.1,14.6,149.1,14c92.8-1.2,186.1-24.8,261.1-81.2c63-47.4,111.8-117,118.6-197.2
					c0.9-10,1-20,0.6-30.1c-0.1-3.2-5.1-3.2-5,0c3.5,80.8-37.2,154.7-97,206.9c-68.6,59.9-157.5,89.5-247.5,95.3
					c-49.1,3.2-98.5,0-147.1-7.3c-46.9-7.1-93.5-17.6-138.8-31.7c-44.7-13.9-88.3-31.5-129.1-54.5c-39-22-76.4-48.7-106.6-81.9
					c-57.1-62.7-92.5-147.6-95.4-232.4c-0.3-10.2-0.2-20.4,0.5-30.5C325.8,738.7,320.8,738.7,320.6,741.9L320.6,741.9z"/>
			</g>
		</g>
		<g class="st2">
			<g>
				<path class="st5" d="M323.7,739.5c-28-7.4-53.4-23-73.7-43.6c-20.1-20.5-35.4-45.9-43.5-73.5c-8.7-29.5-8.3-60.9,0.8-90.3
					c9.1-29.4,26.6-56.4,49.6-76.8c11.5-10.2,25.1-18.1,39.2-24.4c14.4-6.5,29.6-11.3,45.1-14.3c3.6-0.7,7.2-1.3,10.8-1.8
					c1.3-0.2,2.1-1.9,1.7-3.1c-0.4-1.4-1.7-1.9-3.1-1.7c-15.8,2.2-31.4,6.4-46.3,12.2c-15.1,5.8-29.8,13.3-42.8,23
					c-12.6,9.5-23.5,21.2-32.8,33.8c-9.3,12.7-17,26.6-22.6,41.2c-11.3,29.4-14.1,62-7.3,92.8c6.5,29,20.8,56.2,40.4,78.6
					c19.4,22.3,44.4,39.8,72.5,49.4c3.5,1.2,7,2.3,10.6,3.2C325.5,745.2,326.8,740.3,323.7,739.5L323.7,739.5z"/>
			</g>
		</g>
		<g class="st2">
			<g>
				<path class="st5" d="M253.5,1042.7c1.3-12.1,1-24.6-2.6-36.3c-2.9-9.2-7.8-17.6-14.7-24.3c-6.3-6.2-14.1-10.7-22.3-13.8
					c-8-3-16.5-4.6-25-5.1c-7.9-0.5-15.8,0-23.6,1.4c-8.4,1.5-16.3,4.5-23.6,9c-12.2,7.6-22,19-28.1,32c-6.2,13.2-8.8,27.9-6.6,42.3
					c2.1,14.2,9,27.5,18.6,38.1c9.6,10.6,22.2,18.6,36,22.4c3.4,0.9,6.9,1.6,10.4,2c1.3,0.2,2.5-1.3,2.5-2.5c0-1.5-1.2-2.3-2.5-2.5
					c-13.3-1.6-26-7.6-36.2-16.3c-10.2-8.8-18.2-20.4-22-33.4c-3.9-13.1-3.3-27.1,1.1-40c4.4-12.9,12.4-24.5,22.9-33.1
					c2.6-2.1,5.4-4,8.2-5.7c1.5-0.9,3-1.7,4.6-2.4c1.2-0.6,2.3-1.1,3.3-1.5c2.8-1.1,5.7-2,8.6-2.7c1.6-0.4,3.3-0.7,4.9-1
					c0.9-0.1,1.7-0.3,2.6-0.4c0.6-0.1-0.3,0,0.2,0c0.2,0,0.4-0.1,0.6-0.1c0.5-0.1,0.9-0.1,1.4-0.2c3.8-0.4,7.6-0.6,11.3-0.6
					c2,0,3.9,0.1,5.9,0.2c1,0.1,2,0.2,3,0.3c0.4,0,0.9,0.1,1.3,0.1c0.3,0,0.6,0.1,0.8,0.1c0.2,0,1,0.1,0.4,0c4,0.6,8,1.4,12,2.5
					c2,0.6,3.9,1.2,5.8,1.9c0.5,0.2,0.9,0.4,1.4,0.5c0.2,0.1,0.4,0.2,0.6,0.2c0.1,0.1,0.3,0.1,0.4,0.2c-0.2-0.1-0.2-0.1,0,0
					c1,0.4,1.9,0.9,2.9,1.3c1.9,0.9,3.7,1.9,5.4,3c0.8,0.5,1.7,1.1,2.5,1.6c0.4,0.3,0.8,0.6,1.2,0.9c0.2,0.1,0.4,0.3,0.6,0.4
					c0.1,0.1,0.2,0.2,0.3,0.3c0.3,0.2-0.5-0.4,0.1,0.1c3.3,2.6,6.3,5.6,9,8.9c0.1,0.1,0.4,0.5,0.2,0.2c0.2,0.2,0.3,0.4,0.5,0.6
					c0.3,0.5,0.7,0.9,1,1.4c0.7,0.9,1.3,1.9,1.9,2.9c1.2,2,2.2,4,3.2,6.1c0.3,0.7,0.2,0.5,0.5,1.1c0.2,0.6,0.5,1.2,0.7,1.7
					c0.4,1.2,0.8,2.3,1.2,3.5c0.8,2.5,1.4,5,1.8,7.6c0.5,2.8,0.8,5.1,1,8c0.2,3,0.3,6.1,0.2,9.2c-0.1,3.3-0.3,6.5-0.7,9.8
					c-0.1,1.3,1.3,2.5,2.5,2.5C252.4,1045.2,253.3,1044,253.5,1042.7L253.5,1042.7z"/>
			</g>
		</g>
		<g class="st2">
			<g>
				<path class="st5" d="M232,1043.7c11.8-1.6,23.6,2.1,33.4,8.6c10.3,6.8,18.7,16.6,24.5,27.4c5.5,10.1,8.7,21.6,9.9,33
					c1.2,11.3,0.5,22.7-2,33.8c-2.5,11.1-6.6,21.8-12.3,31.7c-5.7,9.8-12.9,18.7-21.5,26.2c-9.4,8.2-20.5,14.5-32.4,18.2
					c-13,4-27.2,5.1-40.4,1.2c-11.4-3.4-21.1-10.6-27.5-20.7c-5.8-9.2-8.9-20.6-6.6-31.3c0.6-2.6,1.4-5.2,2.5-7.6
					c0.6-1.2,0.3-2.7-0.9-3.4c-1.1-0.6-2.8-0.3-3.4,0.9c-5.2,11-5,23.7-0.5,34.9c4.6,11.4,12.9,21.4,23.7,27.3
					c12.8,7,27.8,8.5,42.1,6.4c13.8-2.1,27.1-7.7,38.5-15.7c9.9-7,18.4-15.7,25.4-25.6c7-9.9,12.3-20.9,15.8-32.5
					c3.5-11.5,5.3-23.6,5-35.6c-0.3-12.1-2.6-24.2-7.2-35.3c-5-12.2-12.9-23.5-23-32.1c-9.8-8.4-21.9-14.3-34.9-15
					c-3.2-0.2-6.5,0-9.7,0.5c-1.3,0.2-2.1,1.9-1.7,3.1C229.4,1043.4,230.7,1043.9,232,1043.7L232,1043.7z"/>
			</g>
		</g>
		<g class="st2">
			<g>
				<path class="st5" d="M128.3,1082.8c-10.6,1.3-19.6,7.2-25.3,16.2c-5.6,8.9-7.5,20-5.3,30.3c2.1,9.9,6.6,19.8,14,26.9
					c5.9,5.7,13.4,9.5,21.5,10.9c8.3,1.5,17.1,0.8,25.1-2c1.3-0.4,2.1-1.7,1.7-3.1c-0.3-1.2-1.8-2.2-3.1-1.7c-1.6,0.5-3.1,1-4.7,1.4
					c-0.8,0.2-1.6,0.3-2.4,0.5c-0.4,0.1-0.8,0.1-1.3,0.2c-0.2,0-0.3,0-0.5,0.1c-0.3,0-0.3,0,0,0c-0.2,0-0.3,0-0.5,0.1
					c-3.4,0.4-6.9,0.5-10.3,0.1c-1.6-0.2-3-0.4-4.9-0.8c-1.8-0.4-3.5-0.9-5.3-1.6c-2.8-1.1-6.6-3.2-9-5.1
					c-7-5.5-11.5-13.3-14.1-21.8c-1.5-4.9-2.4-9.8-2.1-14.9c0.3-4.5,1.4-9,3.3-13c4.4-9.3,12.8-16.4,23.2-17.7
					c1.3-0.2,2.5-1,2.5-2.5C130.8,1084.1,129.7,1082.7,128.3,1082.8L128.3,1082.8z"/>
			</g>
		</g>
		<g class="st2">
			<g>
				<path class="st5" d="M71.7,1246c2.9-10.5,5.3-24.5-2.4-33.7c-5.4-6.4-14.5-7.2-22.2-5.4c-8.2,1.9-16.1,6.8-21.2,13.5
					c-5,6.6-6.2,15.2-1.5,22.3c8.7,13.1,29.9,19.4,42.7,8.7c1.7-1.4,3.1-3.1,4.3-4.9c1.8-2.7-2.6-5.2-4.3-2.5
					c-4.1,6.3-11.3,8.5-18.5,7.7c-7-0.8-14.3-4.6-18.9-10.2c-0.1-0.1-0.6-0.8-0.2-0.2c-0.1-0.2-0.3-0.4-0.4-0.6
					c-0.3-0.4-0.6-0.8-0.8-1.2c-0.2-0.4-0.4-0.8-0.6-1.2c-0.1-0.2-0.2-0.4-0.3-0.7c-0.1-0.1-0.2-0.4,0.1,0.2c0-0.1-0.1-0.3-0.2-0.4
					c-0.3-0.8-0.5-1.7-0.7-2.5c0-0.2-0.1-0.4-0.1-0.5c0-0.2,0,0.6,0-0.1c0-0.4-0.1-0.8-0.1-1.3c0-0.4,0-0.8,0-1.2
					c0-0.2,0-0.3,0.1-0.5c0-0.5-0.1,0.5,0,0.2c0-0.1,0-0.3,0.1-0.4c0.2-0.8,0.3-1.6,0.6-2.4c0.1-0.4,0.3-0.8,0.4-1.1
					c0.1-0.2-0.2,0.5,0.1-0.1c0.1-0.2,0.2-0.4,0.3-0.6c0.4-0.8,0.8-1.5,1.3-2.3c0.2-0.4,0.5-0.7,0.7-1c0.1-0.2,0.2-0.3,0.3-0.5
					c-0.5,0.7,0.1-0.1,0.2-0.2c0.6-0.7,1.2-1.4,1.8-2c0.7-0.7,1.4-1.3,2.1-1.9c0.3-0.3,0.7-0.6,1.1-0.9c-0.6,0.5,0,0,0.2-0.1
					c0.2-0.2,0.5-0.3,0.7-0.5c1.6-1.1,3.2-2.1,5-3c0.4-0.2,0.8-0.4,1.3-0.6c0.2-0.1,0.4-0.2,0.6-0.3c0.4-0.2-0.1,0.1-0.2,0.1
					c0.1-0.1,0.3-0.1,0.4-0.2c0.9-0.4,1.8-0.7,2.7-1c0.9-0.3,1.8-0.5,2.8-0.7c0.4-0.1,0.9-0.2,1.3-0.3c0.2,0,0.4-0.1,0.6-0.1
					c0.1,0,0.2,0,0.4-0.1c0.6-0.1-0.3,0-0.1,0c1.8-0.2,3.5-0.3,5.3-0.1c0.2,0,0.4,0,0.6,0.1c0.6,0-0.6-0.1,0.1,0
					c0.4,0.1,0.9,0.2,1.3,0.3c0.8,0.2,1.6,0.4,2.4,0.7c0.3,0.1,0.4,0.2,0,0c0.2,0.1,0.4,0.2,0.6,0.3c0.4,0.2,0.7,0.4,1.1,0.6
					c0.3,0.2,0.7,0.4,1,0.6c0.2,0.1,0.7,0.6,0.1,0c0.2,0.1,0.3,0.3,0.5,0.4c0.7,0.6,1.2,1.2,1.8,1.8c0.4,0.5-0.2-0.4,0.1,0.1
					c0.1,0.2,0.2,0.3,0.4,0.5c0.3,0.4,0.5,0.8,0.8,1.2c0.2,0.4,0.4,0.8,0.6,1.2c0.3,0.6-0.1-0.2,0.1,0.1c0.1,0.3,0.2,0.5,0.3,0.8
					c0.4,1,0.6,2,0.8,3c0.1,0.5,0.2,1.1,0.3,1.6c-0.1-0.7,0,0.3,0,0.5c0,0.3,0.1,0.7,0.1,1c0.1,1.3,0.1,2.7,0.1,4
					c-0.1,3.4-0.5,5.8-1.2,9.1c-0.4,1.8-0.8,3.6-1.3,5.4C66,1247.7,70.8,1249.1,71.7,1246L71.7,1246z"/>
			</g>
		</g>
		<g class="st2">
			<g>
				<path class="st5" d="M423.8,410.1c22.3-46.5,63.5-82.9,112.1-100.1c49.3-17.5,103.9-13,150.5,10.4
					c26.3,13.2,49.6,32.1,67.5,55.5c1,1.3,2.6,1.7,3.9,0.5c53.5-48.9,118.1-84.7,187.3-105.8c68.6-20.9,141.6-27.6,212.9-18.6
					c73.8,9.3,147.4,35.7,207.1,80.8c62.1,47,107.6,118.7,108.6,198.2c0.9,70.8-39.5,142.1-106.7,169.1c-7.7,3.1-15.6,5.5-23.7,7.2
					c-1.7,0.4-2.6,3-1.1,4.2c22.7,18.2,35.7,46.7,35.1,75.7c-0.7,30.2-17.9,55.1-42.8,71.2c-13.7,8.8-29.3,15-45.5,16.9
					c-3.2,0.4-3.2,5.4,0,5c30-3.6,59-20.1,77.1-44.4c18.4-24.8,20.5-58.2,9.5-86.6c-6.2-16.1-16.4-30.5-29.9-41.3
					c-0.4,1.4-0.7,2.8-1.1,4.2c69-15.2,120.6-77.9,131.5-146.4c12.5-78.8-22.8-158-79-212.1c-55.5-53.4-129.7-86.2-204.6-101.1
					c-72.6-14.5-148.3-12.2-220.2,5.3c-71.8,17.5-140,50.4-197.4,97.1c-7,5.7-13.9,11.7-20.6,17.8c1.3,0.2,2.6,0.3,3.9,0.5
					c-32.5-42.6-82.1-70.7-135.2-77.6c-52.9-6.9-106.4,9.4-148,42.5c-23.4,18.6-42.6,42.3-55.6,69.3
					C418.1,410.5,422.4,413,423.8,410.1L423.8,410.1z"/>
			</g>
		</g>
		<g class="st2">
			<g>
				<path class="st5" d="M422.9,410.8c-1.7-9.1-5.4-17.8-10.4-25.6c-4.1-6.4-9.4-13.3-16.4-16.7c-7.9-3.8-17.1-3.8-25.6-2
					c-4.3,0.9-8.3,2.1-11.6,5.1c-2.9,2.5-4.9,5.9-6.4,9.4c-4.3,10-4.2,20.8-3.6,31.5c0.2,3.2,5.2,3.2,5,0c-0.5-8.9-0.8-18,2-26.6
					c1-3.1,2.4-6.2,4.5-8.7c1-1.2,2.2-2.3,3.5-3.2c1.6-1,3.3-1.5,5-2c7.5-2,15.8-2.6,23.2,0.3c6.3,2.4,11,8.2,14.7,13.6
					c5.4,7.9,9.3,16.9,11.1,26.3c0.3,1.3,1.8,2.1,3.1,1.7C422.5,413.5,423.1,412.1,422.9,410.8L422.9,410.8z"/>
			</g>
		</g>
	</g>
</g>
</svg>
