<?xml version="1.0" encoding="utf-8"?>
<!-- Generator: Adobe Illustrator 24.3.0, SVG Export Plug-In . SVG Version: 6.00 Build 0)  -->
<svg version="1.1" xmlns="http://www.w3.org/2000/svg" xmlns:xlink="http://www.w3.org/1999/xlink" x="0px" y="0px"
	 viewBox="0 0 1920 1080" style="enable-background:new 0 0 1920 1080;" xml:space="preserve">
<style type="text/css">
	.st0{fill:#A5A5A5;}
	.st1{fill:#88D7FF;}
</style>
<g id="МОСТ">
	<g id="КОНТУР">
	</g>
	<g>
		<g>
			<path class="st0" d="M1087.9,771.4c15.1,6.6,30.2,13.1,45.1,20c30.6,14.2,61.2,28.4,91.3,43.5c9.7,4.9,19.4,10,29.1,14.8
				c12.5,6.3,25,12.3,37.2,19.2c24,13.6,48.9,25.7,72.8,39.5c23,13.3,46.1,26.6,68.9,40.3c23.3,14,46.3,28.4,69.5,42.5
				c22.4,13.6,44.6,27.6,65.4,43.5c5.1,3.9,10.7,6.9,16.2,10.3c5.7,3.4,11.2,7,16.7,10.7c11.1,7.4,21.9,15.1,32.7,22.8
				c5.4,3.9,10.8,7.7,16.2,11.6c2.6,1.9,5.1-2.5,2.5-4.3c-21.7-15.3-42.9-31.3-65.6-45.1c-5.7-3.4-11.3-6.6-16.6-10.6
				c-5.2-3.9-10.5-7.8-15.8-11.5c-10.7-7.5-21.7-14.6-32.8-21.5c-22.9-14.3-46-28.2-69-42.3c-22.8-14-46-27.5-69.2-40.9
				c-11.9-6.9-23.7-13.9-35.7-20.5c-12.1-6.6-24.3-12.8-36.5-19.2c-12.3-6.5-24.4-13.5-36.8-19.8c-12.3-6.2-24.6-12.4-36.8-18.7
				c-30.7-15.8-62.1-30.3-93.5-44.9c-16.5-7.7-33.2-15-49.8-22.3c-1-0.5-2.1-0.9-3.1-1.4C1087.5,765.8,1084.9,770.1,1087.9,771.4
				L1087.9,771.4z"/>
		</g>
	</g>
	<g>
		<g>
			<path class="st0" d="M944.8,715.8c17.3,6.4,34.5,13.1,51.6,19.8c4.8,1.9,9.6,3.8,14.3,5.6c1.3,0.5,2.7-0.5,3.1-1.7
				c0.4-1.4-0.5-2.6-1.7-3.1c-17.2-6.7-34.3-13.5-51.5-20.1c-4.8-1.8-9.6-3.6-14.4-5.4c-1.3-0.5-2.7,0.5-3.1,1.7
				C942.7,714.2,943.5,715.4,944.8,715.8L944.8,715.8z"/>
		</g>
	</g>
	<g>
		<g>
			<path class="st0" d="M834.3,677.7c19.9,6.5,39.7,13.1,59.5,20c5.5,1.9,11,3.8,16.4,5.7c1.3,0.4,2.7-0.5,3.1-1.7
				c0.4-1.4-0.5-2.6-1.7-3.1c-19.7-6.9-39.5-13.7-59.4-20.3c-5.5-1.8-11-3.6-16.5-5.4C832.6,671.9,831.3,676.7,834.3,677.7
				L834.3,677.7z"/>
		</g>
	</g>
	<g>
		<g>
			<path class="st0" d="M622.2,616c9.7,2.5,19.3,5.1,28.9,7.7c3.1,0.8,4.4-4,1.3-4.8c-9.6-2.6-19.3-5.2-28.9-7.7
				C620.4,610.4,619.1,615.2,622.2,616L622.2,616z"/>
		</g>
	</g>
	<g>
		<g>
			<path class="st0" d="M450,573.8c19,4.2,37.9,9,56.8,13.6c5.5,1.4,11.1,2.7,16.6,4c3.1,0.7,4.5-4.1,1.3-4.8
				c-19-4.5-37.8-9.4-56.8-13.8c-5.5-1.3-11.1-2.6-16.7-3.8C448.2,568.3,446.9,573.1,450,573.8L450,573.8z"/>
		</g>
	</g>
	<g>
		<g>
			<path class="st0" d="M-29.9,490.1c30,4.2,60,8.5,89.9,13.1c29.6,4.5,59.2,9.2,88.7,14.2c29.6,4.9,59.2,10.1,88.7,15.4
				c29.4,5.3,58.8,10.9,88.1,16.6c29.7,5.8,59.3,11.8,88.8,18c3.7,0.8,7.3,1.5,11,2.3c3.1,0.7,4.5-4.2,1.3-4.8
				c-29.6-6.2-59.2-12.3-88.9-18.1c-29.3-5.8-58.7-11.4-88.1-16.7c-29.5-5.4-59.1-10.6-88.6-15.6c-29.5-5-59-9.7-88.6-14.3
				c-29.9-4.6-59.9-9-89.8-13.2c-3.7-0.5-7.4-1-11.1-1.6C-31.7,484.8-33,489.6-29.9,490.1L-29.9,490.1z"/>
		</g>
	</g>
</g>
<g id="ПЧЕЛ">
	<path class="st1" d="M1033.6,602.2c-0.6,7-1.2,14.1-4.1,20.5c-5.4,12.1-18.9,22.7-15.2,35.4c2.1,7.2,9.2,11.6,14,17.4
		c4.6,5.7,7,12.9,8.8,20c7.2,28.7,6.6,59.4-1.8,87.8c-9.7,32.7-29.4,62.4-34.1,96.2c-0.8,5.6-1.4,11.8-5.3,15.8
		c-4.6,4.6-11.9,4.8-18.4,4.6c-13.3-0.3-26.6-0.6-39.9-0.9c-4.1-0.1-8.4-0.1-11.7,2.3c-4.9,3.6-4.8,11.4-1.5,16.4
		c3.3,5.1,8.9,8.1,14.3,10.8c21.7,10.9,44.2,20.2,67.3,27.8c3.4,1.1,7.1,2.2,10.4,1.1c8.1-2.6,7.8-13.8,8.2-22.2
		c0.7-15,8.3-28.6,15.8-41.6c12-21,24-42.1,36-63.1c2.2,27.2,13.8,53.5,32.3,73.5c2,2.2,4.3,4.7,3.8,7.7c-0.3,2-1.9,3.6-3.5,4.9
		c-13.5,11.8-32,26.3-25.7,43.1c17.2,6.4,35.8-2.8,51.8-11.7c6.8-3.8,13.8-7.8,18.4-14c4.6-6.2,6.3-15.4,1.7-21.7
		c-2.6-3.7-6.9-5.8-10-9c-5.1-5.3-6.8-12.9-8.2-20c-5.4-26.3-10.7-52.5-16.1-78.8c-5.4-26.6-10.8-54.8-1.5-80.4
		c4.6-12.5,15.2-25.1,28.5-23.7c4.8,0.5,9.4,2.8,14.3,2.7c9.3-0.2,16.4-9.5,17.4-18.8s-2.5-18.4-5.9-27
		c43.8-60.9,74.2-131.5,88.2-205.3c3.1-16.3,5.4-33.3,1.2-49.4c-7.6-28.6-33.7-47.8-58-64.5c-3.3-9.5-5.8-22,2.1-28.2
		c4.5-3.5,10.8-3.5,16-5.9c5.2-2.4,8.9-10.2,4.2-13.5c9.7-1.3,15.1-11.7,18.9-20.8c7-16.8,14.1-35.3,8.9-52.8
		c-1.1-3.6-2.6-7.3-1.5-10.9c1.1-3.2,4.1-5.4,5.8-8.4c4.3-7.9-2.9-17-10.2-22.3c-11.7-8.4-25.3-14.2-39.4-16.8
		c-16.3-3-27.5-11.2-48.4-9.7c-7.6,5.7-7.9,16.6-19.3,16c-10.7-0.6-22.4,22.4-13.3,28c-7-1.4-12.8,6.4-13.1,13.5
		c-0.3,7.1,2.7,13.9,3.6,21c0.8,6.2,0.1,13,3.5,18.2c1.7,2.7,4.3,4.6,6.6,6.9c18,18.5,9.1,56.2,31.9,68.3c-2.2,4-4.4,8-6.6,12
		c-1.7,3.1-26.6,7.4-31.1,9.2c-8.4,3.3-17,7.1-24.7,11.7c-11.5,6.7-16.6,15.1-21,27.5c-15.8,44.7-26.1,92.2-34.2,138.9
		C1039.6,547.4,1036.1,574.7,1033.6,602.2z"/>
	<g id="Слой_8">
		<g>
			<g>
				<path d="M1124.6,331.3c-2.6,4.9-4.4,10.7-2.7,16.3c1.2,4.1,4.2,7.7,7.9,9.9c4.8,3,10.8,3.7,16.4,3.4c6.1-0.4,11.9-1.8,17.2-4.8
					c6.3-3.6,11.9-8.6,16.2-14.5c0.8-1.1,0.2-2.8-0.9-3.4c-1.3-0.7-2.6-0.2-3.4,0.9c-6.3,8.6-15.8,15.3-26.5,16.6
					c-4.7,0.6-9.8,0.5-14.3-1.3c-2-0.8-3.8-2.1-5.2-3.7c-0.2-0.2-0.4-0.5-0.6-0.7c-0.1-0.1-0.3-0.4,0,0c-0.1-0.1-0.2-0.3-0.3-0.4
					c-0.4-0.6-0.8-1.3-1.2-2c-0.3-0.7,0.2,0.5-0.1-0.3c-0.1-0.2-0.2-0.5-0.2-0.7c-0.2-0.5-0.3-1-0.4-1.5c-0.1-0.7-0.2-1.7-0.1-2.8
					c0.2-2.9,1.3-5.8,2.7-8.4C1130.4,330.9,1126.1,328.4,1124.6,331.3L1124.6,331.3z"/>
			</g>
		</g>
		<g>
			<g>
				<path d="M1131.8,317.2c-0.1,0.4-0.3,0.8-0.4,1.2c-0.2,0.5-0.4,1-0.6,1.5c-0.1,0.1-0.1,0.3-0.2,0.4c-0.1,0.3-0.1,0.2,0,0
					c-0.2,0.4-0.3,0.7-0.5,1c-1.5,3.5-3.4,6.8-5.5,10c-0.7,1.1-0.2,2.8,0.9,3.4c1.3,0.7,2.6,0.3,3.4-0.9c3.1-4.7,5.8-9.9,7.6-15.3
					c0.4-1.2-0.5-2.8-1.7-3.1C1133.5,315.1,1132.2,315.8,1131.8,317.2L1131.8,317.2z"/>
			</g>
		</g>
		<g>
			<g>
				<path d="M1174.6,315.2c-0.7,5-1,10-0.8,15c0.2,3.6,0.7,7.2,1.2,10.8c0.2,1.3,1.9,2.1,3.1,1.7c1.4-0.4,1.9-1.7,1.7-3.1
					c-0.3-1.7-0.4-2.8-0.6-4.3c-0.2-1.8-0.4-3.7-0.4-5.5c-0.2-4.9,0.1-9.8,0.8-14.7c0.2-1.3-1.3-2.5-2.5-2.5
					C1175.6,312.7,1174.7,313.8,1174.6,315.2L1174.6,315.2z"/>
			</g>
		</g>
		<g>
			<g>
				<path d="M1109.5,254.5c-0.7,16.9,2.1,34.3,10.4,49.2c2,3.7,4.4,7.1,7.1,10.3c1.3,1.6,2.7,3.1,4.2,4.5c1.6,1.5,3.1,3.1,5.1,4
					c8.5,3.8,17.8,4.5,26.8,2c9.8-2.8,18.3-8.9,25.6-15.9c2.3-2.2-1.2-5.8-3.5-3.5c-5.9,5.7-12.7,10.7-20.4,13.6
					c-7.8,2.9-16,3.2-23.9,0.3c-1-0.3-2-0.7-2.9-1.2c-0.8-0.4-1.5-1.2-2.2-1.8c-1.4-1.3-2.8-2.7-4.1-4.2c-2.5-2.8-4.7-5.9-6.6-9.1
					c-4-6.7-6.7-14.1-8.4-21.7c-2-8.7-2.6-17.7-2.2-26.6C1114.7,251.3,1109.7,251.3,1109.5,254.5L1109.5,254.5z"/>
			</g>
		</g>
		<g>
			<g>
				<path d="M1115.3,290.3c6.4,2.5,13.3,3.8,20.2,4.7c6.8,0.9,13.8,1.3,20.6,0.6c1.3-0.1,2.5-1.1,2.5-2.5c0-1.3-1.1-2.6-2.5-2.5
					c-6.7,0.6-13.5,0.2-20.2-0.6c-6.5-0.8-13.1-2.2-19.2-4.5c-1.3-0.5-2.7,0.5-3.1,1.7C1113.2,288.7,1114.1,289.8,1115.3,290.3
					L1115.3,290.3z"/>
			</g>
		</g>
		<g>
			<g>
				<path d="M1097.6,227.4c-3.6,5.9-7,12.7-3.9,19.5c2.5,5.6,10.6,8.2,15.1,3.3c-1.2-1.2-2.4-2.4-3.5-3.5c-2.6,3.1-1,7.3,2.4,8.9
					c3.8,1.9,7.5-0.3,9.8-3.4c1.2-1.6,2-3.3,2.8-5.1c1-2.1,1.9-4.1,2.9-6.2c2-4.5,4-9,5.9-13.6c0.5-1.1-0.4-2.5-1.4-2.9
					c-1.2-0.5-2.4,0-3.1,1c-2.8,4.1-0.7,10.2,3.9,11.9c5,1.9,10.3-2.3,10.7-7.3c0.1-1.2-1-2.3-2.2-2.5c-1.3-0.2-2.3,0.6-2.7,1.8
					c-2.2,6.2,0.2,13.6,5.3,17.7c5.4,4.4,13.1,4.3,18.7,0.2c3.1-2.3,5.5-5.5,6.3-9.3c0.7-3.1-4-4.5-4.8-1.3
					c-1.4,5.6,0.6,11.8,5.3,15.4c4.8,3.6,11.9,3.7,16.8,0.4c1.1-0.8,1.6-2.2,0.9-3.4c-0.6-1.1-2.3-1.7-3.4-0.9
					c-5.2,3.5-7.9,10.1-6.3,16.2c1.6,6,7.1,10.3,13.2,10.9c-0.4-1.6-0.8-3.1-1.3-4.7c-5.3,2.4-8.7,8.4-7.9,14.1
					c0.7,5.7,5.3,10.7,11,11.8c-0.5-1.2-1-2.4-1.5-3.7c-1.7,3.5-3.4,7.2-2.9,11.2c0.4,3.4,2.4,6.5,5.7,7.8c3.3,1.2,6.7-0.1,9.1-2.5
					c2.5-2.4,3.9-5.7,4.4-9.1c0.6-3.8,0.5-8,2.5-11.4c-1.4,0-2.9,0-4.3,0c1.8,3.3,6.1,3.9,9.3,2.5c3.4-1.6,5-5.4,6.3-8.7
					c3.1-8.2,5.1-16.6,6.2-25.3c-0.2,0.6-0.5,1.2-0.7,1.8c9.8-8.9,13.7-23.3,10.8-36.1c-0.8-3.6-2.2-7.1-4.1-10.2
					c-0.1,1-0.3,2-0.4,3c5-5,7.3-12.2,6.7-19.1c-0.6-7.3-4.1-13.8-10.2-18c-3.4-2.4-7.3-3.9-10.9-5.9c-1.8-1-3.5-2-5-3.3
					c-1.6-1.4-3-3-4.4-4.7c-2.6-3.1-5.2-6.3-8.7-8.5c-3-1.9-6.5-2.9-10-3.2c-7.7-0.8-16.1,2.2-21,8.4c1.3,0.2,2.6,0.3,3.9,0.5
					c-4.9-6.6-12.2-11.3-20.4-12.8c-7.9-1.4-18.3-0.5-23.5,6.4c-2.9,3.9-3.1,9.5,0.2,13.3c1-1.3,2-2.6,3-3.9
					c-7.5-3.2-16.8-1.7-22.4,4.4c-5.7,6.1-6.7,15.7-2.7,23c0.5-1.2,1-2.4,1.5-3.7c-6.5,1.3-11,6.7-13.1,12.7
					c-2.2,6.2-1.5,13.3,1.1,19.2c1.5,3.4,3.6,6.4,5.5,9.5c1.7,2.7,6,0.2,4.3-2.5c-1.9-3-4-6.1-5.4-9.3c-1.4-3.3-2-7-1.7-10.5
					c0.4-6.2,4.2-12.9,10.7-14.2c1.6-0.3,2.2-2.3,1.5-3.7c-2.9-5.3-2.2-12.5,2-16.9c4-4.3,10.9-6,16.4-3.6c1.1,0.5,2.4,0.4,3.2-0.6
					c0.8-1,0.6-2.3-0.2-3.3c-1.8-2-1-5.3,0.6-7.2c2.2-2.5,5.5-3.6,8.7-4.1c6.2-1.1,12.9,0.3,18.4,3.5c3.1,1.8,5.9,4.2,8.1,7.1
					c0.8,1.1,2.8,1.9,3.9,0.5c3.7-4.7,9.4-7.1,15.3-7c2.8,0,5.7,0.6,8.3,1.9c3.1,1.6,5.4,4.2,7.7,6.8c2.6,3.1,5.1,6.1,8.5,8.4
					c3.1,2.2,6.6,3.6,10,5.4c3,1.6,6,3.4,8.1,6.2c1.7,2.2,2.8,4.9,3.4,7.6c1.4,6.3-0.2,13.3-4.9,18c-0.8,0.8-1,2.1-0.4,3
					c5.2,8.5,5.6,19.1,2.2,28.4c-0.8,2.2-2,4.4-3.3,6.3c-1.4,2.1-3.1,3.7-4.8,5.5c-1.1,1.2-1,3.8-1.3,5.3c-0.3,1.7-0.6,3.4-1,5.1
					c-0.7,3.4-1.6,6.7-2.7,10c-1,3.1-1.9,6.7-3.8,9.3c-0.7,0.9-1.5,1.7-2.6,1.8c-0.8,0.1-1.5-0.1-1.8-0.8c-0.9-1.7-3.4-1.6-4.3,0
					c-2,3.4-2.3,7.3-2.8,11.2c-0.4,3.2-1.1,6.3-3.6,8.5c-1.9,1.7-4.5,1.6-5.6-1c-1.4-3.2,0.4-6.8,1.8-9.7c0.6-1.3,0.2-3.3-1.5-3.7
					c-3.6-0.7-6.8-3.6-7.4-7.4c-0.6-4,1.9-7.8,5.5-9.4c1-0.4,1.4-1.8,1.1-2.8c-0.3-1.1-1.3-1.7-2.4-1.8c-3.9-0.4-7.4-3.5-8.4-7.3
					c-1-3.9,0.7-8.4,4-10.6c-0.8-1.4-1.7-2.9-2.5-4.3c-3.3,2.3-7.9,2.5-11.3,0c-3.1-2.3-4.4-6.4-3.5-10.1c-1.6-0.4-3.2-0.9-4.8-1.3
					c-1.3,5.9-7.9,10.1-13.7,8.4c-5.9-1.8-8.8-8.8-6.9-14.3c-1.6-0.2-3.3-0.4-4.9-0.7c-0.1,1.8-2.5,3.2-4,2.6
					c-0.9-0.4-1.4-1.2-1.7-2.1c-0.3-1-0.2-1.7,0.4-2.6c-1.5-0.6-3-1.3-4.6-1.9c-2.8,6.7-5.7,13.4-8.9,19.9c-0.9,1.9-2.1,4.6-4.2,5.4
					c-0.5,0.2-1.1,0.1-1.6-0.4c0,0-0.5-0.6-0.4-0.4c-0.1-0.1-0.4-0.5-0.2-0.4c-0.2-0.1,0-0.4-0.1,0.1c0-0.3,0.1-0.2,0,0
					c0.9-1,1-2.5,0-3.5c-0.9-0.9-2.6-1-3.5,0c-1.1,1.2-2.6,1.3-4.1,0.8c-1.8-0.6-2.8-2.1-3.3-3.9c-1.3-4.9,1.7-9.7,4.1-13.7
					C1103.6,227.2,1099.3,224.7,1097.6,227.4L1097.6,227.4z"/>
			</g>
		</g>
		<g>
			<g>
				<path d="M1129.9,249.4c-1.9,3.1-3.5,6.3-4.9,9.7c-1.4,3.3-3.2,7.1-2.6,10.7c0.5,3.3,3.3,5.6,6.4,6.5c3.6,1,7.2-0.2,10.6-1.4
					c1.3-0.5,2.1-1.7,1.7-3.1c-0.3-1.2-1.8-2.2-3.1-1.7c-2.4,0.9-5.2,2.1-7.8,1.5c-1.9-0.5-3.2-1.7-3-3.8c0.2-1.4,0.8-2.8,1.3-4.1
					c0.5-1.3,1-2.5,1.5-3.7c1.2-2.7,2.6-5.4,4.1-7.9C1135.9,249.1,1131.6,246.6,1129.9,249.4L1129.9,249.4z"/>
			</g>
		</g>
		<g>
			<g>
				<path d="M1061.2,364.9c16.6-9.2,33.8-17.2,51.4-24.3c4.9-2,9.9-3.9,14.8-5.7c1.3-0.5,2.1-1.7,1.7-3.1c-0.3-1.2-1.8-2.2-3.1-1.7
					c-18.1,6.6-35.8,14.2-53,22.8c-4.9,2.5-9.7,5-14.5,7.6C1055.9,362.1,1058.4,366.5,1061.2,364.9L1061.2,364.9z"/>
			</g>
		</g>
		<g>
			<g>
				<path d="M1176.1,342.4c20.2,11.7,37.5,28.3,50,48.1c3.5,5.6,6.7,11.4,9.4,17.4c0.6,1.2,2.3,1.5,3.4,0.9c1.3-0.7,1.5-2.2,0.9-3.4
					c-9.9-21.8-25.3-41.1-44.2-55.8c-5.4-4.2-11-8-16.9-11.4C1175.9,336.5,1173.4,340.8,1176.1,342.4L1176.1,342.4z"/>
			</g>
		</g>
		<g>
			<g>
				<path d="M1235.2,406.6c1.9,25,0.3,50.2-6.8,74.3c-2.1,6.9-4.5,13.7-7.3,20.4c-0.5,1.2,0.6,2.8,1.7,3.1c1.4,0.4,2.5-0.5,3.1-1.7
					c9.9-23.5,14.9-48.6,15.1-74c0.1-7.4-0.2-14.7-0.8-22c-0.1-1.3-1.1-2.5-2.5-2.5C1236.4,404.1,1235.1,405.3,1235.2,406.6
					L1235.2,406.6z"/>
			</g>
		</g>
		<g>
			<g>
				<path d="M1162,411.9c-2.9,16.6-5.7,33.3-8.5,50c-2.7,16.4-5.4,32.9-8.2,49.3c-1.6,9.5-3.3,19-4.9,28.5c-0.2,1.3,0.4,2.7,1.7,3.1
					c1.2,0.3,2.8-0.4,3.1-1.7c3-16.6,5.8-33.3,8.5-49.9c2.7-16.5,5.4-32.9,8.2-49.4c1.6-9.5,3.2-19.1,4.9-28.6
					c0.2-1.3-0.4-2.7-1.7-3.1C1163.9,409.8,1162.3,410.5,1162,411.9L1162,411.9z"/>
			</g>
		</g>
		<g>
			<g>
				<path d="M1057.5,362.1c-7.6,19.8-14.3,40.1-20,60.6c-5.6,20.4-10.2,41-13.8,61.8c-2,11.9-3.7,23.8-5.1,35.8
					c-0.2,1.3,1.3,2.5,2.5,2.5c1.5,0,2.3-1.2,2.5-2.5c2.4-20.9,5.9-41.7,10.4-62.3c4.5-20.6,10-40.9,16.4-60.9
					c3.7-11.3,7.6-22.5,11.9-33.6c0.5-1.3-0.5-2.7-1.7-3.1C1059.2,359.9,1058,360.8,1057.5,362.1L1057.5,362.1z"/>
			</g>
		</g>
		<g>
			<g>
				<path d="M1068.9,384.1c-7.7,26.4-15,52.9-21.9,79.6c-7,26.6-13.5,53.3-19.8,80.1c-3.5,15.2-6.9,30.3-10.2,45.5
					c-0.7,3.1,4.1,4.5,4.8,1.3c5.8-26.9,12-53.7,18.5-80.4c6.5-26.7,13.4-53.3,20.7-79.9c4.1-15,8.3-30,12.7-44.9
					C1074.6,382.3,1069.8,381,1068.9,384.1L1068.9,384.1z"/>
			</g>
		</g>
		<g>
			<g>
				<path d="M1018,592.9c19.3,8.8,39.5,15.6,60.1,20.4c5.8,1.4,11.7,2.6,17.6,3.7c1.3,0.2,2.7-0.4,3.1-1.7c0.3-1.2-0.4-2.8-1.7-3.1
					c-20.5-3.8-40.8-9.2-60.3-16.7c-5.5-2.1-10.9-4.4-16.2-6.8c-1.2-0.6-2.7-0.4-3.4,0.9C1016.5,590.6,1016.8,592.3,1018,592.9
					L1018,592.9z"/>
			</g>
		</g>
		<g>
			<g>
				<path d="M1024.5,704.6c-6.6,23.9-13.6,47.8-20.9,71.5c-7.2,23.4-14.8,46.7-22.8,69.8c-4.5,13.1-9.1,26.2-13.9,39.3
					c-0.5,1.3,0.5,2.7,1.7,3.1c1.4,0.4,2.6-0.5,3.1-1.7c8.4-23.2,16.5-46.5,24.2-69.9c7.7-23.3,15-46.7,21.9-70.2
					c4-13.4,7.8-26.9,11.5-40.4C1030.2,702.8,1025.4,701.5,1024.5,704.6L1024.5,704.6z"/>
			</g>
		</g>
		<g>
			<g>
				<path d="M1042.6,636.1c-4.2,17.4-8.7,34.8-13.4,52.2c-0.8,3.1,4,4.4,4.8,1.3c4.7-17.3,9.1-34.7,13.4-52.2
					C1048.2,634.3,1043.4,633,1042.6,636.1L1042.6,636.1z"/>
			</g>
		</g>
		<g>
			<g>
				<path d="M1106.5,704c-5.4,11.9-10.9,23.8-16.5,35.6c-6.3,13.4-12.7,26.7-19.2,40c-6.7,13.9-13.5,27.7-20.4,41.6
					c-6.6,13.5-13.3,26.9-20,40.3c-6,12.1-12.1,24.2-18.1,36.3c-0.7,1.3-1.3,2.7-2,4c-1.4,2.9,2.9,5.4,4.3,2.5
					c5.9-11.9,11.9-23.7,17.8-35.6c6.6-13.3,13.3-26.6,19.8-40c6.8-13.8,13.6-27.7,20.4-41.6c6.5-13.4,13-26.9,19.4-40.3
					c5.7-12.1,11.4-24.1,16.9-36.3c0.6-1.3,1.2-2.7,1.8-4c0.6-1.2,0.4-2.7-0.9-3.4C1108.9,702.4,1107.1,702.7,1106.5,704L1106.5,704
					z"/>
			</g>
		</g>
		<g>
			<g>
				<path d="M967.6,887.5c12.3,10.6,27.7,16.9,43.9,18c1.3,0.1,2.5-1.2,2.5-2.5c0-1.4-1.1-2.4-2.5-2.5c-14.8-1-29.1-6.8-40.3-16.5
					c-1-0.9-2.5-1-3.5,0C966.7,884.9,966.5,886.6,967.6,887.5L967.6,887.5z"/>
			</g>
		</g>
		<g>
			<g>
				<path d="M970.3,889.3c-2.1,3.3-4.2,6.6-6.2,9.9c-0.7,1.1-0.3,2.8,0.9,3.4c1.2,0.6,2.7,0.3,3.4-0.9c2.1-3.3,4.2-6.6,6.2-9.9
					c0.7-1.1,0.3-2.8-0.9-3.4C972.5,887.7,971,888.1,970.3,889.3L970.3,889.3z"/>
			</g>
		</g>
		<g>
			<g>
				<path d="M1003.4,904.1c-1,3.6-2,7.2-3.1,10.7c-0.4,1.3,0.4,2.8,1.7,3.1c1.3,0.3,2.7-0.4,3.1-1.7c1-3.6,2-7.2,3.1-10.7
					c0.4-1.3-0.4-2.8-1.7-3.1C1005.1,902.1,1003.8,902.8,1003.4,904.1L1003.4,904.1z"/>
			</g>
		</g>
		<g>
			<g>
				<path d="M1007,706.4c0.7,14.7,2,29.3,4,43.9c0.2,1.3,1.9,2.1,3.1,1.7c1.4-0.4,1.9-1.7,1.7-3.1c-2-14.1-3.2-28.3-3.9-42.6
					C1011.9,703.2,1006.9,703.1,1007,706.4L1007,706.4z"/>
			</g>
		</g>
		<g>
			<g>
				<path d="M1015.7,589.5c-5.4,25.9-8.5,52.3-9,78.7c-0.1,7.5-0.1,15.1,0.1,22.6c0.1,3.2,5.1,3.2,5,0c-0.8-26,0.6-52.1,4.7-77.9
					c1.2-7.4,2.5-14.8,4.1-22.2c0.3-1.3-0.4-2.7-1.7-3.1C1017.5,587.4,1015.9,588.2,1015.7,589.5L1015.7,589.5z"/>
			</g>
		</g>
		<g>
			<g>
				<path d="M1046.9,829.2c4.1,21.4,11.9,42,20.9,61.7c2.5,5.5,5.1,10.9,7.9,16.3c1.5,2.9,5.8,0.3,4.3-2.5
					c-9.7-19-18.2-38.8-24.1-59.3c-1.6-5.8-3.1-11.6-4.2-17.4c-0.3-1.3-1.8-2.1-3.1-1.7C1047.3,826.5,1046.7,827.9,1046.9,829.2
					L1046.9,829.2z"/>
			</g>
		</g>
		<g>
			<g>
				<path d="M1085.5,749.6c0.3,18.7,2.9,37.4,6.3,55.7c3.6,19.5,8.2,38.7,13.3,57.8c2.7,9.9,5.5,19.7,8.4,29.6
					c0.9,3.1,5.7,1.8,4.8-1.3c-5.3-17.9-10.3-36-14.6-54.1c-4.5-19-8.4-38.1-10.9-57.4c-1.3-10-2.1-20.1-2.3-30.2
					C1090.4,746.4,1085.4,746.4,1085.5,749.6L1085.5,749.6z"/>
			</g>
		</g>
		<g>
			<g>
				<path d="M963.5,903.3c9.8,10.6,23.8,17,38.2,17.4c3.2,0.1,3.2-4.9,0-5c-13.2-0.4-25.8-6.3-34.7-15.9
					C964.8,897.4,961.3,901,963.5,903.3L963.5,903.3z"/>
			</g>
		</g>
		<g>
			<g>
				<path d="M965.2,898.9c-18.6-1.6-37.3-1.9-55.9-0.8c-3.2,0.2-3.2,5.2,0,5c18.6-1.1,37.3-0.8,55.9,0.8c1.3,0.1,2.5-1.2,2.5-2.5
					C967.7,900,966.5,899.1,965.2,898.9L965.2,898.9z"/>
			</g>
		</g>
		<g>
			<g>
				<path d="M1001.5,917.3c-3.1,14.5-7.4,28.8-12.9,42.6c-0.5,1.3,0.5,2.7,1.7,3.1c1.4,0.4,2.6-0.5,3.1-1.7
					c5.4-13.8,9.7-28.1,12.9-42.6C1007,915.5,1002.1,914.2,1001.5,917.3L1001.5,917.3z"/>
			</g>
		</g>
		<g>
			<g>
				<path d="M991.7,958.2c-21.6-7.7-43.6-14.2-64.7-22.9c-5.9-2.4-11.7-5.1-17.5-7.9c-2.9-1.4-5.4,2.9-2.5,4.3
					c20.7,10.4,42.8,17.6,64.7,25c6.3,2.1,12.5,4.2,18.7,6.4c1.3,0.5,2.7-0.5,3.1-1.7C993.8,959.9,993,958.7,991.7,958.2
					L991.7,958.2z"/>
			</g>
		</g>
		<g>
			<g>
				<path d="M910.1,898.1c-7,0.3-14.3,3.7-17,10.5c-2.7,6.8,1.2,14.3,6.6,18.5c3.4,2.7,7.2,4.4,11.1,6.2c1.2,0.5,2.7,0.4,3.4-0.9
					c0.6-1.1,0.3-2.9-0.9-3.4c-6.4-2.8-14.7-6.4-16-14.2c-1.3-7.3,6.6-11.4,12.8-11.7C913.3,903,913.3,898,910.1,898.1L910.1,898.1z
					"/>
			</g>
		</g>
		<g>
			<g>
				<path d="M1077.9,908.4c14.1-0.8,28-5.7,39.3-14.2c1.1-0.8,1.6-2.2,0.9-3.4c-0.6-1.1-2.3-1.7-3.4-0.9
					c-10.6,8-23.4,12.8-36.8,13.6C1074.7,903.6,1074.7,908.6,1077.9,908.4L1077.9,908.4z"/>
			</g>
		</g>
		<g>
			<g>
				<path d="M1079.7,907.5c0.8,2.2,1.5,4.4,2.3,6.6c0.2,0.6,0.6,1.2,1.1,1.5c0.5,0.3,1.3,0.4,1.9,0.3c0.6-0.2,1.2-0.6,1.5-1.1
					c0.3-0.6,0.5-1.3,0.3-1.9c-0.8-2.2-1.5-4.4-2.3-6.6c-0.2-0.6-0.6-1.2-1.1-1.5c-0.5-0.3-1.3-0.4-1.9-0.3
					c-0.6,0.2-1.2,0.6-1.5,1.1C1079.7,906.2,1079.5,906.9,1079.7,907.5L1079.7,907.5z"/>
			</g>
		</g>
		<g>
			<g>
				<path d="M1109.4,896.3c1.1,2.4,2.2,4.7,3.3,7.1c0.2,0.5,0.9,1,1.5,1.1c0.6,0.2,1.4,0.1,1.9-0.3c0.5-0.3,1-0.9,1.1-1.5
					c0.2-0.7,0-1.3-0.3-1.9c-1.1-2.4-2.2-4.7-3.3-7.1c-0.2-0.5-0.9-1-1.5-1.1c-0.6-0.2-1.4-0.1-1.9,0.3c-0.5,0.3-1,0.9-1.1,1.5
					C1109,895.1,1109.1,895.7,1109.4,896.3L1109.4,896.3z"/>
			</g>
		</g>
		<g>
			<g>
				<path d="M1083.8,917.5c12.1,3.7,25.7-1.1,33.2-11.1c0.8-1.1,0.2-2.8-0.9-3.4c-1.3-0.7-2.6-0.2-3.4,0.9
					c-6.2,8.3-17.8,11.8-27.6,8.8C1082,911.8,1080.7,916.6,1083.8,917.5L1083.8,917.5z"/>
			</g>
		</g>
		<g>
			<g>
				<path d="M1081.4,913.9c-5.9,7.2-12.5,13.7-18.2,21.1c-3,3.9-5.8,8.1-8.1,12.4c-1.6,3-2.7,5.7-2.7,9.1c0,4,1.9,8,6.1,8.9
					c3.1,0.7,4.5-4.2,1.3-4.8c-0.1,0-1-0.3-0.7-0.1c-0.1,0-0.8-0.5-0.5-0.3c-0.5-0.4-0.6-0.6-0.8-1c-0.1-0.2-0.3-1-0.4-1.5
					c0.1,0.4,0-0.4,0-0.5c0-0.4,0-0.7,0-1.1c0-0.3,0-0.6,0.1-0.9c0.1-0.6-0.1,0.2,0.1-0.4c0.1-0.5,0.2-1.1,0.4-1.6
					c0.1-0.2,0.1-0.4,0.2-0.6c0,0.1-0.3,0.4-0.1,0.3c0.1-0.1,0.4-0.7,0.4-0.8c0.5-1.1,1.1-2.2,1.7-3.2c4.1-7.5,9.5-14,15.3-20.4
					c3.3-3.6,6.5-7.2,9.6-11c0.9-1,1-2.5,0-3.5C1084.1,913.1,1082.3,912.9,1081.4,913.9L1081.4,913.9z"/>
			</g>
		</g>
		<g>
			<g>
				<path d="M1115.4,904.7c4.6,6.5,8.3,13.5,10.9,21c0.4,1.3,1.7,2.1,3.1,1.7c1.2-0.3,2.2-1.8,1.7-3.1c-2.7-7.9-6.5-15.4-11.4-22.2
					c-0.8-1.1-2.2-1.6-3.4-0.9C1115.2,901.9,1114.6,903.6,1115.4,904.7L1115.4,904.7z"/>
			</g>
		</g>
		<g>
			<g>
				<path d="M1059.2,965.6c22-0.4,43.4-10.3,59.3-25.2c4.5-4.2,8.6-8.9,12.2-14c0.8-1.1,0.2-2.8-0.9-3.4c-1.3-0.7-2.6-0.2-3.4,0.9
					c-12,16.8-30.3,29.3-50.3,34.4c-5.6,1.4-11.2,2.2-17,2.3C1056,960.6,1056,965.6,1059.2,965.6L1059.2,965.6z"/>
			</g>
		</g>
		<g>
			<g>
				<path d="M1140.4,539.7c-8.9,27-19.2,53.4-28.7,80.2c-2.7,7.5-5.2,15.1-7.7,22.7c-1,3.1,3.8,4.4,4.8,1.3
					c8.8-27,19.1-53.5,28.6-80.3c2.7-7.5,5.3-15,7.7-22.6C1146.2,538,1141.4,536.7,1140.4,539.7L1140.4,539.7z"/>
			</g>
		</g>
		<g>
			<g>
				<path d="M1221,501.4c-7.7,19.2-15,38.5-22.7,57.8c-0.5,1.3,0.5,2.7,1.7,3.1c1.4,0.4,2.6-0.5,3.1-1.7c7.7-19.2,15-38.5,22.7-57.8
					c0.5-1.3-0.5-2.7-1.7-3.1C1222.7,499.2,1221.5,500.1,1221,501.4L1221,501.4z"/>
			</g>
		</g>
		<g>
			<g>
				<path d="M1198.3,559.1c-5.4,14-11.4,27.8-18.1,41.2c-6.7,13.5-14.1,26.6-22.1,39.4c-4.5,7.1-9.3,14.1-14.2,21
					c-0.8,1.1-0.2,2.8,0.9,3.4c1.3,0.7,2.6,0.2,3.4-0.9c8.8-12.2,17-25,24.5-38.1c7.5-13.2,14.3-26.8,20.5-40.6
					c3.5-7.9,6.8-15.9,10-24c0.5-1.3-0.5-2.7-1.7-3.1C1200,557,1198.8,557.8,1198.3,559.1L1198.3,559.1z"/>
			</g>
		</g>
		<g>
			<g>
				<path d="M1104.1,646.3c5.2,5.8,12.2,9.8,19.3,12.8c7.1,3,14.9,5,22.6,5.3c3.2,0.1,3.2-4.9,0-5c-7.2-0.3-14.3-2.2-20.9-5
					c-6.5-2.7-12.8-6.4-17.5-11.7C1105.5,640.4,1102,643.9,1104.1,646.3L1104.1,646.3z"/>
			</g>
		</g>
		<g>
			<g>
				<path d="M1105.9,647.3c-1.3,2.6-2.5,5.3-3.8,7.9c-0.3,0.6-0.4,1.3-0.3,1.9c0.2,0.6,0.6,1.2,1.1,1.5c1.1,0.6,2.8,0.4,3.4-0.9
					c1.3-2.6,2.5-5.3,3.8-7.9c0.3-0.6,0.4-1.3,0.3-1.9c-0.2-0.6-0.6-1.2-1.1-1.5C1108.2,645.8,1106.5,646.1,1105.9,647.3
					L1105.9,647.3z"/>
			</g>
		</g>
		<g>
			<g>
				<path d="M1103.5,654.1c-5.2,0.8-10.6,3.4-14.6,6.8c-2.1,1.8-4,4.3-4.6,7.1c-0.5,2.4-0.6,5-0.7,7.4c-0.1,1.9-0.1,3.7-0.1,5.6
					c0,3.2,5,3.2,5,0c0-1.3,0-2.7,0-4c0-1.2,0.1-2.4,0.1-3.7c0-0.6,0.1-1.2,0.1-1.7c0-0.3,0-0.5,0.1-0.8c0-0.2,0.1-0.9,0.1-0.7
					c0,0.3,0-0.3,0.1-0.4c0-0.2,0.1-0.4,0.1-0.6c0.1-0.4,0.3-0.9,0.4-1c0.6-1.2,1.2-2,2.1-2.9c1.8-1.8,4.1-3.1,6.4-4.2
					c2-0.9,4.5-1.8,6.8-2.1c1.3-0.2,2.1-1.9,1.7-3.1C1106.2,654.4,1104.9,653.9,1103.5,654.1L1103.5,654.1z"/>
			</g>
		</g>
		<g>
			<g>
				<path d="M1083.5,681c-0.3,5.2-0.5,10.5-0.6,15.7c0,4.5-0.5,9.6,1.1,13.9c1.5,3.9,4.6,6.9,8.8,7.7c4.1,0.8,8.2-0.1,11.4-2.7
					c3.7-3,5.6-7.6,5.9-12.3c0.2-3.2-4.8-3.2-5,0c-0.3,5.7-5,11.5-11.2,10.1c-2.9-0.7-4.8-2.6-5.5-5.5c-1-3.7-0.6-7.9-0.5-11.7
					c0.1-5.1,0.3-10.1,0.6-15.2c0.1-1.3-1.2-2.5-2.5-2.5C1084.6,678.5,1083.6,679.7,1083.5,681L1083.5,681z"/>
			</g>
		</g>
		<g>
			<g>
				<path d="M1107,705.7c6.8,1,13.6,2.1,20.4,2.6c6,0.4,13.4,1.2,18.5-2.6c4.6-3.5,6.6-9.4,7.7-14.9c0.7-3.2,1-6.4,0.8-9.6
					c-0.2-2.9-1-5.6-1.9-8.3c-1.3-3.9-2.6-7.7-4-11.6c-0.5-1.3-1.7-2.1-3.1-1.7c-1.2,0.3-2.2,1.8-1.7,3.1c1,2.8,2,5.7,3,8.5
					c0.8,2.2,1.6,4.5,2.2,6.7c0.7,2.8,0.8,5.6,0.5,8.5c-0.3,2.7-1,5.5-1.8,8.1c-0.7,2.1-1.6,4.3-3.1,5.9c-3.7,4.1-10.3,3.3-15.3,3
					c-7-0.4-13.9-1.5-20.8-2.5c-1.3-0.2-2.7,0.3-3.1,1.7C1104.9,703.8,1105.7,705.5,1107,705.7L1107,705.7z"/>
			</g>
		</g>
		<g>
			<g>
				<path d="M1018.8,519.5c-3.6,16-7.2,32-10.3,48.1c-2.6,13.7-4.8,27.5-6.1,41.4c-0.7,8-1.1,16.1-1.2,24.1c-0.1,3.2,4.9,3.2,5,0
					c0.2-13.8,1.3-27.6,3.2-41.2c2-14.3,4.9-28.4,7.9-42.5c2.1-9.5,4.2-19,6.3-28.5C1024.3,517.7,1019.5,516.4,1018.8,519.5
					L1018.8,519.5z"/>
			</g>
		</g>
		<g>
			<g>
				<path d="M1001,634.1c1.1,1.4,2.7,2.4,4.1,3.5c1.4,1.1,3,2.1,4.1,3.5c0.4,0.5,1.2,0.7,1.8,0.7c0.6,0,1.3-0.3,1.8-0.7
					c0.4-0.5,0.8-1.1,0.7-1.8c0-0.7-0.3-1.2-0.7-1.8c-1.1-1.4-2.7-2.4-4.1-3.5c-1.4-1.1-3-2.1-4.1-3.5c-0.4-0.5-1.2-0.7-1.8-0.7
					c-0.6,0-1.3,0.3-1.8,0.7c-0.4,0.5-0.8,1.1-0.7,1.8C1000.3,633.1,1000.6,633.6,1001,634.1L1001,634.1z"/>
			</g>
		</g>
		<g>
			<g>
				<path d="M1001.5,630.2c-3.3,2-6.8,4.2-9.4,7.1c-2.8,3.2-3.8,7-3.1,11.2c0.6,3.7,3,7.5,6.6,8.8c2.9,1.1,6.4,0.6,9.2-0.4
					c3.2-1.1,7-3.2,7.7-6.8c0.3-1.3-0.4-2.7-1.7-3.1c-1.2-0.3-2.8,0.4-3.1,1.7c0,0.1-0.2,0.7-0.1,0.4c0.1-0.3-0.2,0.3-0.2,0.4
					c-0.2,0.4,0,0.1,0,0c-0.1,0.1-0.2,0.2-0.3,0.3c-0.2,0.2-0.4,0.4-0.6,0.6c-0.1,0.1-0.4,0.3,0,0c-0.1,0.1-0.2,0.1-0.3,0.2
					c-0.2,0.2-0.5,0.3-0.7,0.4c-0.2,0.1-0.5,0.3-0.8,0.4c-0.2,0.1-0.3,0.1-0.5,0.2c-0.4,0.2,0.5-0.2-0.2,0.1
					c-0.6,0.2-1.1,0.4-1.7,0.6c-0.3,0.1-0.6,0.1-0.9,0.2c-0.2,0-0.3,0.1-0.5,0.1c-0.1,0-0.6,0.1-0.2,0c-0.6,0.1-1.1,0.1-1.7,0.1
					c-0.3,0-0.5,0-0.8,0c-0.3,0,0.1,0,0.1,0c-0.2,0-0.4-0.1-0.5-0.1c-0.2-0.1-0.5-0.1-0.7-0.2c0.5,0.2-0.1-0.1-0.3-0.2
					c-0.5-0.3-0.9-0.7-1.4-1.2c-0.7-0.9-1.2-2.1-1.5-3.4c-0.5-2.5,0.1-5,1.7-6.9c2.3-2.7,5.4-4.5,8.3-6.3
					C1006.8,632.8,1004.3,628.5,1001.5,630.2L1001.5,630.2z"/>
			</g>
		</g>
		<g>
			<g>
				<path d="M987.9,664.7c-0.5,5.4,1.5,11,5.8,14.4c4.5,3.6,10.3,4.7,15.9,3.7c1.3-0.2,2.1-1.9,1.7-3.1c-0.4-1.4-1.7-2-3.1-1.7
					c-0.1,0-1,0.1-0.6,0.1c-0.3,0-0.6,0.1-0.9,0.1c-0.6,0-1.2,0.1-1.7,0c-0.3,0-0.6,0-0.9,0c-0.1,0-1.1-0.1-0.5,0
					c-0.5-0.1-1.1-0.2-1.6-0.3c-1.1-0.3-2-0.6-2.6-0.9c-0.5-0.2-0.9-0.5-1.4-0.8c-0.2-0.1-0.4-0.2-0.6-0.4c-0.1-0.1-0.2-0.2-0.4-0.3
					c0.2,0.2,0.2,0.2,0,0c-0.4-0.3-0.8-0.7-1.1-1.1c-0.2-0.2-0.4-0.4-0.5-0.6c-0.1-0.1-0.5-0.7-0.2-0.3c-0.3-0.4-0.6-0.9-0.9-1.3
					c-0.1-0.3-0.3-0.5-0.4-0.8c0,0-0.3-0.7-0.1-0.2c-1-2.4-1.1-4-0.9-6.5c0.1-1.3-1.2-2.5-2.5-2.5
					C988.9,662.2,988,663.3,987.9,664.7L987.9,664.7z"/>
			</g>
		</g>
	</g>
</g>
<g id="ТЕЛЕГА">
	<path class="st1" d="M433.5,557.2c3,1.6,6.8,1.4,9.9,2.9c3.7,1.7,5.9,5.4,7.9,8.9c13.4,23,26.8,46.1,40.1,69.1
		c-16.4,3.2-31,14.6-38,29.8c1.3,14.7,12.6,26.2,23.3,36.4c15.7,15,31.4,29.9,47.1,44.9c0.4-3.3-6.5-1.5-4.5,1.1
		c-16.4,21.8-22.2,51.4-15.1,77.8s26.8,49.1,51.9,59.9c12.6,5.4,26.4,7.8,40.1,8.1c19.1,0.3,39.2-4,53.5-16.7
		c19.3-17.2,23.9-45,27.4-70.6c34.2-2.9,68.5-5.7,102.7-8.6c3.1-0.3,6.3-0.6,8.8-2.4c2.3-1.7,3.6-4.3,4.8-6.9
		c41.4-86.2,82.8-172.3,124.3-258.5c0.4-0.7,0.7-1.6,0.5-2.3c-0.3-1-1.5-1.5-2.5-1.8C867.9,514.1,820,500,772,485.9
		c-12,31.2-23.9,62.3-35.9,93.5c-1.4,3.6-2.8,7.2-5.3,10.1c-4,4.6-10.1,6.5-15.7,8.9c-19.8,8.3-36.4,24.1-45.7,43.5
		c-9.4-1.3-19-1.2-28.4,0.1c-0.5-18.5,16.8-36.2,10.3-53.6c-2.8-7.5-9.6-12.8-16.8-16.4c-24.6-12.5-54.7-8.9-80,1.9
		c-9.4,27.6-18.7,55.3-28.1,82.9c-18.4-35.7-41.4-69.1-68.2-99c2.1,2.3,5.7-10.8,5.7-11.5c0.2-5.3-1.9-10.8-4.4-15.4
		c-4.8-8.7-11.8-16.5-22.3-17.4c-7.4-0.6-15.5,2.4-17.3,10.3C418.1,532.3,425.4,552.9,433.5,557.2z"/>
	<g id="Слой_9">
		<g>
			<g>
				<path d="M420.7,665.3c16.9,24.1,35.1,47.3,54.9,69.2c5.1,5.6,10.3,11.2,15.6,16.6c2.3,2.3,5.8-1.2,3.5-3.5
					c-19.9-20.3-38.3-42.2-55.3-64.9c-4.9-6.5-9.7-13.2-14.4-19.9c-0.8-1.1-2.2-1.6-3.4-0.9C420.5,662.5,419.9,664.2,420.7,665.3
					L420.7,665.3z"/>
			</g>
		</g>
		<g>
			<g>
				<path d="M805.8,715.2c9.6-19.6,19.9-38.8,28.8-58.8c2.6-5.7,5-11.5,7.4-17.4c0.5-1.3-0.5-2.7-1.7-3.1c-1.4-0.4-2.6,0.5-3.1,1.7
					c-7.9,19.9-17.6,39-27.3,58.1c-2.8,5.6-5.6,11.2-8.4,16.8c-0.6,1.2-0.3,2.7,0.9,3.4C803.5,716.8,805.2,716.5,805.8,715.2
					L805.8,715.2z"/>
			</g>
		</g>
		<g>
			<g>
				<path d="M762.1,792.8c9.2-14.9,18.1-30,26.5-45.3c2.5-4.5,5-9.1,7.4-13.7c1.5-2.8-2.8-5.4-4.3-2.5
					c-8.3,15.4-16.9,30.6-25.9,45.6c-2.7,4.4-5.4,8.9-8.1,13.3C756.1,793,760.4,795.5,762.1,792.8L762.1,792.8z"/>
			</g>
		</g>
		<g>
			<g>
				<path d="M422.9,666.5c54.3-2.2,108.6-4.7,162.9-7.6c54.2-2.9,108.3-6.3,162.4-10.4c30.5-2.3,60.9-4.8,91.3-7.6
					c3.2-0.3,3.2-5.3,0-5c-54.1,4.9-108.4,9-162.6,12.5c-54.1,3.5-108.3,6.4-162.5,9c-30.5,1.4-61,2.8-91.5,4
					C419.7,661.7,419.7,666.7,422.9,666.5L422.9,666.5z"/>
			</g>
		</g>
		<g>
			<g>
				<path d="M650.8,807c28.8-1.4,57.5-4.2,85.9-8.8c8-1.3,16-2.7,23.9-4.3c1.3-0.3,2.1-1.8,1.7-3.1c-0.4-1.4-1.7-2-3.1-1.7
					c-27.9,5.6-56.1,9.3-84.4,11.4c-8,0.6-16.1,1.1-24.1,1.5C647.6,802.2,647.5,807.2,650.8,807L650.8,807z"/>
			</g>
		</g>
		<g>
			<g>
				<path d="M776.2,720.4c16.6-2.5,33.1-4.7,49.7-6.9c21.7-2.8,43.4-5.4,65.1-7.9c23.4-2.7,46.9-5.2,70.3-7.6
					c22.1-2.3,44.1-4.4,66.2-6.3c17.6-1.5,35.1-2.9,52.7-3.8c1.7-0.1,3.4-0.2,5.1-0.2c3.2-0.1,3.2-5.1,0-5
					c-16.9,0.7-33.7,2-50.6,3.4c-21.9,1.8-43.7,3.9-65.5,6.1c-23.5,2.4-46.9,4.9-70.4,7.5c-22.2,2.5-44.3,5.1-66.4,7.9
					c-17.6,2.2-35.2,4.5-52.7,7.1c-1.7,0.2-3.3,0.5-5,0.8c-1.3,0.2-2.1,1.9-1.7,3.1C773.5,720.1,774.9,720.6,776.2,720.4
					L776.2,720.4z"/>
			</g>
		</g>
		<g>
			<g>
				<path d="M537.9,719.8c-16.1,5.7-31.7,14-43.5,26.7c-11.1,12-18.7,27.5-21.9,43.5c-3.7,18.8,0.1,38.3,9.1,55.1
					c4.5,8.4,10.3,16.1,17,22.8c7.1,7,15.1,12.6,24.4,16.5c18.2,7.7,38.7,10.5,58.2,8.1c9.7-1.2,19.3-3.4,28.2-7.4
					c8.1-3.6,15.7-8.8,21.8-15.1c5.8-5.9,10.2-12.9,13.4-20.4c3.5-8.2,6.1-17,7.4-25.9c2.9-19.2,0.2-39.1-8-56.7
					c-8-17.4-21.4-31.9-38.3-40.9c-16.7-8.9-36.1-12.4-54.9-9.5C546.5,717.2,542.1,718.3,537.9,719.8c-1.3,0.4-2.1,1.7-1.7,3.1
					c0.3,1.2,1.8,2.2,3.1,1.7c17-5.9,35.6-5.3,52.4,0.6c16.9,5.9,31.7,17.3,41.6,32.3c10.1,15.3,15.2,33.7,15,52
					c-0.1,9.1-1.6,18-4.1,26.7c-2.2,7.6-5.1,14.9-9.5,21.5c-4.3,6.6-10,12.2-16.5,16.6c-7.4,5-15.4,8.4-24.1,10.6
					c-9,2.3-18.3,3.4-27.6,3.3c-9.3-0.1-18.7-1.6-27.7-3.9c-9.3-2.5-18.5-6-26.5-11.5c-7.4-5.1-13.9-12-19.2-19.2
					c-10.6-14.4-17.1-32-16.9-50.1c0.1-8.8,2.1-17.3,5.1-25.5c2.6-7.1,6-13.9,10.4-20.1c8.9-12.7,21.8-22,35.8-28.5
					c3.9-1.8,7.9-3.4,11.9-4.8c1.3-0.5,2.1-1.7,1.7-3.1C540.6,720.3,539.2,719.3,537.9,719.8L537.9,719.8z"/>
			</g>
		</g>
		<g>
			<g>
				<path d="M417.9,556.7c16.8,27.4,33.7,54.7,50.5,82.1c4.8,7.8,9.6,15.6,14.4,23.4c1.7,2.7,6,0.2,4.3-2.5
					c-16.8-27.4-33.7-54.7-50.5-82.1c-4.8-7.8-9.6-15.6-14.4-23.4C420.5,551.4,416.2,553.9,417.9,556.7L417.9,556.7z"/>
			</g>
		</g>
		<g>
			<g>
				<path d="M434.2,550.6c9.1,13.9,18.2,27.9,27,42c8.8,14,17.6,28.1,26.2,42.2c4.9,8,9.7,16.1,14.5,24.1c1.6,2.8,6,0.3,4.3-2.5
					c-8.5-14.3-17.1-28.5-25.9-42.7c-8.7-14.1-17.5-28.1-26.5-42c-5.1-7.9-10.2-15.8-15.3-23.6C436.7,545.4,432.4,547.9,434.2,550.6
					L434.2,550.6z"/>
			</g>
		</g>
		<g>
			<g>
				<path d="M417.2,553.9c-2.9,1.9-6.3-0.3-8.1-2.8c-1.2-1.7-2.1-3.5-3-5.4c-1.1-2.2-2.1-4.4-3.2-6.6c-2.1-4.4-4.3-8.8-6.3-13.2
					c-0.9-1.9-1.7-3.9-1.7-6c0-1.7,0.6-3.3,1.4-4.8c1.9-3.3,4.9-6.1,7.8-8.5c1.3-1.1,3-2.2,4.7-2.5c1.7-0.3,2.9,0.6,3.9,1.8
					c3.2,3.6,6.1,7.5,9.2,11.3c3.1,3.9,6.3,7.7,9.4,11.6c1.7,2.1,3.4,4.1,5,6.2c1.3,1.7,2.7,3.6,3,5.7c0.2,1.4-0.1,2.7-0.8,4
					c-0.4,0.7-0.7,1.2-1.2,1.7c-0.4,0.4-0.7,0.5-1,0.4c-3.2-0.1-3.2,4.9,0,5c4.2,0.1,6.9-4.2,7.8-7.8c1.2-5-1.5-9.2-4.5-12.9
					c-7.2-9-14.5-18-21.8-27c-1.6-2-3.3-4-5.8-4.8c-2.4-0.7-4.9-0.2-7.1,0.8c-2.2,1.1-4.2,2.7-6,4.4c-1.7,1.6-3.3,3.2-4.8,5
					c-3.2,4-5,8.6-3.8,13.7c0.6,2.6,1.9,5.1,3.1,7.5c1.2,2.6,2.5,5.2,3.7,7.8c1.4,3,2.8,5.9,4.3,8.9c1.1,2.4,2.3,4.8,3.9,6.9
					c3.3,4.3,9.4,7.2,14.5,3.9C422.4,556.5,419.9,552.1,417.2,553.9L417.2,553.9z"/>
			</g>
		</g>
		<g>
			<g>
				<path d="M680.8,649.7c9.2-21.1,18.2-42.3,26.9-63.6c8.7-21.3,17.1-42.8,25.3-64.3c4.6-12.1,9.1-24.2,13.5-36.4
					c0.5-1.3-0.5-2.7-1.7-3.1c-1.4-0.4-2.6,0.5-3.1,1.7c-7.8,21.5-15.9,42.9-24.2,64.2c-8.3,21.3-16.9,42.5-25.8,63.6
					c-5,11.8-10,23.6-15.1,35.3c-0.5,1.2-0.4,2.7,0.9,3.4C678.4,651.2,680.3,650.9,680.8,649.7L680.8,649.7z"/>
			</g>
		</g>
		<g>
			<g>
				<path d="M744.1,486.3c20.5,4.4,40.8,9.3,61,14.8c20.1,5.5,40.1,11.5,59.8,18.1c11.2,3.7,22.3,7.6,33.3,11.7
					c1.3,0.5,2.7-0.5,3.1-1.7c0.4-1.4-0.5-2.6-1.7-3.1c-19.6-7.3-39.4-14-59.4-20.1c-19.9-6.1-40-11.7-60.3-16.6
					c-11.4-2.8-22.9-5.4-34.5-7.9C742.3,480.8,741,485.6,744.1,486.3L744.1,486.3z"/>
			</g>
		</g>
		<g>
			<g>
				<path d="M897.7,527.8c-8.6,14.1-17,28.3-25.2,42.6c-8.2,14.2-16.2,28.6-24,43c-4.4,8.2-8.8,16.4-13.1,24.6
					c-1.5,2.8,2.8,5.4,4.3,2.5c7.7-14.6,15.5-29.1,23.6-43.6c8-14.4,16.2-28.6,24.5-42.8c4.7-8,9.5-16,14.3-24
					C903.7,527.6,899.4,525.1,897.7,527.8L897.7,527.8z"/>
			</g>
		</g>
		<g>
			<g>
				<path d="M711.2,647.9c5.7-16.5,11.7-32.8,18.2-49c6.5-16.1,13.3-32.1,20.6-47.9c4.1-9,8.4-17.9,12.7-26.7
					c0.6-1.2,0.3-2.7-0.9-3.4c-1.1-0.6-2.8-0.3-3.4,0.9c-7.8,15.8-15.2,31.7-22.2,47.9c-7,16.1-13.6,32.4-19.8,48.8
					c-3.5,9.3-6.9,18.7-10.1,28.1c-0.4,1.3,0.5,2.7,1.7,3.1C709.4,650,710.7,649.2,711.2,647.9L711.2,647.9z"/>
			</g>
		</g>
		<g>
			<g>
				<path d="M760,525.1c24,3.8,47.8,8.8,71.3,15c6.6,1.8,13.2,3.6,19.8,5.6c3.1,0.9,4.4-3.9,1.3-4.8c-23.3-6.9-47-12.6-70.9-17.1
					c-6.7-1.3-13.5-2.4-20.3-3.5c-1.3-0.2-2.7,0.3-3.1,1.7C757.9,523.2,758.6,524.9,760,525.1L760,525.1z"/>
			</g>
		</g>
		<g>
			<g>
				<path d="M849.7,543.4c-12.6,25.3-25.3,50.7-37.9,76c-3.5,7-7,14-10.5,21c-1.4,2.9,2.9,5.4,4.3,2.5c12.6-25.3,25.3-50.7,37.9-76
					c3.5-7,7-14,10.5-21C855.4,543,851.1,540.5,849.7,543.4L849.7,543.4z"/>
			</g>
		</g>
		<g>
			<g>
				<path d="M749.4,498.6c-2.4,0.3-4.7,1.3-6.2,3.3c-1.5,1.8-2.5,4.2-2.4,6.6c0.2,4.7,4,9,8.7,9.8c4.9,0.9,10-1.4,12.7-5.6
					c2.6-4,2.6-9.7-0.6-13.3c-3.2-3.7-9.7-4.2-13.2-0.6c-0.9,1-1,2.6,0,3.5c0.9,0.9,2.6,1,3.5,0c0.1-0.2,0.3-0.3,0.5-0.4
					c-0.1,0.1-0.4,0.2,0,0c0.1-0.1,1-0.5,0.5-0.3c0.3-0.1,0.7-0.2,1-0.3c0.1,0,0.5,0,0,0c0.2,0,0.4,0,0.6,0c0.2,0,0.4,0,0.6,0
					c0.1,0,0.4,0.1,0,0c0.3,0.1,0.7,0.1,1,0.3c0.1,0,0.3,0.1,0.4,0.1c-0.5-0.2,0.1,0.1,0.2,0.1c0.3,0.2,0.6,0.4,0.9,0.6
					c-0.4-0.3,0.3,0.3,0.4,0.5c0.5,0.5-0.2-0.3,0.1,0.1c0.1,0.2,0.2,0.3,0.3,0.5c0.1,0.2,0.2,0.4,0.3,0.5c0.2,0.4-0.1-0.5,0.1,0.2
					c0,0.2,0.1,0.3,0.1,0.5c0,0.1,0.2,0.8,0.1,0.6c-0.1-0.4,0,0.4,0,0.4c0,0.2,0,0.3,0,0.5c0,0.2,0,0.5,0,0.7c0,0.1,0,0.5,0,0.1
					c-0.1,0.4-0.1,0.8-0.3,1.2c0,0.2-0.1,0.3-0.1,0.5c-0.1,0.2-0.1,0.3-0.2,0.5c0.1-0.2,0.1-0.2,0,0c-0.2,0.3-0.3,0.7-0.5,1
					c-0.1,0.2-0.3,0.4-0.4,0.6c0.1-0.1,0.3-0.3-0.1,0.1c-0.3,0.3-0.6,0.6-0.9,0.9c-0.1,0.1-0.3,0.2-0.4,0.3
					c-0.2,0.2-0.3,0.2-0.1,0.1c-0.1,0.1-0.2,0.1-0.3,0.2c-0.7,0.5-1.2,0.7-1.8,0.9c-0.4,0.1-0.8,0.2-1.2,0.3c-0.2,0-0.3,0.1-0.5,0.1
					c0.5-0.1-0.4,0-0.5,0c-0.4,0-0.8,0-1.1,0c0.5,0.1-0.3-0.1-0.3-0.1c-0.2,0-0.3-0.1-0.5-0.1c-0.2-0.1-0.4-0.1-0.6-0.2
					c-0.4-0.1,0.5,0.3-0.2-0.1c-0.4-0.2-0.8-0.4-1.1-0.7c-0.4-0.2,0.4,0.4-0.2-0.1c-0.1-0.1-0.2-0.2-0.4-0.3
					c-0.3-0.3-0.6-0.6-0.8-0.9c0.3,0.3,0-0.1-0.1-0.2c-0.1-0.2-0.2-0.3-0.3-0.5c-0.1-0.2-0.2-0.3-0.3-0.5c-0.1-0.2-0.1-0.1,0,0.1
					c-0.1-0.1-0.1-0.3-0.2-0.4c0-0.1-0.1-0.3-0.1-0.5c0-0.1-0.1-0.7-0.1-0.3c0-0.2,0-0.5,0-0.7c0-0.1,0.1-0.8,0-0.3
					c0.1-0.4,0.2-0.8,0.3-1.3c0-0.1,0.3-0.6,0.1-0.2c0.1-0.2,0.2-0.4,0.3-0.6c0.1-0.2,0.2-0.3,0.3-0.5c0.1-0.1,0.1-0.1,0,0
					c0.1-0.1,0.2-0.2,0.3-0.4c0.1-0.1,0.2-0.2,0.3-0.3c0.1-0.1,0.6-0.4,0.2-0.2c0.2-0.1,0.4-0.3,0.6-0.4c0.1-0.1,0.7-0.3,0.2-0.1
					c0.1-0.1,0.3-0.1,0.4-0.2c0.1,0,1-0.2,0.5-0.1c1.3-0.2,2.5-1,2.5-2.5C751.9,499.9,750.8,498.5,749.4,498.6L749.4,498.6z"/>
			</g>
		</g>
		<g>
			<g>
				<path d="M872.1,530.8c-4.3-2.3-10-1.1-13.1,2.7c-3.3,4.1-3.1,10.3,0.1,14.4c3.2,4.3,8.8,5.9,14,5c5.2-0.9,9.9-5.1,9.8-10.6
					c-0.1-6.5-5.7-11-11.7-12c-1.3-0.2-2.7,0.4-3.1,1.7c-0.3,1.2,0.4,2.8,1.7,3.1c3.4,0.6,6.8,2.3,7.8,5.8c0.9,3.2-1.2,5.8-4.2,6.8
					c-3,1-6.8,0.5-9.2-1.6c-1.3-1.1-2-2.4-2.4-4c-0.2-0.8-0.2-1.2-0.2-2.2c0-0.6,0-0.5,0.2-1c0-0.2,0.1-0.4,0.2-0.5
					c0,0,0.3-0.7,0.2-0.5c0.7-1.5,1.9-2.5,3.1-3c0.5-0.2,0.9-0.3,1.4-0.4c0.5-0.1-0.6,0,0.2,0c0.3,0,0.5,0,0.8,0
					c0.6,0,1.4,0.2,2,0.5C872.4,536.7,874.9,532.3,872.1,530.8L872.1,530.8z"/>
			</g>
		</g>
		<g>
			<g>
				<path d="M506.4,658.3c7-23.1,13.5-46.3,20.3-69.4c1.9-6.4,3.8-12.8,5.7-19.1c0.9-3.1-3.9-4.4-4.8-1.3
					c-7,23.1-13.5,46.3-20.3,69.4c-1.9,6.4-3.8,12.8-5.7,19.1C500.7,660.1,505.5,661.4,506.4,658.3L506.4,658.3z"/>
			</g>
		</g>
		<g>
			<g>
				<path d="M530.7,571.5c15.3-5,31.2-9.2,47.4-8.4c13.2,0.6,26.3,4.7,37,12.7c5.6,4.2,10.3,9.6,13.6,15.8c1.5,2.8,5.8,0.3,4.3-2.5
					c-6.4-12.2-17.8-20.8-30.4-25.9c-14.5-5.7-30.3-6.2-45.5-3.6c-9.5,1.6-18.7,4.2-27.8,7.2C526.3,567.7,527.6,572.5,530.7,571.5
					L530.7,571.5z"/>
			</g>
		</g>
		<g>
			<g>
				<path d="M528.3,573.1c9.9,10.1,22.8,17,36.3,21c14,4.1,28.8,5.1,43.3,3.6c8-0.9,16-2.5,23.6-5c3-1,1.7-5.8-1.3-4.8
					c-13.1,4.3-27,6.1-40.8,5.4c-13.6-0.7-27.3-3.9-39.4-10.3c-6.7-3.5-12.8-7.9-18.1-13.3C529.6,567.3,526.1,570.8,528.3,573.1
					L528.3,573.1z"/>
			</g>
		</g>
		<g>
			<g>
				<path d="M628.5,589.6c-5.5,16.1-11.1,32.2-16.7,48.2c-1.6,4.6-3.2,9.2-4.7,13.8c-1,3.1,3.8,4.4,4.8,1.3
					c5.5-16.1,11.1-32.2,16.7-48.2c1.6-4.6,3.2-9.2,4.7-13.8C634.3,587.9,629.5,586.6,628.5,589.6L628.5,589.6z"/>
			</g>
		</g>
		<g>
			<g>
				<path d="M518.6,606.8c10.5,9.9,23.3,17,37.1,21.1c13.8,4.1,28.4,5,42.5,2.8c8-1.3,15.8-3.6,23.2-7c1.2-0.6,1.5-2.3,0.9-3.4
					c-0.7-1.3-2.2-1.5-3.4-0.9c-12.3,5.6-26,8-39.4,7.4c-13.4-0.6-26.7-4.1-38.6-10.3c-6.8-3.6-13.1-8-18.7-13.3
					C519.8,601,516.2,604.5,518.6,606.8L518.6,606.8z"/>
			</g>
		</g>
		<g>
			<g>
				<path d="M431.4,664.5c2.3-7.2,6.8-13.7,12.8-18.2c6.7-5,14.9-7.5,23.2-7.3c3.2,0.1,3.2-4.9,0-5c-9.3-0.3-18.6,2.6-26,8.2
					c-7,5.3-12.1,12.6-14.8,20.9C425.6,666.3,430.5,667.6,431.4,664.5L431.4,664.5z"/>
			</g>
		</g>
		<g>
			<g>
				<path d="M615.3,639.6c15.7-2.5,32.4,2.1,43.9,13.1c2.3,2.2,5.9-1.3,3.5-3.5c-10-9.5-23.4-14.7-37.1-15.1
					c-3.9-0.1-7.8,0.2-11.7,0.8c-1.3,0.2-2.1,1.9-1.7,3.1C612.6,639.3,614,639.8,615.3,639.6L615.3,639.6z"/>
			</g>
		</g>
		<g>
			<g>
				<path d="M642,639.7c11.1-17.4,26.6-31.8,44.9-41.5c5.1-2.7,10.4-5.1,15.9-7c1.3-0.5,2.1-1.7,1.7-3.1c-0.3-1.2-1.8-2.2-3.1-1.7
					c-20.3,7.2-38.7,19.6-52.8,36c-4,4.7-7.7,9.6-11,14.8C635.9,639.9,640.3,642.4,642,639.7L642,639.7z"/>
			</g>
		</g>
		<g>
			<g>
				<path d="M773.6,738.4c19.8-3.3,39.5-6.3,59.4-9.2c20.1-2.9,40.1-5.6,60.2-8.1c20.4-2.5,40.7-4.9,61.2-7
					c20.2-2.1,40.4-4.1,60.7-5.8c20-1.7,40-3.2,60.1-4.5c2.5-0.2,4.9-0.3,7.4-0.5c3.2-0.2,3.2-5.2,0-5c-20,1.3-39.9,2.7-59.9,4.4
					c-20.4,1.7-40.8,3.6-61.2,5.7c-20.4,2.1-40.8,4.4-61.2,6.9c-20.4,2.5-40.8,5.2-61.1,8c-19.9,2.8-39.7,5.8-59.6,9
					c-2.4,0.4-4.9,0.8-7.3,1.2c-1.3,0.2-2.1,1.9-1.7,3.1C770.9,738.1,772.2,738.6,773.6,738.4L773.6,738.4z"/>
			</g>
		</g>
		<g>
			<g>
				<path d="M828.8,665.8c21.3-1.8,42.5-3.6,63.8-5.4c21-1.8,41.9-3.5,62.9-5.3c12.1-1,24.3-2,36.4-3.1c1.3-0.1,2.5-1.1,2.5-2.5
					c0-1.3-1.1-2.6-2.5-2.5c-21.3,1.8-42.5,3.6-63.8,5.4c-21,1.8-41.9,3.5-62.9,5.3c-12.1,1-24.3,2-36.4,3.1
					c-1.3,0.1-2.5,1.1-2.5,2.5C826.3,664.5,827.4,665.9,828.8,665.8L828.8,665.8z"/>
			</g>
		</g>
		<g>
			<g>
				<path d="M824.8,678.5c23.9-1.8,47.8-3.6,71.7-5.4c24.1-1.8,48.3-3.7,72.4-5.5c13.3-1,26.6-2,39.9-3c1.3-0.1,2.5-1.1,2.5-2.5
					c0-1.3-1.1-2.6-2.5-2.5c-23.9,1.8-47.8,3.6-71.7,5.4c-24.1,1.8-48.3,3.7-72.4,5.5c-13.3,1-26.6,2-39.9,3
					c-1.3,0.1-2.5,1.1-2.5,2.5C822.3,677.3,823.5,678.6,824.8,678.5L824.8,678.5z"/>
			</g>
		</g>
		<g>
			<g>
				<path d="M775.5,715.5c-4,0.1-8.4,1.6-11.2,4.6c-2.6,2.7-3.7,6.6-3.1,10.3c0.5,3.1,2.7,5.6,5.6,6.8c1.9,0.8,4,1.3,6.1,1.4
					c1.4,0,2.5-1.2,2.5-2.5c0-1.4-1.1-2.5-2.5-2.5c-0.4,0-0.8,0-1.1-0.1c-0.6,0,0.7,0.1,0,0c-0.2,0-0.4-0.1-0.6-0.1
					c-0.5-0.1-1-0.2-1.4-0.4c-0.2-0.1-0.5-0.2-0.7-0.2c-0.2-0.1-0.6-0.3,0,0c-0.1-0.1-0.2-0.1-0.3-0.2c-0.2-0.1-0.5-0.2-0.7-0.4
					c-0.1-0.1-0.2-0.1-0.3-0.2c-0.1,0-0.6-0.4-0.3-0.2c0.3,0.3-0.1-0.1-0.1-0.1c-0.1-0.1-0.2-0.2-0.3-0.3c-0.1-0.1-0.1-0.2-0.2-0.2
					c-0.4-0.4,0.3,0.5,0,0c-0.1-0.2-0.3-0.5-0.4-0.7c0,0-0.2-0.6-0.1-0.2c0.2,0.4-0.1-0.3-0.1-0.4c0-0.1-0.2-1.1-0.1-0.5
					c0-0.4-0.1-0.7-0.1-1.1c0-0.4,0-0.7,0.1-1.1c-0.1,0.6,0-0.1,0-0.2c0-0.2,0.1-0.4,0.1-0.6c0.1-0.3,0.3-0.7,0.3-1
					c0.1-0.4-0.3,0.5,0,0c0.1-0.2,0.2-0.3,0.2-0.5c0.1-0.3,0.3-0.5,0.5-0.7c0.1-0.1,0.1-0.2,0.2-0.3c-0.4,0.6,0,0,0.1-0.1
					c0.4-0.4,0.8-0.8,1.2-1.1c-0.6,0.5,0.1-0.1,0.3-0.2c0.3-0.2,0.5-0.3,0.8-0.5c0.2-0.1,0.5-0.2,0.7-0.4c0.1-0.1,0.3-0.1,0.4-0.2
					c-0.6,0.3-0.3,0.1-0.1,0.1c0.5-0.2,1-0.4,1.5-0.5c0.5-0.1,1-0.3,1.5-0.4c0.2,0,0.4-0.1,0.6-0.1c0.4-0.1,0.6,0,0,0
					c0.4,0,0.7-0.1,1.1-0.1c1.4,0,2.5-1.1,2.5-2.5C778,716.7,776.9,715.5,775.5,715.5L775.5,715.5z"/>
			</g>
		</g>
	</g>
</g>
</svg>
