<?xml version="1.0" encoding="utf-8"?>
<!-- Generator: Adobe Illustrator 24.3.0, SVG Export Plug-In . SVG Version: 6.00 Build 0)  -->
<svg version="1.1" xmlns="http://www.w3.org/2000/svg" xmlns:xlink="http://www.w3.org/1999/xlink" x="0px" y="0px"
	 viewBox="0 0 1920 1080" style="enable-background:new 0 0 1920 1080;" xml:space="preserve">
<style type="text/css">
	.st0{fill:#A5A5A5;}
	.st1{fill:#66FF74;}
	.st2{fill:#FF5050;}
	.st3{fill:#88D7FF;}
</style>
<g id="МОСТ">
	<g>
		<g>
			<path class="st0" d="M43.8,1856.3c15.5-34.3,32.9-67.7,50.6-100.9c44.2-83,92.5-163.9,144.5-242.2
				c68.6-103.2,143.9-202.2,227.9-293.4c88.8-96.4,188-184.8,300.2-253.1c110.5-67.2,234.6-113.8,364.5-121.5
				c131.1-7.8,261.3,24.1,378.4,82.2c116.7,57.9,220.4,139.6,312.6,231.1c89.3,88.6,168.6,187,240.3,290.2
				c58,83.5,111.1,170.4,159.5,259.9c25.1,46.3,49.2,93.2,70.8,141.2c1,2.1,1.9,4.3,2.8,6.4c1.3,2.9,5.6,0.4,4.3-2.5
				c-14.9-34.4-31.9-68-49.1-101.3c-43-83.3-90.3-164.5-141.5-243c-66.8-102.5-140.6-200.9-223.2-291.4
				c-88-96.4-186.5-184.6-298.1-252.9c-109.9-67.2-233.1-113.8-362.2-124c-129.1-10.2-257,18.1-373.5,73.4
				c-118.2,56.1-223.4,137.1-317.2,227.7c-92.5,89.3-174.7,189-249.4,293.6c-60.8,85.3-116.7,174.1-167.8,265.5
				c-26.7,47.7-52.4,96.1-75.6,145.6c-1.1,2.3-2.1,4.5-3.2,6.8C38.2,1856.6,42.5,1859.2,43.8,1856.3L43.8,1856.3z"/>
		</g>
	</g>
	<g>
		<g>
			<path class="st0" d="M1402.7,678.3c30.1,1.4,60.1,4.8,90,8.1c33.4,3.6,66.8,7.5,100.1,11.8c48.5,6.2,96.3,16.3,144.1,25.9
				c59.9,12.1,119.6,24.6,178.8,39.4c106.6,26.6,211.1,60.2,314.1,98.5c13.7,5.1,27.4,10.5,40.8,16.3c1.7,0.7,3.3,1.3,5.1,1.7
				c4.1,1,7.4,2.7,11.1,4.7c5.3,2.8,10.3,5.3,16,7.2c5.8,1.9,10.7,5.7,16.5,7.5c6.5,2,12.7,3.7,18.9,6.6c10.1,4.7,20,11.9,30.8,14.9
				c13.2,3.7,25.5,10.9,37.8,17c12.6,6.2,25.3,12.5,37.9,18.9c12.7,6.4,25.4,12.8,38,19.3c12.3,6.3,24.1,13.7,35.9,20.9
				c5.7,3.5,11.5,7,17.3,10.4c2.7,1.6,4.2,3.5,6.4,5.5c1.7,1.6,4.7,1.7,6.8,2.5c3,1.1,4.3-3.7,1.3-4.8c-3.5-1.3-4-1.8-6.6-4.3
				c-1.7-1.6-4.3-2.6-6.4-3.9c-6.4-3.8-12.8-7.7-19.2-11.5c-12.2-7.4-24.4-14.7-37.1-21.2c-25.2-12.9-50.5-25.5-75.8-38.1
				c-6-3-12-5.9-18-8.9c-5.7-2.8-10.9-4.9-17-6.7c-11.6-3.3-22.1-11.2-33.1-16c-5.1-2.2-10.3-3.8-15.6-5.3
				c-6.2-1.8-11.4-5.7-17.5-7.7c-6.2-2.1-11.7-5.1-17.5-8.1c-5.8-3-11.7-4.2-17.6-6.8c-25.5-10.8-51.5-20.1-77.7-29.2
				c-26.4-9.2-52.4-19.2-79-27.7c-51.8-16.8-103.8-32.7-156.5-46.6c-64.3-17-129.1-31.3-194.3-44.6
				c-50.2-10.3-100.5-21.7-151.3-28.6c-63.2-8.5-126.7-16.2-190.2-21c-5.8-0.4-11.6-0.8-17.5-1.1
				C1399.5,673.1,1399.5,678.1,1402.7,678.3L1402.7,678.3z"/>
		</g>
	</g>
	<g>
		<g>
			<path class="st0" d="M1339,674.4c6.9,0.3,13.7,0.7,20.6,1.1c1.3,0.1,2.5-1.2,2.5-2.5c0-1.4-1.1-2.4-2.5-2.5
				c-6.9-0.4-13.7-0.8-20.6-1.1c-1.3-0.1-2.5,1.2-2.5,2.5C1336.5,673.3,1337.7,674.3,1339,674.4L1339,674.4z"/>
		</g>
	</g>
	<g>
		<g>
			<path class="st0" d="M1095.7,670.2c26.4-0.7,52.8-0.9,79.3-0.9c26.2,0.1,52.4,0.6,78.5,1.3c14.7,0.4,29.5,1,44.2,1.6
				c3.2,0.1,3.2-4.9,0-5c-26.2-1.1-52.5-1.9-78.7-2.4c-26.2-0.5-52.5-0.6-78.7-0.4c-14.9,0.1-29.7,0.4-44.6,0.8
				C1092.5,665.3,1092.5,670.3,1095.7,670.2L1095.7,670.2z"/>
		</g>
	</g>
	<g>
		<g>
			<path class="st0" d="M1022.2,674.1c10.2-0.7,20.5-1.4,30.7-1.9c3.2-0.2,3.2-5.2,0-5c-10.2,0.5-20.5,1.2-30.7,1.9
				c-1.3,0.1-2.5,1.1-2.5,2.5C1019.7,672.9,1020.8,674.2,1022.2,674.1L1022.2,674.1z"/>
		</g>
	</g>
	<g>
		<g>
			<path class="st0" d="M446.9,761.1c26.1-6.5,52.4-12,78.7-17.5c41-8.7,82.1-17,123.2-24.9c38.6-7.4,77.2-14.5,116.1-20.2
				c25.2-3.7,50.5-6.4,75.8-9.4c40.8-4.9,81.8-9.9,122.9-11.4c3.9-0.1,7.9-0.2,11.8-0.3c3.2,0,3.2-5,0-5
				c-18.8,0.1-37.6,1.6-56.2,3.3c-21.6,1.9-43.1,4.3-64.6,6.8c-26.3,3.1-52.7,6-79,9.6c-37.6,5.1-74.9,11.9-112.2,18.9
				c-41.8,7.9-83.5,16.2-125.2,25c-29,6.1-58.1,12.2-87,19.1c-1.9,0.4-3.7,0.9-5.6,1.4C442.4,757.1,443.7,761.9,446.9,761.1
				L446.9,761.1z"/>
		</g>
	</g>
	<g>
		<g>
			<path class="st0" d="M-208.7,1015.1c20.9-11.9,42.1-23.5,63.4-34.7c20.9-11,42-21.6,63.3-31.9c21.1-10.2,42.5-20.1,63.9-29.6
				c21.6-9.6,43.4-18.8,65.3-27.6c22.4-9,44.9-17.8,67.5-26.1c2.8-1.1,5.7-2.1,8.5-3.1c3-1.1,1.7-5.9-1.3-4.8
				c-22.8,8.4-45.5,17.1-68.1,26.1c-22.1,8.8-44.1,18-65.9,27.6c-21.5,9.4-42.9,19.2-64.1,29.3c-21.4,10.2-42.6,20.8-63.6,31.7
				c-21.4,11.1-42.6,22.6-63.6,34.4c-2.6,1.5-5.2,3-7.9,4.4C-214.1,1012.3-211.5,1016.7-208.7,1015.1L-208.7,1015.1z"/>
		</g>
	</g>
</g>
<g id="ЗРИТЕЛЬ">
	<path class="st1" d="M71.5,758.5c11.5,39.8,35.5,75.5,66,103.7c12.3,11.4,26.5,22.9,29.7,39.3c2.3,11.3-1.2,23-6.2,33.4
		c-23.9,49.9-78.3,75.8-123.5,107.7c-7.2,5.1-14.4,10.7-18.7,18.4c-10.7,19.2,1.6,44.7,20.5,55.9c18.9,11.3,42,12.1,63.9,12.6
		c111.1,2.6,222.3,5.3,333.4,7.9c10.5,0.2,22.4-0.1,29.3-7.9c7.8-8.7,5.3-23-2-32.1s-18.1-14.6-28-20.7c-15.3-9.4-29.6-21-39.9-35.7
		c-14.7-21-20.5-47.8-17-73.1c23.1-6.1,47.3-12.9,64.2-29.8c24.3-24.2,26.9-62.3,25.5-96.6c-0.4-10-1-20.3,2.3-29.8
		c2-5.6,5.2-10.7,6-16.6c1.2-9.4-4.3-18.1-8-26.9c-14.4-34.6,0.1-75.9-13.5-110.8c-2.2-5.5-5-11.2-3.9-17c1.2-6,6.3-10.3,11-14.1
		c13.7-11.2,27-23.3,36.2-38.4c9.2-15.1,14-33.7,9.5-50.8c-5.1-19.5-21.9-34.6-40.8-41.5c-19-6.9-39.9-6.5-59.8-2.9
		c-28.8,5.2-56.4,16.9-80.2,34.1c-48.8-18.2-104.7-16.3-152.1,5.1c-32.2,14.6-60.2,38-80.6,66.7c-18.9,26.6-26.5,56.7-29.9,89
		C62.5,711.4,64.8,735.6,71.5,758.5z"/>
	<g id="Слой_8">
		<g>
			<g>
				<path d="M136.8,878.7c1.3,17.5-4,34.6-12.8,49.6c-9.3,15.8-22.2,29-36.4,40.4c-15.2,12.3-31.9,22.6-48.1,33.6
					c-15,10.2-29.7,21.1-42.4,34.2c-12.2,12.6-22.5,27.2-28.3,43.8c-0.7,2-1.3,4-1.9,6c-0.9,3.1,4,4.4,4.8,1.3
					c4.6-16.7,14-31.5,25.6-44.1c12.2-13.3,26.5-24.4,41.3-34.6c16.2-11.2,33-21.6,48.5-33.7c14.7-11.4,28.2-24.4,38.3-40.1
					c9.6-14.9,16.2-32.2,16.3-50c0-2.1-0.1-4.3-0.2-6.4c-0.1-1.3-1.1-2.5-2.5-2.5C138.1,876.2,136.7,877.3,136.8,878.7L136.8,878.7z
					"/>
			</g>
		</g>
		<g>
			<g>
				<path d="M354.2,949.1c-1.9,17.2-3.3,35,2.2,51.8c2.8,8.6,7.1,16.6,12.8,23.6c5.7,7.1,12.9,12.9,20.1,18.4
					c7.1,5.4,14.3,10.7,21.1,16.6c6.7,5.8,13.2,11.9,19.3,18.3c12.1,12.7,23,26.5,32.4,41.3c9.5,14.9,17.6,30.7,23.9,47.2
					c0.8,2,1.5,4.1,2.3,6.1c0.5,1.3,1.7,2.1,3.1,1.7c1.2-0.3,2.2-1.8,1.7-3.1c-6-16.7-13.6-32.7-22.6-47.9
					c-9.1-15.2-19.7-29.6-31.6-42.8c-11.9-13.2-25.1-25.1-39.2-35.8c-7.2-5.4-14.5-10.7-20.9-17c-6.5-6.3-11.6-13.7-15.2-22
					c-6.9-15.6-6.6-32.9-5-49.5c0.2-2.3,0.5-4.6,0.7-6.9c0.2-1.3-1.3-2.5-2.5-2.5C355.2,946.6,354.4,947.8,354.2,949.1L354.2,949.1z
					"/>
			</g>
		</g>
		<g>
			<g>
				<path d="M55.2,998.1c26.6-2.2,53.2-4.4,79.8-5.6c26.6-1.2,53.3-1.4,79.9,0.3c14.3,0.9,28.6,2,42.9,3.6c17.1,2,33.9,5.2,50.5,9.9
					c21.9,6.1,43.1,14.6,63.4,24.9c2.9,1.5,5.7,2.9,8.5,4.5c2.8,1.5,5.4-2.8,2.5-4.3c-20.9-11.2-42.7-20.6-65.4-27.6
					c-17.4-5.3-35.2-9.1-53.2-11.5c-13-1.7-26.1-2.6-39.2-3.7c-26.5-2.2-53-2.4-79.6-1.4c-26.8,0.9-53.5,3-80.2,5.2
					c-3.3,0.3-6.7,0.6-10,0.8C52,993.4,52,998.4,55.2,998.1L55.2,998.1z"/>
			</g>
		</g>
		<g>
			<g>
				<path d="M304.1,507c-19.9-7.8-41.1-12.2-62.4-13.2c-21.3-1-42.9,1.4-63.5,7.2c-19.8,5.5-38.7,14.2-55.7,25.7
					c-15.8,10.7-30.1,23.8-42.2,38.6c-12.1,14.8-22.2,31.3-29.7,48.9C42.8,632.5,38,651.9,36,671.7c-2,20.4-0.9,41.1,3.4,61.1
					c4.2,19.9,11.6,39.2,22.1,56.6c7.3,12,16.3,22.8,25.5,33.5c12.7,14.9,25.8,29.6,38.8,44.3c3.9,4.4,7.9,8.9,11.8,13.3
					c2.1,2.4,5.7-1.1,3.5-3.5c-14-15.9-28.1-31.6-41.9-47.6c-8.7-10-17.6-20-25.4-30.6c-11.4-15.6-19.9-33.2-25.5-51.7
					c-5.8-19.2-8.5-39.2-8.1-59.2c0.3-19.7,3.6-39.4,9.9-58.1c6-17.8,14.7-34.7,25.5-50c10.8-15.3,23.8-29,38.5-40.6
					c15.2-12.1,32.4-21.7,50.6-28.5c19.6-7.3,40.4-11.3,61.4-11.9c21-0.7,42.1,2,62.3,8.1c4.9,1.5,9.7,3.2,14.5,5
					C305.8,513,307.1,508.2,304.1,507L304.1,507z"/>
			</g>
		</g>
		<g>
			<g>
				<path d="M139.6,897.9c21.9,1.4,43.8,1.1,65.7,0.6c18.8-0.5,37.5-1.2,55.1-8.4c17.1-7,32.4-18,43.3-33
					c5.2-7.2,9.3-15.2,11.8-23.7c1.4-4.8,2.5-9.9,1.8-14.8c-0.7-4.7-3.4-8.6-6.8-11.8c-3.2-3-6.7-5.5-9.6-8.7
					c-2.7-3-4.8-6.5-6.5-10.1c-3.3-7.1-4.6-15.5-3.2-23.3c1.4-7.7,5.3-14.4,11.5-19.3c5.7-4.5,12.9-7.2,20.2-7.3
					c7.5-0.1,14.5,2.8,19.9,8.1c5.7,5.6,9.2,13,11.6,20.5c1.3,4,2.4,8.2,3.3,12.3c0.9,3.9,1.3,8.2,3.2,11.7
					c2.3,4.2,7.2,5.8,11.2,2.9c2-1.5,3.5-3.5,5.1-5.5c1.5-1.9,2.9-3.8,4.2-5.8c11.1-16.3,18.4-35.1,22.5-54.4
					c4.6-21.6,5-43.7,3.7-65.7c-0.3-5.5-0.8-11-1.2-16.5c-0.1-1.3-1.1-2.5-2.5-2.5c-1.3,0-2.6,1.1-2.5,2.5c1.9,22.1,3,44.3,0.2,66.3
					c-2.5,19.5-8.1,38.9-17.4,56.3c-2.3,4.2-4.8,8.3-7.5,12.2c-1.4,2-2.8,3.9-4.3,5.8c-1.1,1.3-2.6,3.7-4.5,3.8
					c-3,0.2-3.8-5.4-4.3-7.6c-0.8-4.1-1.7-8.1-2.8-12.2c-4.2-15.3-12.5-32-29.3-36.2c-15.1-3.8-32.1,3.6-40.2,16.6
					c-9,14.3-6.5,33.8,3.2,47.1c2.5,3.5,5.5,6.5,8.8,9.2c3.2,2.6,6.8,5.4,8.5,9.3c1.8,4.4,0.8,9.4-0.4,13.8c-1.1,4.1-2.5,8.2-4.4,12
					c-7.5,15.8-20.5,28.6-35.6,37.2c-7.9,4.5-16.3,8-25.1,10.2c-8.7,2.2-17.7,3.1-26.7,3.5c-10.3,0.5-20.5,0.6-30.8,0.8
					c-11,0.2-21.9,0.2-32.9-0.2c-5.4-0.2-10.8-0.4-16.1-0.8C136.4,892.7,136.4,897.7,139.6,897.9L139.6,897.9z"/>
			</g>
		</g>
		<g>
			<g>
				<path d="M302.8,511.8c17.2,7.1,33.9,15.3,49.7,25c15.1,9.2,29.5,19.7,41.8,32.4c23.8,24.6,39.2,58,40.2,92.3
					c0.5,17.9-2,35.8-2.5,53.7c-0.5,18,3.8,35.5,6.8,53.1c3.3,19.4,3,39,1.5,58.6c-0.8,10.3-2,20.5-3.3,30.8
					c-1.1,9.2-2.1,18.5-4,27.6c-1.7,8.2-4.1,16.5-8.1,23.9c-3.7,6.8-8.8,12.6-14.9,17.2c-12.4,9.5-27.7,15-42.8,18.3
					c-3.7,0.8-7.4,1.5-11.1,2c-3.2,0.5-1.8,5.3,1.3,4.8c15.8-2.3,31.7-6.9,45.7-14.7c6.8-3.8,13.2-8.5,18.5-14.3
					c5.6-6.2,9.5-13.6,12.3-21.5c2.9-8.2,4.7-16.7,5.9-25.3c1.4-10.1,2.6-20.3,3.8-30.5c2.3-20.8,3.9-41.9,2.2-62.8
					c-1.5-18.2-6.8-35.9-8.3-54.2c-1.6-18.1,1.6-36.3,2.1-54.5c0.5-18.1-1.6-35.8-7.5-52.9c-5.8-16.6-14.5-32-25.5-45.7
					c-11.3-13.9-25.1-25.4-39.8-35.4c-15.8-10.7-32.7-19.7-50-27.5c-4.1-1.9-8.3-3.6-12.5-5.4C301.1,505.8,299.8,510.6,302.8,511.8
					L302.8,511.8z"/>
			</g>
		</g>
		<g>
			<g>
				<path d="M64,790.6c16.2,2.9,32.1-1.8,47.8-5.3c13.7-3.1,28.7-5.3,41.8,1.1c6,2.9,11.1,7.4,14.1,13.5c0.6,1.2,2.3,1.5,3.4,0.9
					c1.2-0.7,1.5-2.2,0.9-3.4c-5.7-11.8-18.6-18.1-31.1-19.7c-16.5-2-32.6,3.8-48.5,7c-8.9,1.8-18.1,2.8-27,1.2
					c-1.3-0.2-2.7,0.4-3.1,1.7C61.9,788.7,62.7,790.4,64,790.6L64,790.6z"/>
			</g>
		</g>
		<g>
			<g>
				<path d="M82.6,816.3c23.2-1.9,46.5-4.7,69.2-10.2c6.3-1.5,12.5-3.2,18.6-5.2c3.1-1,1.7-5.8-1.3-4.8c-21.8,7-44.5,10.9-67.2,13.4
					c-6.4,0.7-12.9,1.3-19.3,1.8c-1.3,0.1-2.5,1.1-2.5,2.5C80.1,815.1,81.3,816.4,82.6,816.3L82.6,816.3z"/>
			</g>
		</g>
		<g>
			<g>
				<path d="M99.1,833.9c28,0.1,56.1-4.2,82.8-12.8c26.1-8.3,50.5-20.9,73.5-35.5c12.7-8,25-16.7,36.7-26.1c1.1-0.8,0.9-2.7,0-3.5
					c-1-1-2.5-0.8-3.5,0c-20.6,16.6-43.1,31-66.5,43.1c-24.3,12.5-50.2,21.3-77.1,26c-15.1,2.6-30.5,3.9-45.9,3.9
					C95.9,828.9,95.9,833.9,99.1,833.9L99.1,833.9z"/>
			</g>
		</g>
		<g>
			<g>
				<path d="M311.1,740.3c16-14.6,31.7-29.6,47.1-44.8c15.6-15.4,31-31,46-46.9c8.3-8.8,16.5-17.6,24.7-26.5
					c2.2-2.4-1.4-5.9-3.5-3.5c-14.6,16-29.5,31.8-44.7,47.2c-15.3,15.6-30.9,31-46.7,46.2c-8.7,8.3-17.5,16.6-26.4,24.7
					C305.2,738.9,308.7,742.5,311.1,740.3L311.1,740.3z"/>
			</g>
		</g>
		<g>
			<g>
				<path d="M306.4,511.2c19.3-13.8,41.3-23.6,64.4-29c11.6-2.7,23.4-4.2,35.3-4.5c10.6-0.3,21.2,0.4,31.4,3
					c9.7,2.5,19.2,6.7,26.7,13.6c7.9,7.3,12.8,17,14.9,27.4c2.1,10.7,1.2,21.8-2.1,32.1c-3.4,10.5-9.4,20-16.6,28.2
					c-6.3,7.2-13.1,14-19.8,20.9c-4.8,5-9.6,9.9-14.4,14.8c-0.2,0.3-0.5,0.5-0.7,0.8c-2.3,2.3,1.3,5.8,3.5,3.5
					c10.6-10.7,21.1-21.5,31.3-32.5c7.6-8.2,14.4-17.1,18.9-27.5c4.6-10.6,6.8-22.2,5.9-33.8c-0.9-11.4-4.7-22.6-11.8-31.7
					c-6.6-8.5-15.9-14.4-26-18.2c-10.2-3.8-21.1-5.4-31.9-5.8c-12-0.4-24.2,0.6-36,2.7c-24,4.2-47.3,13.2-67.8,26.4
					c-2.5,1.6-5.1,3.3-7.5,5.1c-1.1,0.8-1.6,2.2-0.9,3.4C303.7,511.4,305.3,512,306.4,511.2L306.4,511.2z"/>
			</g>
		</g>
		<g>
			<g>
				<path d="M433.9,739.8c3.4,6.8,6.8,13.5,10.2,20.3c1.8,3.5,3.6,7,5.3,10.6c1.5,3,2.9,6.4,1.5,9.7c-1.4,3.3-4.5,5.7-7.1,7.9
					c-1,0.9-0.9,2.6,0,3.5c1,1,2.5,0.9,3.5,0c2.8-2.3,5.6-4.7,7.4-7.9c2.1-3.6,2.3-7.6,0.9-11.5c-1.4-4.1-3.7-7.9-5.6-11.7
					c-1.8-3.5-3.5-7.1-5.3-10.6c-2.1-4.3-4.3-8.5-6.4-12.8C436.8,734.4,432.5,736.9,433.9,739.8L433.9,739.8z"/>
			</g>
		</g>
	</g>
</g>
<g id="ПЛЕЙСБОЙ">
	<path class="st2" d="M1153.6,409.3c1.8-1,3.5-2.2,5.5-2.8c2-0.6,4.3-0.4,5.8,1c1.7,1.7,1.5,4.6,0.7,6.9c-0.8,2.3-2.1,4.5-2.2,6.9
		c-0.1,2.4,1.6,5.2,4,5c1.1-0.1,2-0.7,2.9-1.4c2.6-2,4.9-4.5,6.7-7.4c3.6,3,7.2,6,10.8,9c1,0.8,2,1.7,2.3,3c0.3,1.4-0.3,2.8-1,4.1
		c-3.6,6.4-8.3,12.2-13.8,17.1c1.1-2.9-0.4-6.2-2.8-8.1s-5.5-2.6-8.6-3c-5.8-0.8-11.8-0.7-17.5,0.4c-0.6-2.1-2.6-3.4-4.6-4
		s-4.2-0.9-6.2-1.7c-0.7-0.3-1.4-0.8-1.7-1.5c-0.3-0.7-0.1-1.5,0-2.3c1.2-4.7,2.7-12.4,6-16.1
		C1142.9,411.3,1149.6,411.6,1153.6,409.3z"/>
	<path class="st2" d="M1143.9,422.4c-15.8-5.7-30.8-13.5-44.5-23.1c-0.9-0.6-1.8-1.3-2.2-2.3c-0.6-1.4,0.1-3,0.7-4.4
		c5.4-13,5.5-27.8,2.6-41.5s-8.7-26.8-14.9-39.4c-5.8-12-12.2-24.1-22-33c0.8,0.1,1.6,0.2,2.3,0.2c2.9,0.3,5.8,0.6,8.6,0.3
		c5.9-0.7,11.4-4.4,14.4-9.5c3-5.2,3.3-11.7,1-17.2c-0.4-0.9-0.8-1.9-0.2-2.7c1.3,0.5,2.9-0.3,3.7-1.5c0.8-1.2,1-2.7,1.1-4.2
		c0.9-10.4,0.6-20.8-0.9-31.1c-0.3-2.2-0.7-4.5-1.6-6.6c-0.9-2.2-2.3-4.2-3.7-6.2c-3.2-4.5-6.5-9-10.9-12.4
		c-10.5-8.2-25.8-8.4-38.1-3.2c-6.6,2.8-15.6,6.5-21,11.1c-5.1,4.4-6.4,13.6-5.4,19.9c1.1,7.3,5.4,14.1,11.6,18.2
		c1.6,1.1,3.4,2.1,4,3.9c0.3,1,0.1,2,0,2.9c-1.1,6.4-3.2,12.6-6.2,18.3c-0.8,1.6-1.8,3.3-1.7,5.1c-5.7,1-11.2,4.7-16.1,7.3
		c-7.7,3.9-15.5,7.9-23.2,11.8c-1,0.5-2.1,1.1-2.8,2c-0.9,1.2-1.1,2.8-1.3,4.2c-5.9,57.6-11.9,115.3-17.8,172.9
		c8.5,4.3,12.7,14.1,14,23.5c0.3,2.2,0.5,4.5,0.6,6.7c-1.3-0.2-2.5,0-3.1,0.8c-1.4,1.7-0.8,8.3-0.9,10.6c-0.3,3.5-0.5,7-0.7,10.4
		c-0.7,14.1-1,28.2-0.6,42.3c0.2,6.8,0.5,13.7,0.5,20.5c0.3,40.5-8.2,81-4.4,121.3c2.7,0.7,5.5,1.3,8.3,1.9
		c-1.5,0.9-2.7,2.1-3.5,3.5c-2.1,4-0.8,10.3-0.6,14.6c0.2,6.6,0.4,13.2,0.5,19.8c0,0.8,0,1.7-0.2,2.5c-0.4,1-1.1,1.8-1.8,2.6
		c-3.8,4.5-4.7,10.6-5.6,16.4c-0.1,0.8-0.2,1.9,0.6,2.3c0.3,0.2,0.7,0.2,1.1,0.2c13.1,0.8,26.3,0.1,39.3-2.2
		c1.8-0.3,3.8-0.9,4.5-2.5c0.7-1.5-0.2-3.2-0.9-4.7c-1.6-3-3.2-5.9-4.8-8.9c-0.6-1-1.1-2.1-1.1-3.3c0.1-1,0.7-2,1.1-2.9
		c0.9-2.1,0.9-4.5,0.9-6.8c-0.1-7.5-0.2-14.9-0.5-22.4c-0.1-2.6-0.3-5.4-1.7-7.4c2.5-0.5,4.9-1.3,7.2-2.4
		c1.1-18.4,3.5-36.6,7.1-54.7c1.5-7.7,3.3-15.4,4.2-23.2c1-8,1.1-16,1.8-24c1.3-15.1,4.5-30,7.3-44.9c0.8,0.2,1.6,0.3,2.5,0.3
		c0.1,0.7,0.1,1.3,0.2,2c3.1,27.1,6.1,54.1,9.2,81.2c1,8.5,1.9,17,2.2,25.6c0.4,13.5-1,27.5,4,40.1c2.9,0.5,5.8,0.9,8.7,1.4
		c-2.5,1.9-3.6,4.1-3.8,8.4c-0.4,14.8-0.2,29.6,0.6,44.3c23.2,6,47.4,12.1,70.7,6.7c2.7-4.3,1.6-10.2-1.5-14.2
		c-3.1-4-7.8-6.4-12.5-8.4c-7.9-3.3-16.3-5.5-24.9-6.5c0.1-9.6-0.4-19.3-1.6-28.9c0-0.2,0-0.3-0.1-0.5c1.1-0.5,2.2-1.2,2.7-2.4
		c0.3-0.7,0.3-1.5,0.3-2.3c0.1-20.4-0.1-40.8-0.8-61.2c-0.2-6.3-0.4-12.6-1.3-18.9c-1-7.7-2.9-15.3-3.9-23c-0.7-5-1-10.1-1.3-15.2
		c-0.9-15-1.8-30-2.7-45c-0.3-4.9-0.3-7.4-2.2-9.2c0.2-0.2,0.4-0.3,0.6-0.6c0.7-1.1,0.5-2.5,0.2-3.8c-2.6-12.4-3.8-25.1-3.8-37.8
		c0-2.5,0.1-5.1,1.5-7.1c2.1-3.1,6.4-3.8,9.6-5.8c5.9-3.8,7.3-11.8,7.3-18.8c0-7.6-0.9-15.2-2.7-22.6c14.3,11.5,31.9,18.8,50.2,20.8
		C1138.2,441.4,1141,431.9,1143.9,422.4z"/>
	<g id="Слой_7">
		<g>
			<g>
				<path d="M1043,312.6c8.7,19.1,19.6,37.3,33,53.4c13,15.5,28.4,29,45.8,39.4c10.1,6,20.9,10.9,32.1,14.8c1.3,0.4,2.7-0.5,3.1-1.7
					c0.4-1.4-0.5-2.6-1.7-3.1c-18.9-6.5-36.7-16.4-52.1-29.2c-15.4-12.8-28.5-28.2-39.2-45.1c-6.3-9.9-11.8-20.2-16.6-30.9
					c-0.6-1.2-2.3-1.5-3.4-0.9C1042.6,309.9,1042.4,311.3,1043,312.6L1043,312.6z"/>
			</g>
		</g>
		<g>
			<g>
				<path d="M997.6,353.1c15.1,17.6,32.7,33.1,51.5,46.6c19.2,13.8,39.9,25.6,61.5,35.2c11.9,5.3,24.1,9.9,36.6,13.7
					c3.1,0.9,4.4-3.9,1.3-4.8c-22-6.7-43.2-15.9-63.3-27c-20.3-11.3-39.6-24.6-57.1-39.9c-9.6-8.4-18.7-17.5-27-27.2
					c-0.9-1-2.6-0.9-3.5,0C996.6,350.6,996.7,352.1,997.6,353.1L997.6,353.1z"/>
			</g>
		</g>
		<g>
			<g>
				<path d="M1152.3,417.7c-2.3,9.2-4.5,18.5-6.8,27.7c-0.8,3.1,4.1,4.5,4.8,1.3c2.3-9.2,4.5-18.5,6.8-27.7
					C1157.9,416,1153.1,414.6,1152.3,417.7L1152.3,417.7z"/>
			</g>
		</g>
		<g>
			<g>
				<path d="M980.7,330.6c-2.1,16.6-3.8,33.3-5.3,50c-1.6,16.8-3,33.5-4.7,50.3c-1,9.4-2,18.7-3.2,28.1c-0.2,1.3,1.3,2.5,2.5,2.5
					c1.5,0,2.3-1.2,2.5-2.5c2.1-16.6,3.8-33.3,5.3-50c1.6-16.8,3-33.5,4.7-50.3c1-9.4,2-18.7,3.2-28.1c0.2-1.3-1.3-2.5-2.5-2.5
					C981.7,328.1,980.9,329.2,980.7,330.6L980.7,330.6z"/>
			</g>
		</g>
		<g>
			<g>
				<path d="M968.2,460.7c12.9,11.2,29.2,18.9,46.2,21.2c4.8,0.7,9.6,0.9,14.5,0.6c1.3-0.1,2.5-1.1,2.5-2.5c0-1.3-1.1-2.6-2.5-2.5
					c-16.2,1.1-32.5-4-46.2-12.4c-3.8-2.4-7.5-5-10.9-7.9c-1-0.9-2.5-1-3.5,0C967.3,458.1,967.1,459.8,968.2,460.7L968.2,460.7z"/>
			</g>
		</g>
		<g>
			<g>
				<path d="M1039.2,390.7c-3.6,23.4-6.7,46.9-10.1,70.4c-0.9,6.1-1.8,12.1-2.7,18.2c-0.2,1.3,0.3,2.7,1.7,3.1
					c1.2,0.3,2.9-0.4,3.1-1.7c3.6-23.4,6.7-46.9,10.1-70.4c0.9-6.1,1.8-12.1,2.7-18.2c0.2-1.3-0.3-2.7-1.7-3.1
					C1041.1,388.7,1039.4,389.4,1039.2,390.7L1039.2,390.7z"/>
			</g>
		</g>
		<g>
			<g>
				<path d="M1056.1,405.5c1.9,18.6,3.9,37.2,5.8,55.8c0.5,5.3,1.1,10.5,1.6,15.8c0.1,1.3,1,2.5,2.5,2.5c1.2,0,2.6-1.1,2.5-2.5
					c-1.9-18.6-3.9-37.2-5.8-55.8c-0.5-5.3-1.1-10.5-1.6-15.8c-0.1-1.3-1-2.5-2.5-2.5C1057.4,403,1056,404.2,1056.1,405.5
					L1056.1,405.5z"/>
			</g>
		</g>
		<g>
			<g>
				<path d="M1066.7,479.6c6.4-1.2,12.5-3.6,18.4-6.4c5.8-2.7,11.6-6,16.3-10.5c2.3-2.2-1.2-5.8-3.5-3.5c-4.4,4.1-9.8,7.1-15.3,9.7
					c-5.5,2.6-11.2,4.7-17.2,5.9c-1.3,0.3-2.1,1.8-1.7,3.1C1064,479.2,1065.4,479.9,1066.7,479.6L1066.7,479.6z"/>
			</g>
		</g>
		<g>
			<g>
				<path d="M989.5,283.9c13.9-7.7,27.9-15.4,41.8-23.1c2.8-1.6,0.3-5.9-2.5-4.3c-13.9,7.7-27.9,15.4-41.8,23.1
					C984.1,281.1,986.7,285.5,989.5,283.9L989.5,283.9z"/>
			</g>
		</g>
		<g>
			<g>
				<path d="M985,281.8c-0.8,14.8-2.4,29.5-3.9,44.2c-0.2,1.5-0.3,3-0.5,4.5c-0.1,1.3,1.2,2.5,2.5,2.5c1.5,0,2.4-1.2,2.5-2.5
					c1.3-12.5,2.5-24.9,3.5-37.4c0.3-3.8,0.6-7.6,0.8-11.4C990.2,278.6,985.2,278.6,985,281.8L985,281.8z"/>
			</g>
		</g>
		<g>
			<g>
				<path d="M1072.1,275.7c3.6,3.1,7.2,6.3,10.7,9.4c0.5,0.4,1,0.9,1.5,1.3c1,0.9,2.6,1,3.5,0c0.9-0.9,1-2.6,0-3.5
					c-3.6-3.1-7.2-6.3-10.7-9.4c-0.5-0.4-1-0.9-1.5-1.3c-1-0.9-2.6-1-3.5,0C1071.2,273.1,1071.1,274.8,1072.1,275.7L1072.1,275.7z"
					/>
			</g>
		</g>
		<g>
			<g>
				<path d="M1083.6,284.7c-0.1,12.5,0.8,25.1,1.9,37.6c1.2,13.6,2.8,27.2,4.6,40.7c0.9,6.8,1.9,13.5,2.9,20.3
					c0.2,1.3,1.9,2.1,3.1,1.7c1.4-0.4,2-1.7,1.7-3.1c-1.9-12.3-3.5-24.6-5-36.9c-1.5-13.4-2.9-26.8-3.6-40.2
					c-0.4-6.7-0.6-13.4-0.6-20.2C1088.6,281.5,1083.6,281.5,1083.6,284.7L1083.6,284.7z"/>
			</g>
		</g>
		<g>
			<g>
				<path d="M1093,427.9c1.4,11,2.7,22.1,4.1,33.1c0.2,1.3,1,2.5,2.5,2.5c1.2,0,2.7-1.2,2.5-2.5c-1.4-11-2.7-22.1-4.1-33.1
					c-0.2-1.3-1-2.5-2.5-2.5C1094.3,425.4,1092.9,426.5,1093,427.9L1093,427.9z"/>
			</g>
		</g>
		<g>
			<g>
				<path d="M1084,286c4.7,10.7,9.4,21.4,13.8,32.2c3,7.4,5.8,14.8,8.1,22.4c0.8,2.9,1.6,5.7,2.2,8.7c0.3,1.3,0.5,2.7,0.7,4
					c0.1,0.3,0.1,0.7,0.1,1c-0.1-0.7,0,0.2,0.1,0.4c0.1,0.7,0.1,1.3,0.2,2c0.5,4.9,0.3,9.9-0.2,14.8c-0.1,0.7-0.2,1.4-0.2,2.1
					c0,0.2-0.2,1.3-0.1,0.6c-0.1,0.4-0.1,0.8-0.2,1.1c-0.2,1.6-0.5,3.2-0.7,4.7c-0.6,3.6-1.3,7.2-1.9,10.7c-0.2,1.3,0.4,2.7,1.7,3.1
					c1.2,0.3,2.8-0.4,3.1-1.7c2-11.1,4.4-22.4,3.7-33.7c-0.9-13.4-5.6-26.2-10.5-38.5c-4.9-12.3-10.2-24.4-15.6-36.4
					c-0.5-1.2-2.3-1.5-3.4-0.9C1083.6,283.3,1083.4,284.7,1084,286L1084,286z"/>
			</g>
		</g>
		<g>
			<g>
				<path d="M1034.9,449.2c8.3,4.2,18.3,4.8,27,1.3c1.3-0.5,2.1-1.7,1.7-3.1c-0.3-1.2-1.8-2.3-3.1-1.7c-7.4,3-15.9,2.8-23.2-0.8
					C1034.5,443.4,1032,447.7,1034.9,449.2L1034.9,449.2z"/>
			</g>
		</g>
		<g>
			<g>
				<path d="M1031.8,463.4c10.6,3.1,22.2,4.5,32.7,0.2c1.2-0.5,2.1-1.7,1.7-3.1c-0.3-1.2-1.8-2.3-3.1-1.7c-9.7,4.1-20.2,2.7-30-0.2
					C1030,457.7,1028.7,462.5,1031.8,463.4L1031.8,463.4z"/>
			</g>
		</g>
		<g>
			<g>
				<path d="M980.8,469.5c-1,29.2-2.1,58.5-3.1,87.7c-1,29.5-2.1,59-3.1,88.6c-0.6,16.4-1.2,32.7-1.7,49.1c-0.1,3.2,4.9,3.2,5,0
					c1-29.2,2.1-58.5,3.1-87.7c1-29.5,2.1-59,3.1-88.6c0.6-16.4,1.2-32.7,1.7-49.1C985.9,466.3,980.9,466.3,980.8,469.5L980.8,469.5
					z"/>
			</g>
		</g>
		<g>
			<g>
				<path d="M1042.5,499.2c-3.2,25.4-6.6,50.7-10,76c-3.4,25.4-6.9,50.8-10.2,76.1c-1.9,14.3-3.7,28.6-5.6,42.8
					c-0.2,1.3,1.3,2.5,2.5,2.5c1.5,0,2.3-1.2,2.5-2.5c3.2-25.4,6.6-50.7,10-76c3.4-25.4,6.9-50.8,10.2-76.1
					c1.9-14.3,3.7-28.6,5.6-42.8c0.2-1.3-1.3-2.5-2.5-2.5C1043.5,496.7,1042.7,497.8,1042.5,499.2L1042.5,499.2z"/>
			</g>
		</g>
		<g>
			<g>
				<path d="M1038.2,532.8c2.7,21.6,4.7,43.2,6.4,64.8c1.6,19.9,2.9,39.8,4.6,59.7c1.1,12.8,2.4,25.6,3.8,38.4
					c0.1,1.3,1,2.5,2.5,2.5c1.2,0,2.6-1.1,2.5-2.5c-2.4-21.7-4.3-43.3-5.9-65.1c-1.5-19.9-2.9-39.7-4.8-59.6
					c-1.2-12.8-2.6-25.5-4.1-38.2c-0.2-1.3-1-2.5-2.5-2.5C1039.5,530.3,1038,531.4,1038.2,532.8L1038.2,532.8z"/>
			</g>
		</g>
		<g>
			<g>
				<path d="M1079.8,472.5c1.6,23.1,3.3,46.2,4.9,69.3c1.4,20,2.8,40.1,4.1,60.1c1.1,15.8,2.2,31.7,3.2,47.5
					c0.7,10.7,1.4,21.3,2.1,32c0.3,4.4,0.5,8.9,0.9,13.3c0,0.1,0,0.1,0,0.2c0.1,1.3,1.1,2.5,2.5,2.5c1.3,0,2.6-1.1,2.5-2.5
					c-0.2-3.6-0.5-7.1-0.7-10.7c-0.7-10-1.3-20-2-30c-1-15.3-2.1-30.6-3.1-45.8c-1.3-19.5-2.7-39-4-58.6
					c-1.6-22.8-3.2-45.5-4.8-68.3c-0.2-3-0.4-6-0.6-8.9c-0.1-1.3-1.1-2.5-2.5-2.5C1081,470,1079.7,471.2,1079.8,472.5L1079.8,472.5z
					"/>
			</g>
		</g>
		<g>
			<g>
				<path d="M975.4,698c7.4,1.2,14.8,1.9,22.3,2c7.4,0.2,14.9-0.1,22.2-1.6c1.3-0.3,2.1-1.8,1.7-3.1c-0.4-1.4-1.7-2-3.1-1.7
					c-6.8,1.4-13.9,1.6-20.9,1.4c-7-0.2-14-0.7-21-1.8c-1.3-0.2-2.7,0.3-3.1,1.7C973.3,696.2,974.1,697.8,975.4,698L975.4,698z"/>
			</g>
		</g>
		<g>
			<g>
				<path d="M1053.8,697.4c1.5,1.8,4,2.7,6.2,3.3c3.1,0.8,6.3,1.1,9.4,1.3c7,0.3,14.2-0.2,21.1-1.7c2.9-0.6,6-1.5,8.4-3.2
					c1.1-0.8,1.6-2.2,0.9-3.4c-0.6-1.1-2.3-1.7-3.4-0.9c-0.4,0.3-0.8,0.5-1.2,0.7c-0.2,0.1-0.5,0.2-0.7,0.4
					c-0.1,0.1-0.2,0.1-0.4,0.2c0.3-0.1,0.2-0.1-0.1,0c-1.2,0.5-2.5,0.9-3.8,1.2c-3.1,0.8-5.9,1.2-8.9,1.5c-3.4,0.3-6.7,0.5-10.1,0.4
					c-1.6,0-3.2-0.1-4.8-0.3c-0.3,0-0.7-0.1-1-0.1c-0.1,0-0.6-0.1-0.3,0c0.3,0-0.5-0.1-0.4-0.1c-0.7-0.1-1.4-0.2-2.1-0.4
					c-0.7-0.1-1.3-0.3-2-0.5c-0.3-0.1-0.6-0.2-0.8-0.3c-0.2-0.1-1-0.4-0.4-0.2c-0.5-0.2-0.9-0.5-1.4-0.8c-0.5-0.3,0.2,0.3-0.1-0.1
					c-0.1-0.2-0.3-0.3-0.5-0.5c-0.8-1.1-2.7-0.9-3.5,0C1052.7,694.9,1052.9,696.3,1053.8,697.4L1053.8,697.4z"/>
			</g>
		</g>
		<g>
			<g>
				<path d="M1028.4,260.6c9.8,9.8,18.1,21,24.7,33.2c1.5,2.8,5.9,0.3,4.3-2.5c-6.8-12.6-15.4-24.1-25.5-34.2
					C1029.6,254.8,1026.1,258.3,1028.4,260.6L1028.4,260.6z"/>
			</g>
		</g>
		<g>
			<g>
				<path d="M1069.4,272.2c-4.8,6.9-11.5,12.2-16.3,19.2c-0.8,1.1-0.2,2.8,0.9,3.4c1.2,0.7,2.6,0.2,3.4-0.9
					c4.8-6.9,11.5-12.2,16.3-19.2c0.8-1.1,0.2-2.8-0.9-3.4C1071.6,270.5,1070.2,271,1069.4,272.2L1069.4,272.2z"/>
			</g>
		</g>
		<g>
			<g>
				<path d="M1039.9,242.9c3.2,0,3.2-5,0-5C1036.7,237.9,1036.7,242.9,1039.9,242.9L1039.9,242.9z"/>
			</g>
		</g>
		<g>
			<g>
				<path d="M1030.1,261.1c3.2,0,3.2-5,0-5C1026.8,256.1,1026.8,261.1,1030.1,261.1L1030.1,261.1z"/>
			</g>
		</g>
		<g>
			<g>
				<path d="M1066.1,269.8c3.2,0,3.2-5,0-5C1062.9,264.8,1062.9,269.8,1066.1,269.8L1066.1,269.8z"/>
			</g>
		</g>
		<g>
			<g>
				<path d="M978.7,698.4c-1.3,12.5-2,25-1.9,37.5c0,3.2,5,3.2,5,0c-0.1-12.5,0.6-25.1,1.9-37.5c0.1-1.3-1.3-2.5-2.5-2.5
					C979.7,695.9,978.9,697.1,978.7,698.4L978.7,698.4z"/>
			</g>
		</g>
		<g>
			<g>
				<path d="M1010.6,698.4c-0.8,12.5-1.1,25-0.8,37.5c0.1,3.2,5.1,3.2,5,0c-0.3-12.5,0-25,0.8-37.5c0.1-1.3-1.2-2.5-2.5-2.5
					C1011.7,695.9,1010.7,697.1,1010.6,698.4L1010.6,698.4z"/>
			</g>
		</g>
		<g>
			<g>
				<path d="M975.1,756.7c-1.1-9,3.6-18.1,11.9-21.9c8.6-3.9,19.2-1.3,24.9,6.2c3.1,4.1,4.7,9.1,4.4,14.2c-0.2,3.2,4.8,3.2,5,0
					c0.6-11.3-6.6-22.2-17.3-25.8c-10.9-3.7-23.2,0.4-29.6,9.9c-3.4,5-5,11.4-4.3,17.4c0.2,1.3,1,2.5,2.5,2.5
					C973.9,759.2,975.3,758.1,975.1,756.7L975.1,756.7z"/>
			</g>
		</g>
		<g>
			<g>
				<path d="M972,759.1c15.2,4.8,32.6,3.6,47.5-1.5c1.3-0.4,2.1-1.7,1.7-3.1c-0.3-1.2-1.8-2.2-3.1-1.7c-14.1,4.9-30.5,6.1-44.9,1.5
					C970.2,753.3,968.9,758.2,972,759.1L972,759.1z"/>
			</g>
		</g>
		<g>
			<g>
				<path d="M1059.1,699.5c0.1,5.8,0.2,11.6,0.3,17.4c0.2,9.3,0.3,18.5,0.5,27.8c0,2.1,0.1,4.2,0.1,6.4c0.1,3.2,5.1,3.2,5,0
					c-0.1-5.8-0.2-11.6-0.3-17.4c-0.2-9.3-0.3-18.5-0.5-27.8c0-2.1-0.1-4.2-0.1-6.4C1064.1,696.3,1059.1,696.3,1059.1,699.5
					L1059.1,699.5z"/>
			</g>
		</g>
		<g>
			<g>
				<path d="M1089.7,697.2c0.7,9.3,1.4,18.7,2.1,28c0.1,1.3,0.2,2.6,0.3,3.9c0.1,1.3,1.1,2.5,2.5,2.5c1.3,0,2.6-1.1,2.5-2.5
					c-0.7-9.3-1.4-18.7-2.1-28c-0.1-1.3-0.2-2.6-0.3-3.9c-0.1-1.3-1.1-2.5-2.5-2.5C1090.9,694.7,1089.6,695.9,1089.7,697.2
					L1089.7,697.2z"/>
			</g>
		</g>
		<g>
			<g>
				<path d="M1087.3,731.6c9.3-0.8,18.7,0.8,27.3,4.3c6.4,2.6,13.5,6.8,16.7,12.8c0.5,0.9,0.5,0.9,0.8,1.8c0.1,0.4,0.2,0.7,0.3,1.1
					c0,0.1,0.1,0.3,0.1,0.4c0,0.2,0,0.1,0-0.1c0,0.1,0,0.2,0,0.3c0,0.4,0,0.7,0,1.1c0,0.2,0,0.3,0,0.4c0,0.1-0.1,0.8,0,0.5
					c0-0.3,0,0.2,0,0.2c-0.1,0.2-0.1,0.4-0.2,0.7c-0.1,0.4-0.3,0.8-0.4,1.2c-0.5,1.3,0.5,2.7,1.7,3.1c1.4,0.4,2.6-0.5,3.1-1.7
					c2.7-6.9-1.5-13.9-6.6-18.4c-7-6.1-16.1-9.8-25.1-11.7c-5.8-1.2-11.8-1.6-17.7-1.2c-1.3,0.1-2.5,1.1-2.5,2.5
					C1084.8,730.4,1085.9,731.7,1087.3,731.6L1087.3,731.6z"/>
			</g>
		</g>
		<g>
			<g>
				<path d="M1061.9,753.5c18.5,4.5,37.6,6.1,56.6,6.3c5.3,0.1,10.5,0,15.8-0.2c3.2-0.1,3.2-5.1,0-5c-18.6,0.6-37.4-0.1-55.8-3
					c-5.1-0.8-10.2-1.8-15.2-3C1060.1,747.9,1058.8,752.8,1061.9,753.5L1061.9,753.5z"/>
			</g>
		</g>
		<g>
			<g>
				<path d="M1042.4,241.1c0.6-2.9,1-5.8-0.2-8.6c-1.2-2.7-3.7-4.6-6-6.3c-2.2-1.6-4.3-3.2-5.8-5.4c-1.5-2.2-2.5-4.7-3-7.3
					c-2.2-10.9,4.4-21.1,13.2-27c10.1-6.8,23.1-9.5,35-6.5c10.6,2.7,19.8,10.1,24.3,20.1c3,6.6,3.2,14.1,3.1,21.2
					c-0.1,4-0.2,8.1-0.3,12.1c-0.1,2.1-0.1,4.1-0.2,6.2c0,0.9,0.1,1.9-0.1,2.8c0,0.1-0.2,0.5-0.2,0.6c0,0.1,1-0.8,1.5,0.2
					c-1.5-2.8-5.8-0.3-4.3,2.5c0.9,1.6,2.7,2.2,4.4,1.8c1.9-0.4,3.1-2.2,3.4-4c0.3-1.9,0.2-3.9,0.3-5.8c0.1-2,0.1-4,0.2-6
					c0.2-7.7,0.7-15.6-0.4-23.2c-1.8-12.7-9.9-23.7-21.2-29.7c-12.5-6.6-27.6-6.3-40.4-0.8c-11.5,5-21.9,14.9-23.5,27.8
					c-0.9,6.9,0.9,14,5.3,19.4c2.3,2.8,5.6,4.5,8.2,7c1.1,1,2,2,2.2,3.3c0.2,1.2-0.1,2.9-0.4,4.3
					C1036.8,242.9,1041.7,244.2,1042.4,241.1L1042.4,241.1z"/>
			</g>
		</g>
		<g>
			<g>
				<path d="M1097.6,248.8c3.5,5.4,2.9,13.1-1.3,18c-4.2,5-11.3,7-17.6,5.5c-6.5-1.5-11.8-6.5-14.3-12.6c-2.9-6.9-2.1-14.7-1.5-22
					c0.7-8.6,1.3-17.5-2.9-25.3c-1.5-2.8-5.8-0.3-4.3,2.5c3.8,7.2,2.8,15.6,2.1,23.4c-0.7,8.3-1.1,16.8,2.5,24.5
					c3.3,6.9,9.8,12.6,17.4,14.3c7.6,1.7,16.2-0.5,21.7-6.3c6.1-6.5,7.4-17,2.6-24.6C1100.2,243.6,1095.9,246.1,1097.6,248.8
					L1097.6,248.8z"/>
			</g>
		</g>
		<g>
			<g>
				<path d="M1064.3,211.3c-0.2,9.1,1.3,18.3,2.9,27.3c0.4,2.2,1,4.5,2.6,6.1c1.6,1.6,3.9,2.4,6.1,2.3c2.4,0,4.6-0.9,6.7-1.9
					c2-1,3.9-2.2,6.1-2.6c4.2-0.8,8.5,1,11.1,4.3c0.9,1,2.6,0.9,3.5,0c1-1,0.9-2.5,0-3.5c-2.6-3.2-6.5-5.2-10.7-5.7
					c-2-0.3-4.1-0.2-6,0.3c-2.3,0.6-4.4,1.9-6.6,2.9c-1.5,0.8-3.3,1.5-5.1,1.2c-1.8-0.3-2.4-1.8-2.7-3.4c-0.9-4.1-1.4-8.3-1.9-12.4
					c-0.6-4.9-1.1-9.9-1-14.9C1069.4,208.1,1064.4,208.1,1064.3,211.3L1064.3,211.3z"/>
			</g>
		</g>
		<g>
			<g>
				<path d="M1059.6,211.9c-3.2-3.1-7.2-3.3-11.3-2.3c-3.7,0.9-7.2,3.8-8,7.6c-0.5,2.4,0.2,4.7,0.9,7c0.5,1.7,0.8,2.5,0.7,4.2
					c0,0.6,0.1-0.2,0,0.4c-0.1,0.4-0.1,0.7-0.2,1.1c-0.2,0.8-0.5,1.5-0.8,2.3c-0.7,1.8-1.5,3.6-2.3,5.3c-0.5,1.2-0.4,2.7,0.9,3.4
					c1.1,0.6,2.9,0.3,3.4-0.9c1.3-3,3-6.1,3.7-9.3c0.7-3,0.1-5.7-0.8-8.6c-0.4-1.4-0.9-3-0.3-4.5c0.5-1.2,1.6-2.1,2.8-2.7
					c2.4-1.1,5.8-1.4,7.9,0.6C1058.4,217.7,1061.9,214.2,1059.6,211.9L1059.6,211.9z"/>
			</g>
		</g>
		<g>
			<g>
				<path d="M1069.3,211.3c-0.4-6.7,3.1-13.3,9.1-16.5c5.9-3.1,13.7-2.1,18.7,2.2c1,0.9,2.5,1,3.5,0c0.9-0.9,1-2.7,0-3.5
					c-5.2-4.5-12.2-6.3-19-5c-6.6,1.2-12.3,5.9-15.2,11.9c-1.6,3.4-2.5,7.2-2.2,10.9C1064.5,214.5,1069.5,214.5,1069.3,211.3
					L1069.3,211.3z"/>
			</g>
		</g>
		<g>
			<g>
				<path d="M1080.8,218.8c3.7-0.9,7.5-1.8,11.3-2.6c0.5-0.1,1.1-0.2,1.7-0.3c0.5-0.1-0.7,0.1-0.2,0c0.1,0,0.2,0,0.3,0
					c0.2,0,0.4,0,0.6,0c0.4,0,1.3,0.2,0.2-0.1c0.5,0.1-0.2-0.1-0.3-0.2c0.3,0.2-0.5-0.4-0.4-0.3c0.2,0.2-0.5-0.7-0.3-0.4
					c0.6,1.2,2.3,1.6,3.4,0.9c1.2-0.8,1.5-2.2,0.9-3.4c-1.1-2.2-4.5-1.5-6.4-1.1c-4,0.7-8,1.7-12,2.7c-1.3,0.3-2.2,1.8-1.7,3.1
					C1078.1,218.4,1079.4,219.2,1080.8,218.8L1080.8,218.8z"/>
			</g>
		</g>
		<g>
			<g>
				<path d="M1052.6,292.3c0.8,14.3,1.5,28.6,2.3,42.9c0.2,3.2,5.2,3.2,5,0c-0.8-14.3-1.5-28.6-2.3-42.9
					C1057.5,289.1,1052.5,289.1,1052.6,292.3L1052.6,292.3z"/>
			</g>
		</g>
		<g>
			<g>
				<path d="M1037.5,239.8c-0.9,3.7-2.2,7.2-4,10.6c-0.8,1.5-1.6,2.9-2.5,4.3c-0.9,1.3-1.8,2.5-2.6,3.5c-0.9,1-1,2.5,0,3.5
					c0.9,0.9,2.7,1.1,3.5,0c4.9-6,8.5-13,10.4-20.6C1043.1,238,1038.3,236.6,1037.5,239.8L1037.5,239.8z"/>
			</g>
		</g>
		<g>
			<g>
				<path d="M1036.1,268.9c9.3,6.2,20.3,9.5,31.5,9.6c3.2,0,3.2-5,0-5c-10.3-0.1-20.4-3.2-29-8.9
					C1035.9,262.8,1033.4,267.2,1036.1,268.9L1036.1,268.9z"/>
			</g>
		</g>
		<g>
			<g>
				<path d="M1155.5,423c2.2-0.2,4.1-0.7,6-1.8c1.6-0.9,2.7-1.7,4.3-2c0.2-0.1,0.4-0.1,0.7-0.1c1.1-0.2-0.4,0,0.4-0.1
					c0.4,0,0.9-0.1,1.3-0.1c0.9-0.1,1.8-0.1,2.7,0c0.8,0.1,1.5,0.2,2.4,0.4c0.6,0.2,0.5,0.1,0.9,0.3c0.2,0.1,0.4,0.2,0.5,0.3
					c-0.3-0.2,0.2,0.2,0.2,0.2c2.3,2.3,5.8-1.3,3.5-3.5c-3-3-8.2-3.1-12.2-2.6c-2.2,0.3-4.3,1-6.2,2.1c-1.7,1-2.7,1.7-4.7,1.9
					c-1.3,0.1-2.5,1.1-2.5,2.5C1153,421.8,1154.1,423.1,1155.5,423L1155.5,423z"/>
			</g>
		</g>
		<g>
			<g>
				<path d="M1184.5,427.8c3.3,1.9,6,4.3,8.7,6.9c1.2,1.2,2.6,2.3,3.6,3.7c0.4,0.6,0.8,1.3,1,2c0,0.2,0.1,0.4,0.1,0.7
					c0-0.6-0.1,0.1-0.2,0.3c0.1-0.4-0.1,0.2-0.2,0.3c-0.2,0.3-0.3,0.6-0.5,0.8c-0.3,0.5-0.7,1.1-1.1,1.6c-0.6,0.8-1.4,1.7-2,2.5
					c-0.9,1.1-1.6,2.1-2.7,3.1c-1.6,1.4-3.3,2.8-4.9,4.3c-1.6,1.4-3.2,2.7-4.8,4.1c-1,0.9-0.9,2.6,0,3.5c1,1,2.5,0.9,3.5,0
					c1.5-1.2,2.9-2.5,4.4-3.8c1.8-1.6,3.7-3.1,5.4-4.7c0.8-0.7,1.5-1.5,2.2-2.4c0.1-0.1,0.5-0.7,0.3-0.4c-0.2,0.3,0.3-0.3,0.3-0.4
					c1.8-2.2,3.9-4.5,4.9-7.2c1.4-3.9-1.8-7.6-4.4-10.1c-3.5-3.3-6.9-6.7-11.2-9.1C1184.2,421.9,1181.7,426.2,1184.5,427.8
					L1184.5,427.8z"/>
			</g>
		</g>
		<g>
			<g>
				<path d="M1147.3,446.6c1.2,0.8,2.6,1.3,3.9,1.9c1.2,0.5,2.4,0.9,3.6,1.2c0.6,0.2,1.3,0.1,1.9-0.3c0.5-0.3,1-0.9,1.1-1.5
					c0.3-1.3-0.4-2.8-1.7-3.1c-1.3-0.3-2.5-0.8-3.8-1.3c0.2,0.1,0.4,0.2,0.6,0.3c-1.1-0.5-2.2-1-3.2-1.6c-1.1-0.7-2.8-0.3-3.4,0.9
					C1145.7,444.4,1146.1,445.9,1147.3,446.6L1147.3,446.6z"/>
			</g>
		</g>
		<g>
			<g>
				<path d="M1089.1,224.6c0.2,1,0.3,2,0.5,3c0.1,0.3,0.2,0.6,0.4,0.9c0.2,0.3,0.4,0.5,0.7,0.6c0.6,0.3,1.3,0.5,1.9,0.3
					c0.4-0.1,0.8-0.3,1.2-0.6c0.2-0.2,0.5-0.4,0.7-0.6c0.2-0.2,0.4-0.5,0.6-0.7c0.3-0.3,0.4-0.7,0.6-1.1c0.1-0.2,0.1-0.4,0.2-0.6
					c0.1-0.9,0.2-1.7-0.1-2.5c-0.1-0.4-0.3-0.8-0.5-1.1c-0.2-0.3-0.5-0.7-0.8-1c-0.2-0.2-0.5-0.4-0.8-0.5c-0.3-0.2-0.6-0.2-1-0.2
					c-0.6,0-1.3,0.3-1.8,0.7c-0.4,0.5-0.8,1.1-0.7,1.8c0,0.6,0.2,1.4,0.7,1.8c0.1,0.1,0.2,0.2,0.3,0.3c-0.1-0.2-0.3-0.3-0.4-0.5
					c0.1,0.1,0.2,0.3,0.3,0.5c-0.1-0.2-0.2-0.4-0.3-0.6c0.1,0.2,0.1,0.4,0.2,0.6c0-0.2-0.1-0.4-0.1-0.7c0,0.2,0,0.5,0,0.7
					c0-0.2,0.1-0.4,0.1-0.7c0,0.3-0.1,0.5-0.2,0.7c0.1-0.2,0.2-0.4,0.3-0.6c-0.1,0.2-0.2,0.4-0.3,0.5c0.1-0.2,0.3-0.3,0.4-0.5
					c-0.1,0.1-0.2,0.3-0.4,0.4c0.2-0.1,0.3-0.3,0.5-0.4c-0.1,0.1-0.3,0.2-0.4,0.3c0.2-0.1,0.4-0.2,0.6-0.3c0,0-0.1,0-0.1,0.1
					c1,0.6,2.1,1.2,3.1,1.7c-0.2-1-0.3-2-0.5-3c-0.1-0.3-0.2-0.6-0.4-0.9c-0.2-0.3-0.4-0.5-0.7-0.6c-0.5-0.3-1.3-0.4-1.9-0.3
					c-0.6,0.2-1.2,0.6-1.5,1.1c-0.1,0.2-0.2,0.4-0.3,0.6C1088.9,223.7,1088.9,224.1,1089.1,224.6L1089.1,224.6z"/>
			</g>
		</g>
	</g>
</g>
<g id="КРИЭЙТР">
	<path class="st3" d="M1178.6,449.1c-3.9-0.5-7.9-0.1-11.6,1c-0.1,3.2,1.8,6.3,4.3,8.3c2.5,2,5.6,3.2,8.7,4.2
		c2.7,0.9,5.4,1.6,8.1,2.2c0.5,0.1,1.1,0.2,1.6,0.2c0.8-0.1,1.5-0.7,2-1.3c1.7-2.3,0.8-5.9-1.2-7.9c-2.1-2.1-5-3-7.7-3.9
		c-2.4-0.7-4.7-1.5-7.1-2.2"/>
	<path class="st3" d="M1448.1,360.8c-0.4-14.1-1.4-28.9-8.8-41c-7.6-12.3-21.4-20.1-35.7-22.3c-1.6-0.2-3.3-0.4-4.7-1.2
		c-1.7-0.9-3-2.5-4.1-4.1c-2.3-3-4.5-6-6.8-9c-0.6-0.8-1.3-1.7-2.3-2c-1.1-0.3-2.2,0.2-3.3,0.6c-3.2,1.2-6.7,1.5-10.1,1.1
		c-0.5-0.1-1-0.2-1.6-0.4c0.7,0.1,1.4,0.2,2.1,0.2c9,0.1,16.4-6.7,23.5-12.2c0.8-0.6,1.6-1.2,2.6-1.5c0.9-0.2,1.8-0.2,2.6-0.5
		c2.1-0.7,3.2-3.2,3.3-5.4c0.1-2.2-0.4-4.5-0.2-6.7c0.1-0.7,0.2-1.5,0.7-2c0.5-0.5,1.2-0.7,1.9-1.1c3.4-1.6,4.7-5.8,5-9.5
		c0.5-4.8,0-9.7,0.9-14.4c0.8-4.4,2.9-8.7,3-13.2c0.1-3.6-1.1-7.2-3.4-10c-0.7-0.9-1.7-1.9-1.7-3.1c0-0.8,0.3-1.5,0.6-2.2
		c2.3-6,0-13.4-5.3-17.1c-4-2.7-9.1-3.3-13.1-6c-3-2-5.4-5.3-8.8-6.3c-1.8-0.5-3.7-0.5-5.5-0.1c-4,0.7-7.7,2.4-10.8,5
		c-0.5,0.4-1,0.8-1.6,1c-1.1,0.3-2.2-0.3-3.1-0.8c-4.1-2.1-8.9-3.5-13.4-2.5c-4.5,1-8.6,4.9-8.7,9.5c0,0.7,0,1.6-0.5,2.1
		c-0.4,0.3-0.9,0.3-1.4,0.4c-4.7,0.3-9.6,3.5-9.9,8.1c-0.2,3.2,1.7,6.8-0.1,9.4c-0.8,1.2-2.1,1.8-3.1,2.8c-2.3,2.1-3,5.5-2.5,8.5
		c0.5,3.1,2.1,5.8,3.9,8.3c1,1.4,2.1,2.9,2.3,4.7c0.1,1.1-0.2,2.3-0.4,3.4c-0.4,2.6-0.1,5.4,1.3,7.7c1.5,2.2,4.2,3.7,6.8,3.1
		c0.7-0.2,1.4-0.4,2-0.2c0.5,0.2,0.8,0.6,1.2,0.8c1.5,0.7,3-0.8,3.8-2.3c-0.1,1-0.3,4.4-0.4,5.4c-0.5,3.8,0.9,7.5,2.3,11
		c1.4,3.5,2.8,7,4.2,10.5c1.3,3.1,2.6,6.3,5,8.7c1.6,1.5,3.7,2.6,5.7,3.5c0.9,0.4,1.8,0.8,2.7,1.2c-0.3,0-0.5,0-0.8,0.1
		c-2.6,0.8-2.9,4.2-4.2,6.4c-1.6,2.9-3.9,5.4-6.6,7.2c-3.1,2.1-6.8,3.4-10,5.3c-12.9,7.5-18.1,23.1-26.3,35.6
		c-2.8,4.3-6.1,8.4-9.7,12c-0.6,0.6-1.3,1.3-1.9,1.9c-6.1,3.8-12,7.8-16.9,12.9c-3.2,3.3-6,7-9.3,10.3c-4.8,4.9-10.6,8.8-16.3,12.6
		c-20.8,10.4-37.8,28.3-58.5,39c-2.9-3.8-7.2-7.6-12.5-4.8c-4.5,2.4-6.2,8.4-4.7,13.3c1.3,1.8,4.2,1.3,6.1,0.2s3.9-2.8,6.1-2.6
		c1.6,0.1,3,1.1,4.2,2.1c4.3,3.2,9,7.2,9.3,12.5c6.7,4.5,15.6,1.6,23-1.6c33.4-14.5,65-33.2,93.8-55.5c-0.8,28.2-3.4,56.3-8,84.1
		c-0.3,1.6-0.5,3.3,0.4,4.6c0.5,0.7,1.4,1.2,2.2,1.6c0.7,0.4,1.5,0.7,2.2,1c-4.6,4.5-3,17.6-3.5,23.7c-1.4,19-2.8,38-4.2,57.1
		c-0.8,10.6-1.6,21.3-2.4,31.9c-0.8,10.1-1.5,20.2-2.3,30.3c-2.2,28.9-4.3,57.8-6.5,86.7c4.2,1,8.5,1.9,12.7,2.7
		c-1.7-0.1-3.1,0.1-4.2,0.5c-2.3,1-1.6,2.7-2.4,4.9c-0.8,2.5-2.4,4.6-4.3,6.4c-3.1,2.8-6.9,4.6-10.7,6.2c-7,3.1-14.1,6.1-21.5,8.5
		c-4,1.3-8.8,3.1-9.8,7.2c-0.5,2.1,0.2,4.3,0.9,6.4c0.6,1.8,1.4,3.9,3.1,4.7c1,0.5,2.2,0.5,3.3,0.5c15,0,30,0,45,0
		c5.7,0,11.4,0,17-1.2c0.8-0.2,1.6-0.4,2.2-1c0.5-0.6,0.6-1.5,0.6-2.3c0.5-7.1,1-14.2,0.8-21.3c-0.2-4.7-0.7-9.5-1.9-14.1
		c-0.2-0.6-0.4-1.3-0.9-1.7c-0.5-0.5-1.2-0.7-1.9-0.8c-1.2-0.3-2.9-0.7-4.8-1.2c5.2,0.8,10.5,1.5,15.7,2c1.3-10.4,2.6-20.8,3.9-31.1
		c1.1-9.1,2.3-18.1,3.4-27.2c4.7-37.5,9.3-75.1,14.7-112.5c2.3,17.3,2.6,34.2,2.2,51.7c-0.2,10.8,0.4,22.1-0.1,33
		c-0.6,13-0.2,26.1,0.3,39.1c0.6,16.1,1.2,32.1,1.7,48.2c2.5,0,5,0.1,7.4,0.2c-0.4,0.1-0.7,0.1-1.1,0.2c-4.3,1.1-3.8,5.1-4.5,9.1
		c-0.5,3-5.5,32.3-7.4,32.3c12.8,1.7,25.8,2.1,38.7,1.3c0.4,0,0.8-0.1,1.1-0.3c0.5-0.4,0.6-1.1,0.6-1.7c0.4-8.8,0.7-18-3.3-25.9
		c-1.1-2.2-2.6-4.4-2.9-6.8c-0.3-2.6,0.4-5.8-1.8-7.3c3.9,0.3,7.8,0.6,11.7,0.9c5.4-60.4,10.1-121,8.5-181.5
		c0.7,0.9,1.4,1.9,2.1,2.8c1.6,2.1,3.4,4.3,5.9,4.7c2.6,0.4,5.2-1.2,6.6-3.4c1.4-2.2,1.9-4.9,2.3-7.5c1.2-8.2,1.6-16.6,1.1-24.9
		c-0.1-1.5-0.1-3.1,0.9-4.2c0.9-1,2.5-1.1,3.6-1.9c1.7-1.2,2.1-3.6,2.3-5.7c0.5-4.6,0.9-9.3,1.4-13.9c2.3-25.2,3-50.5,2.2-75.8
		C1448.7,391.7,1448.6,376.2,1448.1,360.8z M1406.2,482.5c1.7-0.9,3.2-2.1,4.6-3.4c0.1,2.2,0.2,4.4,0.1,6.5
		C1409.4,484.4,1407.8,483.4,1406.2,482.5z"/>
	<g id="Слой_6">
		<g>
			<g>
				<path d="M1306.6,323.9c-10.3,14.6-22.3,27.9-35.5,39.9c-13.2,12-27.7,22.6-43,31.6c-8.6,5.1-17.6,9.7-26.8,13.8
					c-1.2,0.5-1.5,2.3-0.9,3.4c0.7,1.3,2.2,1.4,3.4,0.9c16.5-7.4,32.3-16.4,47-27c14.8-10.6,28.5-22.7,40.7-36.2
					c6.9-7.6,13.3-15.6,19.3-24c0.8-1.1,0.2-2.8-0.9-3.4C1308.8,322.3,1307.4,322.8,1306.6,323.9L1306.6,323.9z"/>
			</g>
		</g>
		<g>
			<g>
				<path d="M1314.4,382.5c-12,10.3-24.7,19.6-38.1,28c-13.5,8.4-27.6,15.7-42.1,21.9c-8.1,3.5-16.5,6.6-24.9,9.3
					c-3,1-1.7,5.8,1.3,4.8c15.3-5,30.3-11.2,44.7-18.5c14.3-7.3,28.1-15.7,41.1-25c7.4-5.3,14.6-11,21.5-17c1-0.9,0.9-2.6,0-3.5
					C1316.9,381.5,1315.4,381.6,1314.4,382.5L1314.4,382.5z"/>
			</g>
		</g>
		<g>
			<g>
				<path d="M1200.3,412.5c2.8,10.5,4.1,21.4,6.7,32c0.8,3.1,5.6,1.8,4.8-1.3c-2.6-10.6-3.9-21.5-6.7-32
					C1204.2,408,1199.4,409.3,1200.3,412.5L1200.3,412.5z"/>
			</g>
		</g>
		<g>
			<g>
				<path d="M1319.1,340.3c-1.6,16.9-3.1,33.9-4.6,50.8c-1.6,18.5-3.3,37-4.9,55.4c-0.8,9-1.6,18-2.5,27c-0.1,1.3,1.2,2.5,2.5,2.5
					c1.5,0,2.4-1.1,2.5-2.5c1.6-16.9,3.1-33.9,4.6-50.8c1.6-18.5,3.3-37,4.9-55.4c0.8-9,1.6-18,2.5-27c0.1-1.3-1.2-2.5-2.5-2.5
					C1320.2,337.8,1319.3,339,1319.1,340.3L1319.1,340.3z"/>
			</g>
		</g>
		<g>
			<g>
				<path d="M1395.7,358.9c1.4,19.1,1.8,38.2,1.7,57.4c-0.1,17.4-0.7,34.8-1.1,52.2c-0.2,9.7-0.4,19.4-0.5,29.2c0,3.2,5,3.2,5,0
					c0.1-17.3,0.6-34.5,1.1-51.8c0.5-17.9,0.7-35.9,0.3-53.8c-0.2-11.1-0.8-22.1-1.5-33.2c-0.1-1.3-1.1-2.5-2.5-2.5
					C1397,356.4,1395.7,357.5,1395.7,358.9L1395.7,358.9z"/>
			</g>
		</g>
		<g>
			<g>
				<path d="M1397.7,500.1c11.6,3.1,23.5,3.7,35.3,0.9c3.1-0.8,1.8-5.6-1.3-4.8c-10.9,2.7-21.8,2-32.6-0.9
					C1396,494.5,1394.6,499.3,1397.7,500.1L1397.7,500.1z"/>
			</g>
		</g>
		<g>
			<g>
				<path d="M1425.6,317.1c5.5,22.8,7.6,46.4,8.3,69.8c0.8,24.5,0.1,49-1.1,73.5c-0.7,12.6-1.5,25.3-2.3,37.9
					c-0.1,1.3,1.2,2.5,2.5,2.5c1.4,0,2.4-1.1,2.5-2.5c1.6-23.4,3-46.8,3.6-70.3c0.6-24.5,0.3-49.2-2.3-73.6c-1.4-13-3.3-26-6.4-38.7
					C1429.6,312.6,1424.8,313.9,1425.6,317.1L1425.6,317.1z"/>
			</g>
		</g>
		<g>
			<g>
				<path d="M1308.4,475.8c8.9,4.7,18.7,7.4,28.6,9.1c12.4,2.1,25.1,2.5,37.7,1.5c8.1-0.6,16.2-1.8,24.2-3.5
					c3.1-0.7,1.8-5.5-1.3-4.8c-13.1,2.8-26.5,4.2-39.9,3.8c-11.1-0.3-22.3-1.7-33-4.9c-4.8-1.4-9.3-3.1-13.7-5.4
					C1308.1,470,1305.6,474.3,1308.4,475.8L1308.4,475.8z"/>
			</g>
		</g>
		<g>
			<g>
				<path d="M1352.8,509.3c1.7,26.1,2.4,52.2,2.9,78.3c0.5,27.3,0.6,54.5,0.8,81.8c0.1,14.3,0.3,28.7,0.6,43c0.1,3.2,5.1,3.2,5,0
					c-0.6-26.2-0.7-52.3-0.9-78.5c-0.2-27.3-0.5-54.5-1.4-81.8c-0.5-14.3-1.1-28.6-2-42.9c-0.1-1.3-1.1-2.5-2.5-2.5
					C1354,506.8,1352.7,507.9,1352.8,509.3L1352.8,509.3z"/>
			</g>
		</g>
		<g>
			<g>
				<path d="M1353.8,534.7c-0.5,4.1-1,8.2-1.5,12.3c-1.2,10.5-2.5,21-3.8,31.6c-1.7,14.3-3.5,28.5-5.3,42.7
					c-1.9,15.3-3.8,30.6-5.8,45.9c-1.8,13.6-3.6,26.9-5.5,40.4c-0.2,1.4-0.4,2.9-0.6,4.3c-0.2,1.3,0.3,2.7,1.7,3.1
					c1.2,0.3,2.9-0.4,3.1-1.7c2-13.4,3.8-26.8,5.6-40.3c2-15.3,4-30.6,5.9-45.9c1.8-14.5,3.6-29.1,5.4-43.6
					c1.4-11.1,2.7-22.3,4-33.4c0.4-3.5,0.8-7,1.2-10.4c0.2-1.6,0.5-3.2,0.6-4.8c0-0.1,0-0.1,0-0.2c0.2-1.3-1.3-2.5-2.5-2.5
					C1354.8,532.2,1353.9,533.3,1353.8,534.7L1353.8,534.7z"/>
			</g>
		</g>
		<g>
			<g>
				<path d="M1309.1,473.9c-0.8,13.9-1.7,27.9-2.7,41.8c-1,15.5-2.1,31.1-3.2,46.6c-1.1,16.2-2.3,32.3-3.5,48.5
					c-1.1,15.8-2.3,31.5-3.4,47.3c-1,14.4-2,28.7-3,43.1c-0.1,1.6-0.2,3.3-0.3,4.9c-0.1,1.3,1.2,2.5,2.5,2.5c1.4,0,2.4-1.1,2.5-2.5
					c0.9-14.1,1.9-28.3,2.9-42.4c1.1-15.6,2.2-31.3,3.4-46.9c1.2-16.2,2.3-32.3,3.5-48.5c1.1-15.7,2.2-31.3,3.3-47
					c1-14.2,1.9-28.4,2.8-42.5c0.1-1.6,0.2-3.2,0.3-4.8C1314.3,470.7,1309.3,470.7,1309.1,473.9L1309.1,473.9z"/>
			</g>
		</g>
		<g>
			<g>
				<path d="M1406.1,538.2c-0.5,22.6-1.3,45.3-2.3,67.9c-1,23.3-2.3,46.7-3.7,70c-0.7,12.5-1.5,25-2.4,37.4
					c-0.1,1.3,1.2,2.5,2.5,2.5c1.4,0,2.4-1.1,2.5-2.5c1.5-22.6,2.9-45.3,4.1-67.9c1.2-23.3,2.3-46.7,3.1-70
					c0.4-12.5,0.8-25,1.1-37.4C1411.2,535,1406.2,535,1406.1,538.2L1406.1,538.2z"/>
			</g>
		</g>
		<g>
			<g>
				<path d="M1356.8,757.6c12.8,1.3,25.7,1.3,38.5-0.1c1.3-0.1,2.5-1,2.5-2.5c0-1.2-1.1-2.6-2.5-2.5c-12.8,1.4-25.7,1.5-38.5,0.1
					c-1.3-0.1-2.5,1.2-2.5,2.5C1354.3,756.5,1355.5,757.4,1356.8,757.6L1356.8,757.6z"/>
			</g>
		</g>
		<g>
			<g>
				<path d="M1357.3,754.5c0.7-7.2,6.4-13.5,13.1-15.6c6.7-2.1,14.5,0.1,19,5.5c2.4,2.9,3.6,6.7,3.5,10.5c-0.1,3.2,4.9,3.2,5,0
					c0.2-9.2-5.6-17-14-20.3c-8.7-3.4-18.6-0.9-25,5.7c-3.8,3.8-6.1,8.8-6.6,14.1c-0.1,1.3,1.2,2.5,2.5,2.5
					C1356.2,757,1357.1,755.9,1357.3,754.5L1357.3,754.5z"/>
			</g>
		</g>
		<g>
			<g>
				<path d="M1397.8,752.1c-1.3-9-3.1-18-5.4-26.8c-0.8-3.1-5.7-1.8-4.8,1.3c2.4,8.8,4.1,17.8,5.4,26.8c0.2,1.3,1.9,2.1,3.1,1.7
					C1397.5,754.8,1398,753.5,1397.8,752.1L1397.8,752.1z"/>
			</g>
		</g>
		<g>
			<g>
				<path d="M1358.7,749.1c2.3-7.5,4.6-15,6.9-22.5c0.9-3.1-3.9-4.4-4.8-1.3c-2.3,7.5-4.6,15-6.9,22.5
					C1352.9,750.8,1357.7,752.1,1358.7,749.1L1358.7,749.1z"/>
			</g>
		</g>
		<g>
			<g>
				<path d="M1362.5,728.3c8.9,2.2,18.4,1.3,27.4,0.2c1.3-0.2,2.5-1,2.5-2.5c0-1.2-1.2-2.7-2.5-2.5c-8.5,1.1-17.7,2.1-26.1,0
					C1360.7,722.7,1359.4,727.6,1362.5,728.3L1362.5,728.3z"/>
			</g>
		</g>
		<g>
			<g>
				<path d="M1295.1,722.7c9.4,3.4,19.6,4.6,29.6,3.5c1.3-0.1,2.5-1,2.5-2.5c0-1.2-1.1-2.6-2.5-2.5c-9.6,1-19.2-0.1-28.2-3.3
					c-1.3-0.5-2.7,0.5-3.1,1.7C1293,721,1293.8,722.2,1295.1,722.7L1295.1,722.7z"/>
			</g>
		</g>
		<g>
			<g>
				<path d="M1295.1,717.9c-12.3,5-24.2,10.7-36.5,15.7c-1.3,0.5-2.1,1.7-1.7,3.1c0.3,1.2,1.8,2.3,3.1,1.7
					c12.3-5,24.2-10.7,36.5-15.7c1.3-0.5,2.1-1.7,1.7-3.1C1297.8,718.4,1296.4,717.3,1295.1,717.9L1295.1,717.9z"/>
			</g>
		</g>
		<g>
			<g>
				<path d="M1323.5,724.4c3,8.7,2.1,18.7,1,27.7c-0.2,1.3,1.3,2.5,2.5,2.5c1.5,0,2.3-1.2,2.5-2.5c1.2-9.4,2-19.9-1.2-29
					c-0.4-1.3-1.7-2.1-3.1-1.7C1324,721.7,1323.1,723.1,1323.5,724.4L1323.5,724.4z"/>
			</g>
		</g>
		<g>
			<g>
				<path d="M1258.7,733.5c-3.6,2.4-5.8,6.2-6.3,10.5c-0.4,4.1,1.2,8.3,4.2,11.1c1,0.9,2.6,1,3.5,0c0.9-0.9,1-2.6,0-3.5
					c-0.3-0.3-0.6-0.6-0.9-0.9c-0.1-0.1-0.4-0.5-0.1-0.1c-0.1-0.2-0.2-0.3-0.3-0.5c-0.2-0.3-0.4-0.7-0.6-1.1c0-0.1-0.3-0.6-0.2-0.3
					c0.1,0.3-0.1-0.3-0.1-0.3c-0.1-0.3-0.2-0.7-0.3-1.1c-0.1-0.2-0.1-0.4-0.1-0.6c0-0.1-0.1-0.7-0.1-0.3c0,0.3,0-0.3,0-0.3
					c0-0.2,0-0.4,0-0.5c0-0.4,0-0.8,0-1.2c0-0.1,0.1-0.7,0-0.3c0,0.3,0-0.3,0.1-0.3c0.1-0.4,0.2-0.7,0.3-1.1
					c0.1-0.2,0.1-0.4,0.2-0.6c0-0.1,0.2-0.6,0.1-0.3c-0.1,0.3,0.1-0.2,0.1-0.3c0.1-0.2,0.2-0.3,0.3-0.5c0.2-0.4,0.4-0.7,0.7-1
					c0.3-0.4-0.1,0.1,0.1-0.1c0.1-0.1,0.2-0.3,0.4-0.4c0.3-0.3,0.5-0.5,0.8-0.8c0,0,0.6-0.5,0.2-0.2c0.2-0.1,0.4-0.3,0.6-0.4
					c1.1-0.7,1.6-2.2,0.9-3.4C1261.5,733.2,1259.9,732.7,1258.7,733.5L1258.7,733.5z"/>
			</g>
		</g>
		<g>
			<g>
				<path d="M1259,757.1c17.6-0.6,35.2-1.3,52.8-1.9c5.1-0.2,10.2-0.4,15.3-0.5c3.2-0.1,3.2-5.1,0-5c-17.6,0.6-35.2,1.3-52.8,1.9
					c-5.1,0.2-10.2,0.4-15.3,0.5C1255.8,752.2,1255.7,757.2,1259,757.1L1259,757.1z"/>
			</g>
		</g>
		<g>
			<g>
				<path d="M1294.5,708.8c12.5,3,25.2,5.2,38,6.8c1.3,0.2,2.5-1.3,2.5-2.5c0-1.5-1.2-2.3-2.5-2.5c-12.3-1.5-24.6-3.7-36.7-6.6
					C1292.7,703.2,1291.4,708,1294.5,708.8L1294.5,708.8z"/>
			</g>
		</g>
		<g>
			<g>
				<path d="M1359.6,714.9c13.5,1.6,27.2,2.1,40.7,1.1c1.3-0.1,2.5-1.1,2.5-2.5c0-1.3-1.1-2.6-2.5-2.5c-13.6,1-27.2,0.5-40.7-1.1
					c-1.3-0.2-2.5,1.3-2.5,2.5C1357.1,713.9,1358.2,714.8,1359.6,714.9L1359.6,714.9z"/>
			</g>
		</g>
		<g>
			<g>
				<path d="M1362.1,714.8c-0.1,3-0.2,6.1-0.2,9.1c0,0.4,0,0.9,0,1.3c0,1.3,1.2,2.6,2.5,2.5c1.4-0.1,2.5-1.1,2.5-2.5
					c0.1-3,0.2-6.1,0.2-9.1c0-0.4,0-0.9,0-1.3c0-1.3-1.2-2.6-2.5-2.5C1363.2,712.4,1362.1,713.4,1362.1,714.8L1362.1,714.8z"/>
			</g>
		</g>
		<g>
			<g>
				<path d="M1385.5,715.6c0.1,2.8,0.3,5.6,0.4,8.4c0,0.4,0,0.8,0.1,1.2c0.1,1.3,1.1,2.6,2.5,2.5c1.3-0.1,2.6-1.1,2.5-2.5
					c-0.1-2.8-0.3-5.6-0.4-8.4c0-0.4,0-0.8-0.1-1.2c-0.1-1.3-1.1-2.6-2.5-2.5C1386.7,713.2,1385.4,714.2,1385.5,715.6L1385.5,715.6z
					"/>
			</g>
		</g>
		<g>
			<g>
				<path d="M1298.3,709.7c-1,3.2-2,6.4-3,9.7c-0.4,1.2,0.5,2.8,1.7,3.1c1.4,0.3,2.7-0.4,3.1-1.7c1-3.2,2-6.4,3-9.7
					c0.4-1.2-0.5-2.8-1.7-3.1C1300,707.7,1298.7,708.4,1298.3,709.7L1298.3,709.7z"/>
			</g>
		</g>
		<g>
			<g>
				<path d="M1322.2,714.2c0.2,3.5,0.3,7.1,0.5,10.6c0.1,1.3,1.1,2.6,2.5,2.5c1.3-0.1,2.6-1.1,2.5-2.5c-0.2-3.5-0.3-7.1-0.5-10.6
					c-0.1-1.3-1.1-2.6-2.5-2.5C1323.4,711.7,1322.2,712.8,1322.2,714.2L1322.2,714.2z"/>
			</g>
		</g>
		<g>
			<g>
				<path d="M1310.2,327.7c5.6-8.6,10.9-17.5,16.5-26.1c1.8-2.7-2.6-5.2-4.3-2.5c-5.6,8.6-10.9,17.5-16.5,26.1
					C1304.1,327.8,1308.4,330.3,1310.2,327.7L1310.2,327.7z"/>
			</g>
		</g>
		<g>
			<g>
				<path d="M1325.8,302.4c2.3-1.7,4.6-3.4,7.1-4.7c0.7-0.3,1.3-0.7,2-1c-0.2,0.1,0,0,0.1-0.1c0.2-0.1,0.3-0.1,0.5-0.2
					c0.4-0.1,0.7-0.3,1.1-0.4c1.6-0.5,2.7-0.7,4.2-0.7c1.3,0,2.6-1.1,2.5-2.5c-0.1-1.3-1.1-2.5-2.5-2.5c-6.7,0.2-12.4,3.9-17.6,7.7
					c-1.1,0.8-1.6,2.2-0.9,3.4C1323,302.6,1324.7,303.3,1325.8,302.4L1325.8,302.4z"/>
			</g>
		</g>
		<g>
			<g>
				<path d="M1338.7,294.2c3.1,6.1,6.7,11.9,13.6,14.1c7.3,2.4,15.6,0.8,22.1-3.1c3.8-2.3,7-5.4,9.7-9c0.8-1.1,0.2-2.8-0.9-3.4
					c-1.3-0.8-2.6-0.2-3.4,0.9c-3.9,5.1-9.4,9-15.7,10.3c-5.7,1.2-12,0.2-16-4.2c-2.1-2.3-3.6-5.3-5.1-8.2
					C1341.5,288.8,1337.2,291.3,1338.7,294.2L1338.7,294.2z"/>
			</g>
		</g>
		<g>
			<g>
				<path d="M1430.1,315.1c-7.6-12.2-20.4-19.2-34-22.6c-3.9-1-7.8-1.6-11.8-2.2c-1.3-0.2-2.5,1.3-2.5,2.5c0,1.5,1.2,2.3,2.5,2.5
					c12.3,1.6,25.1,5.4,34.4,13.9c2.7,2.5,5,5.3,7,8.4C1427.5,320.4,1431.8,317.9,1430.1,315.1L1430.1,315.1z"/>
			</g>
		</g>
		<g>
			<g>
				<path d="M1328.5,240.4c1.5,11.7,5.5,23.2,13.3,32.3c1.8,2.1,3.9,4.1,6.1,5.8c1.1,0.9,2.3,1.7,3.5,2.5c1.5,0.9,2.9,1.4,4.6,1.7
					c5.8,1,11.5,0.1,16.7-2.6c5.8-3,10.5-7.9,14.4-13.1c0.8-1.1,0.2-2.8-0.9-3.4c-1.3-0.7-2.6-0.2-3.4,0.9
					c-5.7,7.8-14.3,14.8-24.6,13.6c-1.1-0.1-2.3-0.3-3.3-0.7c-1.2-0.5-2.4-1.5-3.4-2.2c-2-1.5-3.8-3.2-5.5-5
					c-3.4-3.8-6.1-8.2-8.1-12.9c-2.3-5.3-3.7-11-4.5-16.6c-0.2-1.3-1-2.5-2.5-2.5C1329.8,237.9,1328.3,239.1,1328.5,240.4
					L1328.5,240.4z"/>
			</g>
		</g>
		<g>
			<g>
				<path d="M1336.6,263.8c4.5,0.9,9.2,1.1,13.8,0.8c4.6-0.2,9.3-0.8,13.8-2c3.1-0.8,1.8-5.6-1.3-4.8c-4.1,1.1-8.3,1.6-12.5,1.8
					c-4.2,0.2-8.4,0.1-12.5-0.7c-1.3-0.3-2.7,0.4-3.1,1.7C1334.5,262,1335.3,263.6,1336.6,263.8L1336.6,263.8z"/>
			</g>
		</g>
		<g>
			<g>
				<path d="M1317.8,224.6c-1.8,4.5-3.1,9.8,0.2,14c2.9,3.6,8.6,3.8,11.3-0.2c-1.4-0.8-2.9-1.7-4.3-2.5c-1.4,2.6,0.1,5.4,2.7,6.5
					c2.8,1.1,5.5-0.4,7-2.8c1.5-2.3,2-5.4,2.7-8c0.9-3.3,1.7-6.6,2.4-9.9c0.3-1.2-0.3-2.5-1.4-2.9c-1-0.4-2.6-0.1-3.1,1
					c-1.4,3.3,0,7.6,3.7,8.6c3.9,1.1,8-2.3,7.7-6.3c-0.1-1.2-0.9-2.3-2.2-2.5c-1.1-0.1-2.5,0.5-2.7,1.8c-1,6.2,3.2,12.5,9.6,13.3
					c6.3,0.8,12.1-4.6,12.4-10.8c0.2-3.2-4.8-3.2-5,0c-0.3,4,2,8.2,5.7,9.9c3.9,1.9,8.7,1,11.8-2c-1.2-1.2-2.4-2.4-3.5-3.5
					c-3.1,3-4.1,7.8-2.4,11.8c1.7,3.9,6,6.5,10.3,6.3c-0.4-1.6-0.8-3.1-1.3-4.7c-3.5,2.4-5.3,6.7-4.2,10.8c1.1,4.2,5.1,7.1,9.4,7.2
					c-0.8-1.1-1.6-2.1-2.4-3.2c-0.9,3.3-1.6,6.9,0.4,9.9c1.8,2.7,5.2,3.8,8.1,2.2c2.4-1.3,3.9-4,4.3-6.6c0.5-3.3-0.6-6.8,0.5-10
					c-1.4,0.4-2.8,0.7-4.2,1.1c1.6,1.9,4.5,2,6.7,0.9c2.3-1.3,3.3-3.9,3.8-6.4c1.2-5.8,1.6-11.7,1.3-17.6c-0.1,0.4-0.2,0.8-0.3,1.3
					c7-9.2,6.2-22.9-1.2-31.5c0.1,1,0.3,2,0.4,3c5.5-7.9,2.3-20.2-6.4-24.3c-2.7-1.3-5.6-1.9-8.4-2.9c-2.6-0.9-4.7-2.3-6.8-4.1
					c-2.1-1.8-4.2-3.5-6.8-4.5c-2.2-0.8-4.7-1.2-7-0.9c-5.4,0.5-10.5,3.4-13.2,8.2c1.3-0.2,2.6-0.3,3.9-0.5
					c-5.4-5.1-13.1-7.1-20.3-5.5c-3.6,0.8-7.2,2.6-9.3,5.7c-2.1,3.1-2,7.8,1,10.2c0.8-1.4,1.6-2.8,2.4-4.2c-5.6-1.3-11.6,1-14.8,5.9
					c-3.3,5-2.5,11.6,1.1,16.1c0.4-1.4,0.7-2.8,1.1-4.2c-5.5,2.2-8.4,8.1-8,13.9c0.2,2.9,1.1,5.9,2.6,8.4c1.4,2.5,3.5,4.5,5.4,6.7
					c2.1,2.4,5.7-1.1,3.5-3.5c-3-3.3-5.9-6.4-6.5-11c-0.4-3.5,0.8-8.1,4.3-9.5c1.9-0.7,2.3-2.6,1.1-4.2c-2.2-2.8-2.2-7.1-0.3-10.1
					c1.9-2.9,5.8-4.3,9.1-3.6c2.2,0.5,4.5-2.5,2.4-4.2c-1.7-1.4-1-3.6,0.4-4.9c1.8-1.7,4.5-2.6,6.9-2.9c5.1-0.7,10.4,0.9,14.2,4.5
					c1.1,1.1,3.1,0.9,3.9-0.5c1.8-3.2,5-5.2,8.6-5.7c1.8-0.3,3.5-0.1,5.2,0.4c2,0.6,3.6,2,5.2,3.3c2,1.7,4,3.4,6.4,4.4
					c2.4,1.1,4.9,1.7,7.4,2.5c3.8,1.2,6.8,3.3,8.2,7c1.5,3.8,1.2,8-1.1,11.4c-0.7,1-0.3,2.2,0.4,3c3.9,4.5,5.4,11,4.3,16.8
					c-0.6,3.1-1.9,5.8-3.6,8.4c-0.7,1-0.5,2.1-0.5,3.2c0,1.1,0,2.2,0,3.4c-0.1,2.2-0.2,4.3-0.5,6.5c-0.3,2.2-0.5,4.6-1.2,6.6
					c-0.2,0.6-0.5,1.2-1.1,1.5c-0.4,0.2-0.4,0.1-0.6-0.1c-1.3-1.5-3.6-0.5-4.2,1.1c-0.9,2.4-0.7,5-0.5,7.5c0.1,1.9,0.1,3.8-1.1,5.3
					c-0.3,0.4-0.7,0.8-1.2,0.9c-0.2,0-0.8-0.1-1.1-0.6c-1.3-1.6-0.4-4.2,0.1-6c0.4-1.6-0.8-3.1-2.4-3.2c-2.1-0.1-4.1-1.5-4.6-3.6
					c-0.5-1.9,0.3-4.1,1.9-5.2c1.9-1.3,1.4-4.8-1.3-4.7c-2.3,0.1-4.7-1-5.7-3.2c-1-2.2-0.3-4.7,1.3-6.3c2.3-2.3-1.2-5.8-3.5-3.5
					c-1.6,1.5-4.1,2-6.1,1c-2-1-3.1-3.2-2.9-5.5c-1.7,0-3.3,0-5,0c-0.2,3.3-3.6,6.4-7,5.9c-3.1-0.5-5.7-3.9-5.2-7
					c-1.6-0.2-3.3-0.4-4.9-0.7c0.1,0.8-0.5,1.8-1.3,1.5c-0.1,0-0.4-0.3-0.6-0.7c0,0.1-0.1-0.4-0.1-0.5c0.1,0.3,0.1-0.4,0-0.1
					c-1.5-0.6-3-1.3-4.6-1.9c-1,4.4-2.1,8.8-3.3,13.2c-0.4,1.3-0.6,3.1-1.7,4c0,0-0.3,0.3-0.2,0.2c0.1-0.1-0.3-0.1,0,0
					c-0.1,0-0.5-0.2-0.4-0.3c0.1-0.1,0.2,0.8,0.1,0.9c1.6-2.8-2.5-5.2-4.3-2.5c-0.9,1.3-3,0.1-3.6-1.3c-1.2-2.8,0.3-6,1.3-8.6
					c0.5-1.3-0.5-2.7-1.7-3.1C1319.5,222.4,1318.3,223.3,1317.8,224.6L1317.8,224.6z"/>
			</g>
		</g>
		<g>
			<g>
				<path d="M1341,235c-0.9,2.3-1.6,4.6-2.1,7c-0.6,2.6-1.3,5.4-0.1,7.9c1,2.2,3.3,3.3,5.6,3.5c2.5,0.2,4.9-1.1,7-2.3
					c1.1-0.7,1.6-2.3,0.9-3.4c-0.7-1.1-2.2-1.6-3.4-0.9c-0.7,0.4-1.7,1-2.3,1.2c-0.2,0.1-0.8,0.3-1.2,0.4c-0.1,0-0.2,0-0.3,0
					c0.2,0,0.3,0,0.1,0c-0.2,0-0.3,0-0.5,0c-0.5,0,0.2,0.1-0.1,0c-0.2,0-0.3-0.1-0.5-0.1c-0.2-0.1-0.5-0.3-0.2,0
					c-0.1-0.1-0.3-0.2-0.4-0.3c-0.3-0.1,0.3,0.2,0-0.1c-0.3-0.2,0,0.2,0,0c0-0.1-0.2-0.4-0.1-0.1c0-0.1-0.1-0.8-0.1-0.3
					c0-0.4,0-0.9,0-1.3c0,0.4,0-0.2,0-0.3c0-0.2,0.1-0.5,0.1-0.7c0.2-1,0.4-2,0.6-2.9c0.5-2,1.1-3.9,1.8-5.8
					c0.5-1.2-0.5-2.8-1.7-3.1C1342.6,233,1341.5,233.7,1341,235L1341,235z"/>
			</g>
		</g>
		<g>
			<g>
				<path d="M1346.7,277.4c-0.3,1.2-0.6,2.4-1,3.6c-0.2,0.6-0.4,1.2-0.7,1.8c-0.1,0.3-0.1,0.3,0,0.1c-0.1,0.1-0.1,0.3-0.2,0.4
					c-0.1,0.3-0.2,0.5-0.3,0.8c-0.5,1.1-1.1,2.2-1.7,3.2c-0.3,0.5-0.7,1.1-1,1.6c-0.2,0.3-0.4,0.5-0.5,0.8c0,0.1-0.6,0.8-0.3,0.4
					c-0.8,1-1.1,2.5,0,3.5c0.9,0.8,2.7,1.1,3.5,0c3.4-4.4,5.9-9.4,7.2-14.8c0.3-1.3-0.4-2.8-1.7-3.1
					C1348.5,275.4,1347,276.1,1346.7,277.4L1346.7,277.4z"/>
			</g>
		</g>
		<g>
			<g>
				<path d="M1374.2,277.9c2.5,4.9,5.1,9.8,7.6,14.7c0.6,1.2,2.3,1.6,3.4,0.9c1.2-0.8,1.5-2.2,0.9-3.4c-2.5-4.9-5.1-9.8-7.6-14.7
					c-0.6-1.2-2.3-1.6-3.4-0.9C1373.9,275.2,1373.6,276.7,1374.2,277.9L1374.2,277.9z"/>
			</g>
		</g>
		<g>
			<g>
				<path d="M1155.6,451c3.9-1.6,8.1-2.3,12.3-2c3.7,0.3,8.2,1.3,11.1,3.7c1.2,1,2.2,2.4,2,4c-0.2,1.5-1.6,2.2-2.9,2.5
					c-2,0.4-4.1-0.4-6-1c-1.8-0.6-3.5-1.4-5.2-2.3c-3.8-2.1-7.4-4.9-9.9-8.5c-0.8-1.1-2.2-1.6-3.4-0.9c-1.1,0.6-1.7,2.3-0.9,3.4
					c2.9,4.2,6.9,7.6,11.3,10.1c4.4,2.5,10.1,5,15.2,4.1c2.4-0.4,4.6-1.9,5.8-4c1.3-2.4,1.1-5.2,0-7.6c-2.2-4.7-8.1-6.9-12.9-7.9
					c-6-1.2-12.3-0.7-17.9,1.6c-1.2,0.5-2.1,1.7-1.7,3.1C1152.8,450.4,1154.3,451.5,1155.6,451L1155.6,451z"/>
			</g>
		</g>
		<g>
			<g>
				<path d="M1187,413.9c-2.9-1.6-6.3-1.3-9.1,0.2c-2.8,1.5-4.7,4.3-5.8,7.2c-0.5,1.4-0.8,2.8-1,4.3c-0.2,1.7-0.5,3.5,0,5.3
					c0.5,1.8,1.7,3.2,3.4,3.9c0.8,0.3,1.6,0.4,2.4,0.3c0.8,0,1.6,0.1,2.4-0.1c1.9-0.3,3.1-2.2,4.3-3.5c1.3-1.4,2.6-2.8,3.9-4.1
					c0.9-1,1-2.6,0-3.5c-0.9-0.9-2.6-1-3.5,0c-1.8,1.9-3.5,3.8-5.3,5.7c-0.2,0.2-0.5,0.4-0.7,0.7c-0.5,0.6,0.2,0,0.4-0.1
					c-0.2,0.1-0.2,0-0.1,0c0.1,0.1,0.1,0-0.1,0c-0.1,0-0.2,0-0.3,0c-0.3,0-0.5,0-0.8,0c-0.2,0-0.4,0-0.7,0c-0.5,0-0.1,0,0,0
					c0.1,0,0.3,0.2,0.1,0c-0.1-0.1-0.2-0.1-0.3-0.2c0,0,0.2,0.2,0.1,0c-0.2-0.2,0,0,0,0.1c-0.1-0.1-0.2-0.3-0.2-0.4
					c0.1,0.3-0.1-0.4-0.1-0.6c0-0.3,0-0.1,0,0c0-0.1,0-0.3,0-0.4c0-0.6,0.1-1.2,0.1-1.8c0,0,0.1-0.5,0-0.1c0-0.1,0-0.3,0.1-0.4
					c0-0.3,0.1-0.5,0.1-0.8c0.1-0.6,0.2-1.1,0.4-1.7c0.1-0.4,0.4-1.2,0.5-1.5c0.1-0.3,0.5-1,0.8-1.5c0.1-0.2,0.3-0.4,0.4-0.7
					c0.2-0.2,0-0.1,0,0c0.1-0.1,0.2-0.2,0.3-0.3c0.2-0.2,0.3-0.4,0.5-0.5c0.1-0.1,0.2-0.2,0.3-0.2c0.3-0.3,0,0,0.2-0.1
					c0.2-0.2,0.5-0.3,0.7-0.5c0.1-0.1,0.2-0.1,0.3-0.2c0,0,0.5-0.2,0.3-0.1c-0.2,0.1,0.1,0,0.2-0.1c0.2-0.1,0.3-0.1,0.5-0.1
					c0.3-0.1,0.6-0.2,0.9-0.2c-0.4,0.1,0.2,0,0.4,0c0.3,0,0.5,0,0.8,0c-0.5-0.1,0.3,0.1,0.5,0.1c0,0,0.4,0.1,0.1,0
					c-0.2-0.1,0.4,0.2,0.3,0.2c1.2,0.6,2.7,0.3,3.4-0.9C1188.6,416.2,1188.2,414.6,1187,413.9L1187,413.9z"/>
			</g>
		</g>
		<g>
			<g>
				<path d="M1201.6,445.3c2.3-1.2,4.7-2.5,7-3.7c0.3-0.2,0.7-0.4,1-0.5c1.2-0.6,1.6-2.3,0.9-3.4c-0.8-1.2-2.2-1.6-3.4-0.9
					c-2.3,1.2-4.7,2.5-7,3.7c-0.3,0.2-0.7,0.4-1,0.5c-1.2,0.6-1.6,2.3-0.9,3.4C1199,445.5,1200.4,445.9,1201.6,445.3L1201.6,445.3z"
					/>
			</g>
		</g>
		<g>
			<g>
				<path d="M1193,422.8c4-1.5,8-3.3,11.8-5.3c1.2-0.6,1.6-2.3,0.9-3.4c-0.8-1.2-2.2-1.6-3.4-0.9c-1.2,0.6-2.3,1.2-3.5,1.7
					c-1.2,0.6-2.3,1.1-3.5,1.6c-0.1,0.1-0.3,0.1-0.4,0.2c-0.3,0.1,0.4-0.2,0,0c-0.4,0.2-0.7,0.3-1.1,0.5c-0.7,0.3-1.4,0.5-2.1,0.8
					c-1.2,0.4-2.2,1.7-1.7,3.1C1190.3,422.3,1191.7,423.3,1193,422.8L1193,422.8z"/>
			</g>
		</g>
		<g>
			<g>
				<path d="M1184.9,418.4c0.1,0,0.1,0.1,0.2,0.1c-0.2-0.1-0.3-0.3-0.5-0.4c0.9,0.7,1.8,1.6,2.5,2.5c-0.1-0.2-0.3-0.3-0.4-0.5
					c0.8,1,1.4,2.1,1.9,3.3c-0.1-0.2-0.2-0.4-0.3-0.6c0.1,0.3,0.2,0.5,0.3,0.8c0.2,0.6,0.6,1.2,1.1,1.5c0.5,0.3,1.3,0.4,1.9,0.3
					c1.2-0.4,2.2-1.8,1.7-3.1c-0.5-1.6-1.3-3-2.2-4.4c-0.5-0.7-1.1-1.4-1.7-2.1c-0.6-0.7-1.4-1.2-2.1-1.8c-0.5-0.4-1.4-0.4-1.9-0.3
					c-0.6,0.2-1.2,0.6-1.5,1.1c-0.3,0.6-0.5,1.3-0.3,1.9c0.1,0.2,0.2,0.4,0.3,0.6C1184.2,417.9,1184.5,418.2,1184.9,418.4
					L1184.9,418.4z"/>
			</g>
		</g>
		<g>
			<g>
				<path d="M1399.4,501.6c-0.3,6.9-0.6,13.8,0.5,20.7c0.9,6.2,3,12.6,7.6,17c4.5,4.3,11.5,6.5,16.5,1.7c4.6-4.4,4.9-11.4,5-17.3
					c0.1-7.9,0.2-15.9,0.2-23.8c0-3.2-5-3.2-5,0c-0.1,6.3-0.1,12.6-0.2,18.9c0,5.2,0.6,11.2-1.8,16c-0.9,1.8-2.3,3.7-4.5,3.9
					c-2.3,0.2-4.7-1.1-6.3-2.6c-4.1-3.6-5.8-9.1-6.6-14.3c-1.1-6.7-0.7-13.6-0.4-20.3C1404.6,498.4,1399.6,498.4,1399.4,501.6
					L1399.4,501.6z"/>
			</g>
		</g>
	</g>
</g>
</svg>
