<?xml version="1.0" encoding="utf-8"?>
<!-- Generator: Adobe Illustrator 24.3.0, SVG Export Plug-In . SVG Version: 6.00 Build 0)  -->
<svg version="1.1" xmlns="http://www.w3.org/2000/svg" xmlns:xlink="http://www.w3.org/1999/xlink" x="0px" y="0px"
	 viewBox="0 0 1920 1080" style="enable-background:new 0 0 1920 1080;" xml:space="preserve">
<style type="text/css">
	.st0{fill:#88D7FF;}
	.st1{fill:#A5A5A5;}
</style>
<g id="МЫСЛИШКИ">
	<g id="_x32_">
		<path class="st0" d="M701.2,316c37.7-11.7,75.4-23.4,113.1-35.1c4.5-1.4,9.1-2.8,13.8-2.8c6.2,0,12.2,2.4,18.1,4.3
			c21.5,6.9,45.3,6.8,66.7-0.4c2-0.6,4-1.4,6-1.2c1.6,0.1,3,0.7,4.5,1.3c21.9,9.2,43.7,18.3,65.6,27.5c6.4,2.7,12.9,5.4,18.2,10
			c6.8,5.8,11.1,14.1,14.8,22.2c9.9,21.6,17.5,44.3,22.6,67.6c-26.5-2.4-52.1-13.4-72.1-30.9c-2.1-1.9-5-3.9-7.5-2.5
			c-1.5,0.8-2.1,2.6-2.6,4.2c-3.7,11.4-9.7,21.9-17.6,31c-7.5,8.6-16.6,15.7-25.6,22.8c-16.2,12.7-32.9,25.6-52.5,32
			c-12.3,4-25.3,5.3-38.1,6.1c-30.8,1.8-62.1,0.5-92-7.2c-23.2-5.9-53.3-16.4-70.1-34.4c-7.5-8.1-2.6-15.9,1-24.7
			c5.8-13.8,11.1-27.8,16.4-41.8C690.1,348,695.8,332,701.2,316z"/>
		<path class="st0" d="M796.9,103.9c8.7-27,32.5-48.7,60.2-54.9c27.7-6.3,58.4,3.1,78,23.8c20.8,22,27.9,56,17.7,84.4
			c-2.4,6.7-5.7,13-9.9,18.7c-4.4,5.9-9.8,10.9-13.7,17.1c-6.2,9.9-8,21.8-8.5,33.4c-0.4,8.1-0.8,17.6-7.4,22.3
			c-2.3,1.7-5.1,2.5-7.8,3.2c-20.6,5.1-42.8,3.4-62.4-4.8c-2.7-1.1-5.5-2.5-7.1-5c-0.9-1.5-1.3-3.3-1.7-5
			c-2.6-12.1-4.1-25.5-9.4-36.8c-3.9-8.2-10.6-15-15.7-22.4C794.3,156.3,788.9,129,796.9,103.9z"/>
		<g>
			<g>
				<path d="M844.7,212.9c-10.2-8.2-18.1-18.9-23.2-31c-5.1-11.9-7.4-25-6.7-37.9c0.7-13,4.8-25.6,11.8-36.6c7-11,16.8-20.2,28-26.8
					c11.2-6.6,23.9-10.7,37-11.4c13-0.6,26,2.3,37.7,7.9c11.7,5.7,22.2,14.1,30.2,24.4c8,10.3,13.3,22.5,15.2,35.5
					c1.9,12.8,0.5,26-3.6,38.3c-4.1,12.3-11,23.6-20.3,32.7c-2.2,2.2-4.6,4.3-7.1,6.2c-1.1,0.8-1.6,2.2-0.9,3.4
					c0.6,1.1,2.3,1.7,3.4,0.9c11.1-8.3,19.9-19.3,25.7-31.9c5.8-12.5,8.9-26.2,8.5-40c-0.3-13.9-4.1-27.5-11.2-39.4
					c-7-11.9-17-21.9-28.6-29.4c-11.6-7.4-25-12.2-38.7-13.4c-13.9-1.2-27.9,1.5-40.6,7.1c-12.5,5.5-23.9,14.1-32.6,24.7
					c-8.8,10.7-15.1,23.5-17.5,37.2c-2.4,13.6-1.5,27.6,2.4,40.8c3.9,13.2,10.9,25.6,20.5,35.5c2.3,2.4,4.7,4.6,7.3,6.7
					c1.1,0.8,2.5,1,3.5,0C845.5,215.6,845.7,213.8,844.7,212.9L844.7,212.9z"/>
			</g>
		</g>
		<g>
			<g>
				<path d="M840.5,215.4c3.2,16.7,7.7,33.1,10.9,49.8c0.3,1.3,1.8,2.1,3.1,1.7c1.4-0.4,2-1.7,1.7-3.1c-3.2-16.7-7.7-33.1-10.9-49.8
					c-0.3-1.3-1.8-2.1-3.1-1.7C840.8,212.7,840.2,214,840.5,215.4L840.5,215.4z"/>
			</g>
		</g>
		<g>
			<g>
				<path d="M947.3,216.4c-0.3-3-4.1-3.3-5-0.5c-0.2,0.7-0.3,1.4-0.5,2.2c-0.7,3.2-1.4,6.4-2,9.6c-1.9,9.5-3.7,19-5.3,28.6
					c-0.8,4.6-1.5,9.1-2,13.7c-0.1,1.3,1.2,2.5,2.5,2.5c1.5,0,2.4-1.2,2.5-2.5c0.1-0.8,0.2-1.5,0.3-2.3c0-0.4,0.1-0.7,0.1-1.1
					c-0.1,0.6,0-0.1,0-0.2c0-0.3,0.1-0.6,0.1-0.9c0.3-1.9,0.6-3.8,0.9-5.8c0.7-4.5,1.5-9,2.3-13.5c1.5-8,3-16,4.7-23.9
					c0.3-1.3,0.5-2.5,0.8-3.8c0.1-0.4,0.2-0.7,0.3-1.1c0.3-1-0.1,0.2-0.5,0.6c-0.6,0.2-1.2,0.5-1.8,0.7c0,0,0,0,0,0
					c-0.7-0.4-1.4-0.8-2.2-1.2c-0.1-0.4-0.2-0.8-0.3-1.2c0.1,1.3,1,2.5,2.5,2.5C946,218.9,947.4,217.8,947.3,216.4L947.3,216.4z"/>
			</g>
		</g>
		<g>
			<g>
				<path d="M852.5,266.6c19.8,10.4,43.3,13.3,65.3,10.1c6.1-0.9,12.1-2.3,17.9-4.3c3-1,1.7-5.9-1.3-4.8
					c-20.1,6.8-42.5,7.2-62.9,1.3c-5.7-1.6-11.2-3.8-16.4-6.6C852.2,260.8,849.6,265.1,852.5,266.6L852.5,266.6z"/>
			</g>
		</g>
		<g>
			<g>
				<path d="M841.6,216.9c11.8,5.3,24.4,8.9,37.2,10.8c14.5,2.1,29.3,2.2,43.6-0.8c8.2-1.7,16.1-4.5,23.6-8.3
					c2.9-1.5,0.3-5.8-2.5-4.3c-12.5,6.5-26.6,9.5-40.7,9.9c-13.5,0.4-27-1.4-40-4.9c-6.4-1.8-12.7-3.9-18.7-6.7
					c-1.2-0.6-2.7-0.4-3.4,0.9C840.1,214.5,840.4,216.3,841.6,216.9L841.6,216.9z"/>
			</g>
		</g>
		<g>
			<g>
				<path d="M680.5,449.2c4.6-12.4,9.4-24.8,14.1-37.2c5.1-13.2,10.1-26.4,15.1-39.7c2.3-6.2,4.3-12.6,7.3-18.5
					c1.7-3.4,3.9-6.5,6.8-8.9c3-2.5,6.7-4,10.3-5.3c8.7-3.1,17.6-5.6,26.4-8.3c9.1-2.8,18.2-5.5,27.3-8.1
					c18.3-5.3,36.7-10.3,55.2-15.1c2.3-0.6,4.6-1.2,6.9-1.8c3.1-0.8,1.8-5.6-1.3-4.8c-18.7,4.7-37.4,9.8-56,15.1
					c-18.6,5.3-37.1,10.9-55.5,16.7c-3.9,1.3-7.9,2.6-11.6,4.5c-3.8,2-7,4.7-9.6,8.1c-4.5,5.9-6.7,13.1-9.2,19.9
					c-4.9,13.1-9.9,26.1-14.9,39.1c-5,13-10,26.1-14.9,39.1c-0.5,1.3-1,2.6-1.4,3.8c-0.5,1.3,0.5,2.7,1.7,3.1
					C678.8,451.4,680,450.5,680.5,449.2L680.5,449.2z"/>
			</g>
		</g>
		<g>
			<g>
				<path d="M933,306.6c14.4,6.7,28.8,13.4,43.3,20.1c7.2,3.4,14.4,6.7,21.6,10.1c6.4,3,12.9,5.9,18.8,9.9
					c8.6,5.8,14.3,13.9,19,22.9c5.2,9.9,9.1,20.5,12.4,31.2c3.5,11.2,6.3,22.6,8.8,34.1c0.7,3.1,5.5,1.8,4.8-1.3
					c-4.7-21.5-10.4-43.3-20.1-63.2c-4.3-8.9-9.7-17.9-17.4-24.3c-5.5-4.5-11.8-7.9-18.2-11c-7.1-3.4-14.3-6.7-21.5-10
					c-16.4-7.6-32.8-15.2-49.1-22.9c-1.2-0.6-2.7-0.3-3.4,0.9C931.5,304.3,931.8,306,933,306.6L933,306.6z"/>
			</g>
		</g>
		<g>
			<g>
				<path d="M848.2,306.1c10.1,4.8,21.4,7,32.4,8.3c12.4,1.4,25.2,1.4,37.4-1.2c6.1-1.3,12.2-3.3,17.5-6.7c2.7-1.7,0.2-6-2.5-4.3
					c-9.1,5.7-20.6,7.5-31.3,8c-11.9,0.5-24-0.6-35.6-3.4c-2.9-0.7-5.7-1.5-8.5-2.4c-1.2-0.4-2.5-0.9-3.7-1.3
					c-1.2-0.5-1.9-0.8-3.2-1.4c-1.2-0.6-2.7-0.3-3.4,0.9C846.7,303.8,847,305.5,848.2,306.1L848.2,306.1z"/>
			</g>
		</g>
	</g>
</g>
<g id="ОБЛАЧЕЧИ">
	<g id="_x32__1_">
		<g>
			<g>
				<path class="st1" d="M646.9,338.6c-12.4-2.3-23.8-8.1-33-16.8c-9.1-8.6-15.8-19.7-19.3-31.7c-3.6-12.6-3.8-26.4-0.1-39
					c3.8-12.6,10.9-24.1,20.5-33.1c9.4-8.8,21-15.1,33.5-18c1.6-0.4,3.2-0.7,4.8-1c1.3-0.2,2.1-1.9,1.7-3.1c-0.4-1.4-1.7-2-3.1-1.7
					c-13.6,2.3-26.3,8.3-36.8,17.1c-10.7,8.9-18.9,20.6-23.7,33.6c-5,13.4-5.8,28-2.8,41.9c2.8,13.1,9.2,25.3,18.3,35.2
					c9,9.8,20.8,17,33.7,20.4c1.6,0.4,3.3,0.8,4.9,1.1c1.3,0.2,2.7-0.4,3.1-1.7C649,340.5,648.3,338.9,646.9,338.6L646.9,338.6z"/>
			</g>
		</g>
		<g>
			<g>
				<path class="st1" d="M643.9,340.4c-5.2,30.7-0.6,62.2,16,88.8c15.7,25.2,40.1,44,66.9,56.3c28.9,13.2,60.9,19.6,92.7,19.3
					c32-0.2,64.2-7.1,92.7-21.8c29-15,53.3-38.3,68.4-67.4c2-3.8,3.8-7.7,5.5-11.7c-1.1,0.3-2.3,0.6-3.4,0.9
					c29,19.2,62.8,32.5,97.7,34.6c17.5,1,35.3-0.9,52-6.4c16.2-5.3,29.8-14.8,40.9-27.6c6-7,11.2-14.6,15.8-22.5
					c5.5-9.4,8.1-19.7,9.8-30.4c0.5-3.1-4.3-4.5-4.8-1.3c-1.4,9.1-3.4,18.2-7.7,26.4c-3.8,7.1-8.3,14-13.3,20.3
					c-10.1,12.7-22.7,23.4-38.1,29c-31.9,11.6-66.9,9.3-98.7-1.2c-18.1-6-35.2-14.6-51-25.2c-1-0.7-2.9-0.3-3.4,0.9
					c-12.6,29.8-34.2,54.8-61.8,71.6c-26.6,16.2-57.5,24.6-88.5,26.5c-31.1,1.9-62.6-2.7-91.7-13.9c-26.7-10.3-51.8-26.7-69.2-49.7
					c-17.9-23.7-25.7-52.7-23.3-82.2c0.3-4,0.9-7.9,1.5-11.8C649.2,338.6,644.4,337.2,643.9,340.4L643.9,340.4z"/>
			</g>
		</g>
		<g>
			<g>
				<path class="st1" d="M1196.4,354.3c16.8-1.3,31.9-11.2,40.4-25.6c4.3-7.3,6.9-15.6,7.3-24.1c0.4-8.5-1.3-17-4.7-24.8
					c-3.8-8.8-10-16.5-17.8-22c-1.1-0.8-2.8-0.2-3.4,0.9c-0.7,1.3-0.2,2.6,0.9,3.4c12.6,8.9,20,24.3,20.1,39.7
					c0.1,15.1-7.4,29.9-19.6,38.8c-6.8,5-14.8,8.2-23.2,8.8c-1.3,0.1-2.5,1.1-2.5,2.5C1193.9,353.1,1195,354.4,1196.4,354.3
					L1196.4,354.3z"/>
			</g>
		</g>
		<g>
			<g>
				<path class="st1" d="M904,521.7c-11.8,3.8-19.4,16.3-16.8,28.5c1.2,5.7,4.5,10.9,9.1,14.5c5.2,4.1,11.7,5.8,18.2,5.2
					c7.7-0.7,15-4,21.4-8.3c-1.1-0.3-2.3-0.6-3.4-0.9c4.1,7.8,13.3,11.8,21.9,11.1c9.4-0.8,17.3-7.2,21.7-15.4
					c5.3-9.8,5.5-21.2,3.2-31.8c-1.2-5.4-2.8-10.8-5.2-15.8c-2.2-4.6-5.6-9-10.3-11.3c-5.1-2.5-11.3-2.7-15.8,1.2
					c-3.9,3.3-5.4,9-3,13.6c0.6,1.1,2,1.5,3.1,1c1.2-0.5,1.6-1.7,1.4-2.9c-0.5-3.2-3.3-5.7-5.9-7.2c-3.3-2-7.2-3.1-11.1-3.7
					c-8.7-1.2-18.9,0.3-24.9,7.4c-4,4.8-5.4,11-5.2,17.1c0.1,3.2,5.1,3.2,5,0c0-1.4,0-2.8,0.1-4.2c0.1-0.8,0.1-0.6,0.2-1.4
					c0.1-0.6,0.3-1.3,0.4-1.9c0.1-0.5,0.3-1,0.5-1.6c0.1-0.2,0.2-0.5,0.3-0.7c0.1-0.3,0,0,0,0.1c0.1-0.2,0.1-0.3,0.2-0.5
					c0.4-1,1-1.9,1.6-2.7c0.1-0.1,0.5-0.6,0.2-0.2c0.1-0.2,0.3-0.4,0.5-0.5c0.3-0.4,0.7-0.7,1-1.1c0.3-0.3,0.7-0.6,1-0.9
					c0.5-0.4,0,0,0.3-0.2c0.2-0.2,0.4-0.3,0.6-0.5c0.8-0.6,1.7-1,2.5-1.5c0.2-0.1,0.4-0.2,0.6-0.3c0.3-0.1-0.1,0.1-0.1,0.1
					c0.1-0.1,0.2-0.1,0.4-0.1c0.5-0.2,0.9-0.3,1.4-0.5c0.9-0.3,1.9-0.5,2.9-0.7c0.5-0.1,0.9-0.2,1.4-0.2c0.4-0.1-0.4,0.1-0.1,0
					c0.1,0,0.2,0,0.3,0c0.3,0,0.5-0.1,0.8-0.1c2-0.2,4-0.2,6,0c0.2,0,0.5,0,0.7,0.1c0.2,0,0.7,0.1,0.2,0c0.5,0.1,1,0.1,1.4,0.2
					c0.9,0.2,1.9,0.4,2.8,0.6c0.9,0.2,1.7,0.5,2.6,0.8c0.2,0.1,0.4,0.1,0.6,0.2c0.1,0,0.2,0.1,0.2,0.1c0.3,0.1-0.4-0.2-0.1-0.1
					c0.4,0.2,0.8,0.3,1.1,0.5c0.8,0.4,1.6,0.8,2.3,1.3c0.2,0.1,0.3,0.2,0.5,0.3c-0.4-0.3-0.2-0.2,0,0c0.3,0.2,0.6,0.5,0.8,0.8
					c0.1,0.2,0.8,0.9,0.5,0.5c-0.3-0.4,0.1,0.1,0.2,0.2c0.1,0.1,0.2,0.3,0.2,0.4c0.1,0.1,0.1,0.3,0.2,0.4c0.2,0.3-0.2-0.6,0-0.1
					c0.1,0.3,0.2,0.6,0.2,0.9c1.5-0.6,3-1.3,4.6-1.9c-1.3-2.6,0.1-6,2.5-7.8c2.8-2.1,6.9-1.6,9.8,0c3.9,2.1,6.5,5.7,8.3,9.7
					c2,4.3,3.4,8.9,4.4,13.5c2,8.8,2.3,18.5-1.6,26.8c-3.2,6.8-8.9,12.9-16.5,14.4c-7.3,1.5-15.8-1.5-19.4-8.3
					c-0.6-1.1-2.3-1.6-3.4-0.9c-9,6-21.5,11.1-31.8,5c-8.5-5-12.4-16.1-8-25.1c2.4-4.9,6.6-8.9,11.9-10.7
					C908.4,525.6,907.1,520.7,904,521.7L904,521.7z"/>
			</g>
		</g>
		<g>
			<g>
				<path class="st1" d="M964.5,617.2c4.4-4.5,8.3-11.4,4.3-17.5c-3.3-4.9-9.6-7-15.2-7.7c-5.3-0.7-11.7-0.2-16.1,3.3
					c-2.8,2.3-3.6,5.9-4,9.3c-0.4,4.3,0.6,8.9,2.9,12.6c2.6,4.1,6.8,6.9,11.7,7.3C954.4,625.1,960.2,621.4,964.5,617.2
					c2.3-2.2-1.2-5.8-3.5-3.5c-3.2,3.1-7.4,5.9-11.7,5.9c-3.1,0-5.7-1.3-7.8-3.8c-2-2.4-3-6-3-9.3c0-1.9,0.3-3.5,0.9-5.4
					c0.1-0.2,0.2-0.4,0.2-0.6c-0.2,0.7-0.1,0.3,0,0.1c0.1-0.2,0.2-0.3,0.3-0.5c0.1-0.2,0.6-0.7,0.1-0.2c0.2-0.2,0.3-0.3,0.5-0.5
					c0.2-0.2,0.3-0.3,0.5-0.5c0.3-0.3-0.1,0.1-0.2,0.1c0.1-0.1,0.2-0.1,0.3-0.2c0.4-0.3,0.9-0.5,1.3-0.8c0.2-0.1,0.9-0.4,0.2-0.1
					c0.3-0.1,0.5-0.2,0.8-0.3c0.5-0.2,1.1-0.3,1.7-0.5c0.5-0.1,1.1-0.2,1.6-0.3c0.5-0.1,0,0-0.1,0c0.2,0,0.4,0,0.6-0.1
					c0.3,0,0.6-0.1,0.9-0.1c1.2-0.1,2.5-0.1,3.7,0c0.3,0,0.7,0.1,1,0.1c0.1,0,0.3,0,0.4,0c0.6,0.1-0.4-0.1,0,0
					c0.7,0.1,1.3,0.2,2,0.3c1.2,0.3,2.5,0.6,3.7,1c0.2,0.1,0.5,0.2,0.7,0.3c-0.6-0.3,0.3,0.1,0.4,0.2c0.5,0.3,1.1,0.5,1.6,0.9
					c0.4,0.3,0.9,0.6,1.3,0.9c-0.6-0.4,0.2,0.1,0.3,0.2c0.2,0.2,0.4,0.4,0.6,0.6c0.2,0.2,0.4,0.5,0.6,0.7c0.1,0.1,0.2,0.4-0.1-0.1
					c0.1,0.1,0.2,0.3,0.3,0.4c0.1,0.2,0.3,0.5,0.4,0.7c0.1,0.1,0.1,0.2,0.2,0.3c0.2,0.4-0.2-0.5,0,0c0.1,0.2,0.2,0.5,0.2,0.7
					c0,0.1,0.2,1,0.1,0.6c0-0.4,0,0.5,0,0.6c0,0.3,0,0.6,0,0.8c0,0.6,0.1-0.6,0,0c0,0.2-0.1,0.4-0.1,0.5c-0.1,0.3-0.2,0.6-0.3,0.9
					c-0.1,0.2-0.1,0.3-0.2,0.5c-0.1,0.1,0.2-0.3-0.1,0.2c-0.2,0.4-0.3,0.7-0.5,1.1c-1,1.8-1.9,2.8-3.3,4.3
					C958.7,616,962.3,619.5,964.5,617.2L964.5,617.2z"/>
			</g>
		</g>
		<g>
			<g>
				<path class="st1" d="M653.2,198.6c-0.9-18.1,1.9-36.3,7.9-53.4c5.9-16.9,15.1-32.9,26.8-46.5c12-13.9,26.6-25.3,43-33.4
					c16.7-8.2,35-13.1,53.6-14.4c18.6-1.3,37.4,0.9,55.1,6.8c2.2,0.7,4.4,1.5,6.5,2.4c1.3,0.5,2.7-0.5,3.1-1.7
					c0.4-1.4-0.5-2.6-1.7-3.1c-17.9-7-37.2-10.2-56.4-9.6c-19.3,0.5-38.4,4.7-56.1,12.4c-17.4,7.5-33.1,18.6-46.1,32.4
					c-12.9,13.6-23,29.7-30,47.1c-6.9,17.2-10.7,35.8-10.7,54.3c0,2.3,0.1,4.6,0.2,6.9C648.4,201.8,653.4,201.8,653.2,198.6
					L653.2,198.6z"/>
			</g>
		</g>
		<g>
			<g>
				<path class="st1" d="M848.5,59.3c18.1-14.9,39-26.6,61.2-34.1c11.5-3.9,23.4-6.8,35.4-8.2c10.2-1.2,20.4-1.1,30.6-0.1
					c21.4,2.1,42.8,8,62.1,17.6c18.4,9.2,34.5,23.1,46.5,39.8c12.2,16.9,19.1,36.8,18.7,57.7c0,2.7-0.2,5.4-0.5,8
					c-0.1,1.3,1.2,2.5,2.5,2.5c1.5,0,2.4-1.2,2.5-2.5c2-21.7-3.1-43.2-14.6-61.7c-5.8-9.3-12.9-17.8-20.8-25.3
					c-7.6-7.3-15.9-13.8-25-19.1c-19.1-11-40.9-17.7-62.7-20.9c-10.6-1.6-21.4-2.3-32.2-1.6c-12,0.7-24,3.1-35.5,6.4
					c-23.4,6.7-45.5,18-64.9,32.6c-2.3,1.8-4.7,3.6-6.9,5.5c-1,0.9-0.9,2.6,0,3.5C846,60.4,847.5,60.2,848.5,59.3L848.5,59.3z"/>
			</g>
		</g>
		<g>
			<g>
				<path class="st1" d="M1105.8,142.4c13.3-5,27.5-7.4,41.7-5.9c13.3,1.4,26,6.4,37,13.8c11.1,7.5,20.8,17.2,27.5,28.8
					c6.5,11.2,10.4,23.8,11.7,36.6c1.3,13,0,26.3-4.1,38.7c-0.5,1.6-1.1,3.1-1.7,4.7c-0.5,1.3,0.5,2.7,1.7,3.1
					c1.4,0.4,2.6-0.5,3.1-1.7c5-12.8,7.1-26.7,6.3-40.3c-0.7-13.7-4.2-27.2-10.4-39.4c-6.5-12.7-15.9-23.2-27.3-31.8
					c-11.2-8.4-24.2-14.4-38-16.7c-14.5-2.5-29.3-1.1-43.2,3.3c-1.9,0.6-3.8,1.3-5.7,2c-1.3,0.5-2.1,1.7-1.7,3.1
					C1103.1,141.9,1104.5,142.9,1105.8,142.4L1105.8,142.4z"/>
			</g>
		</g>
	</g>
</g>
</svg>
