<?xml version="1.0" encoding="utf-8"?>
<!-- Generator: Adobe Illustrator 24.3.0, SVG Export Plug-In . SVG Version: 6.00 Build 0)  -->
<svg version="1.1" xmlns="http://www.w3.org/2000/svg" xmlns:xlink="http://www.w3.org/1999/xlink" x="0px" y="0px"
	 viewBox="0 0 1920 1080" style="enable-background:new 0 0 1920 1080;" xml:space="preserve">
<style type="text/css">
	.st0{fill:#66FF74;}
	.st1{fill:#A5A5A5;}
</style>
<g id="МЫСЛИШКИ">
	<g id="_x33_">
		<path class="st0" d="M1590.8,279.1c23.5-0.8,47.6,1.4,68.9,11.2c34.4,15.8,57.4,49.1,73.5,83.3s27,70.9,46.3,103.4
			c-33.6,18.1-73.1,20.2-111.2,22c-12.2,0.6-24.5,1.2-36.8,0.2c-19.1-1.5-37.6-6.7-55.9-12.3c-42.9-13.2-87.6-30.6-114.4-66.6
			c-10.9-14.6-18.2-31.5-24-48.6c-3.9-11.6-9-25.5-2-37c7.8-12.7,25.9-20,38.6-26.3c17.1-8.4,35-15.1,53.3-19.9
			C1548,283,1569.4,279.8,1590.8,279.1z"/>
		<g>
			<g>
				<path d="M1400.1,359.6c19.5-21.1,46-34.7,72.8-44c13.5-4.7,27.4-8.3,41.5-11c16.3-3.1,32.8-5.4,49.4-5.6
					c16.4-0.3,32.8,1.4,48.5,6.2c14.1,4.3,27.3,11.4,39,20.4c23.1,17.7,40.3,42.1,53.4,67.8c15.6,30.5,26.2,63.2,39,94.9
					c1.6,3.8,3.1,7.7,4.8,11.5c0.5,1.3,2.4,1.5,3.4,0.9c1.3-0.7,1.4-2.2,0.9-3.4c-13.7-32.1-24.2-65.5-39.2-97
					c-12.9-27.1-29.5-53.1-52.3-72.9c-11-9.5-23.3-17.5-36.8-23c-15.4-6.4-32.1-9.4-48.7-10.1c-16.9-0.7-33.8,0.9-50.5,3.5
					c-14.9,2.4-29.7,5.6-44.1,10c-27.8,8.5-55.4,21.2-77.1,41c-2.6,2.4-5.1,4.8-7.4,7.4C1394.4,358.4,1397.9,362,1400.1,359.6
					L1400.1,359.6z"/>
			</g>
		</g>
		<g>
			<g>
				<path d="M1395.8,357.8c1.9,27.4,12.3,53.7,28.2,75.9c16.3,22.7,38,41,62.2,54.9c24.1,13.8,50.6,23.6,77.7,29.2
					c27.7,5.7,56.2,7.2,84.4,5.1c31-2.3,61.7-8.8,91.3-18.2c3.9-1.2,7.7-2.5,11.6-3.9c3-1,1.7-5.9-1.3-4.8
					c-29.1,10.1-59.3,17.5-90,20.8c-27.9,3-56.3,2.7-84.1-1.9c-26.7-4.4-52.8-12.9-76.9-25.1c-24.4-12.4-46.9-29.1-64.3-50.3
					c-16.9-20.6-28.9-45.5-32.8-72c-0.5-3.2-0.8-6.4-1-9.6C1400.6,354.6,1395.6,354.6,1395.8,357.8L1395.8,357.8z"/>
			</g>
		</g>
		<g>
			<g>
				<path d="M1588.5,311.1c-16.7-2.7-34.1-0.9-50.2,4.2c-15.8,5-31.1,13.4-42.2,26c-5.5,6.2-9.7,13.2-12.6,21
					c-3.1,8.4-4.6,17.3-4.9,26.1c-0.5,17.7,4.3,35.6,13.6,50.7c4.6,7.6,10.4,14.5,17.2,20.2c8,6.8,17.3,11.9,27,15.7
					c10,4,20.6,6.5,31.2,8.3c9.7,1.6,19.6,2.8,29.5,2.8c18.7,0,38.6-4.4,52-18.5c14.1-14.9,17.9-36.8,17.4-56.6
					c-0.5-21.6-6.4-43.3-18.6-61.3c-11-16.2-27.1-29.1-45.7-35.3C1597.7,312.9,1593.1,311.8,1588.5,311.1c-1.3-0.2-2.7,0.3-3.1,1.7
					c-0.3,1.2,0.4,2.9,1.7,3.1c18.5,2.6,35.4,12.3,48.1,25.9c13.8,14.8,21.8,34.1,24.9,54c1.5,10,1.7,20.3,0.7,30.4
					c-1,9.4-3.3,18.8-7.8,27.2c-4.3,8-10.5,14.6-18.4,19.1c-7.6,4.4-16.2,6.8-24.9,7.8c-9.2,1.1-18.5,0.9-27.8,0
					c-10-1-20-2.8-29.7-5.4c-9.9-2.7-19.6-6.3-28.5-11.6c-7.7-4.5-14.5-10.3-20.3-17.1c-10.7-12.8-17.5-29-19.3-45.6
					c-1.8-16.1,0.7-33.6,9.3-47.6c8.2-13.3,21.5-22.8,35.7-29c14.7-6.5,31-9.6,47.1-9.1c3.7,0.1,7.4,0.5,10.9,1
					c1.3,0.2,2.7-0.3,3.1-1.7C1590.6,313,1589.9,311.3,1588.5,311.1L1588.5,311.1z"/>
			</g>
		</g>
		<g>
			<g>
				<path d="M1565.1,366.1c2.6-9.3-4.1-19.2-13.2-21.7c-10.3-2.8-20.9,2.8-26.7,11.2c-5.7,8.3-7.8,19.4-6.6,29.2
					c1.2,9.8,5,19.1,10.5,27.2c6.2,9.2,14.4,17.1,24.1,22.5c2.8,1.6,5.3-2.8,2.5-4.3c-15-8.3-27.1-23.5-31.2-40.3
					c-2-8.5-1.6-17.5,1.6-25.6c3.2-8.1,10.4-15.2,19.5-15.6c4.5-0.2,8.6,1.4,11.6,4.8c2.7,3.1,4.1,7.3,3,11.3
					C1559.4,367.9,1564.2,369.2,1565.1,366.1L1565.1,366.1z"/>
			</g>
		</g>
		<g>
			<g>
				<path d="M1564.5,367.2c4.9-5.5,12.4-9.7,19.9-9.7c7.6,0.1,14,5.9,17,12.5c7.7,17-9.7,32.6-21.3,42.4
					c-8.2,6.9-17.2,12.9-26.7,17.9c-2.8,1.5-0.3,5.8,2.5,4.3c9.2-4.9,17.9-10.7,26-17.2c7.6-6.2,15.3-13.2,20.7-21.5
					c5.1-7.9,7.4-17.6,3.9-26.6c-3.1-7.9-10.2-15.2-18.9-16.5c-9.8-1.4-20.1,3.7-26.5,10.9c-0.9,1-1,2.5,0,3.5
					C1561.8,368.2,1563.6,368.3,1564.5,367.2L1564.5,367.2z"/>
			</g>
		</g>
	</g>
</g>
<g id="ОБЛАЧЕЧИ">
	<g id="_x33__1_">
		<g>
			<g>
				<path class="st1" d="M1360,433c-2.5,39.4,11.2,79.9,34.9,111.2c25.6,33.7,64.3,55.4,103.6,69.5c20.8,7.5,42.2,13,63.9,17
					c22.5,4.2,45.4,6.7,68.4,6.4c42.5-0.5,85.4-11.4,119.8-37.2c29.2-22,51.6-54,54.8-91.1c0.4-4.6,0.5-9.1,0.3-13.7
					c-0.1-3.2-5.1-3.2-5,0c0.8,17.8-3.1,35.4-10.9,51.4c-7.9,16.1-19.4,30.3-32.9,42.1c-31,27.1-71.3,40.4-111.9,43.1
					c-22.3,1.5-44.7,0-66.7-3.3c-21.4-3.2-42.7-8-63.3-14.4c-20.3-6.3-40-14.3-58.6-24.7c-17.7-10-34.6-22.1-48.4-37.1
					c-25.8-28.3-41.8-66.7-43.1-105.1c-0.2-4.6-0.1-9.3,0.2-13.9C1365.2,429.7,1360.2,429.8,1360,433L1360,433z"/>
			</g>
		</g>
		<g>
			<g>
				<path class="st1" d="M1363.2,430.6c-12.5-3.3-23.9-10.3-33-19.5c-9-9.2-15.9-20.5-19.5-32.9c-3.9-13.2-3.7-27.3,0.3-40.4
					c4.1-13.2,11.9-25.3,22.2-34.4c10.4-9.2,24.4-14.7,37.9-17.4c1.7-0.3,3.3-0.6,5-0.9c1.3-0.2,2.1-1.9,1.7-3.1
					c-0.4-1.4-1.7-1.9-3.1-1.7c-7.3,1-14.4,3-21.3,5.6c-6.9,2.7-13.7,6.1-19.7,10.6c-11.7,8.8-20.6,21.3-25.9,34.9
					c-5.3,13.7-6.6,28.9-3.4,43.2c3,13.5,9.7,26.1,18.7,36.4c9,10.3,20.6,18.4,33.6,22.9c1.6,0.6,3.2,1,4.9,1.5
					C1364.9,436.2,1366.3,431.4,1363.2,430.6L1363.2,430.6z"/>
			</g>
		</g>
		<g>
			<g>
				<path class="st1" d="M1332.1,570.2c1.1-10.2-0.7-21.2-8.3-28.7c-6-5.8-14.4-8.5-22.6-9c-7.8-0.5-15.9,0.9-22.5,5.2
					c-11.6,7.5-18.2,21.7-16,35.4c2.1,13.3,12.9,24.8,25.8,28.3c1.7,0.5,3.4,0.8,5.2,1c1.3,0.2,2.5-1.3,2.5-2.5
					c0-1.5-1.2-2.3-2.5-2.5c-11.7-1.4-22-10.6-25.3-21.8c-3.4-11.6,1.5-24.6,10.8-32c1.1-0.9,2.3-1.7,3.6-2.4
					c0.7-0.4,1.4-0.7,2.1-1.1c0.7-0.3,0.6-0.3,1.1-0.5c1.3-0.5,2.6-0.9,3.9-1.2c0.7-0.2,1.5-0.3,2.2-0.4c0.2,0,0.4-0.1,0.5-0.1
					c0.1,0,0.8-0.1,0.4-0.1c-0.4,0.1,0.2,0,0.3,0c0.2,0,0.4-0.1,0.7-0.1c1.7-0.2,3.4-0.3,5.1-0.2c0.9,0,1.8,0,2.7,0.1
					c0.4,0,0.9,0.1,1.3,0.1c0.2,0,0.4,0,0.6,0.1c0.2,0,0.8,0.1,0.3,0c1.8,0.3,3.6,0.6,5.4,1.1c0.9,0.3,1.8,0.5,2.6,0.9
					c0.2,0.1,0.4,0.2,0.6,0.2c0.1,0,0.2,0.1,0.3,0.1c0.4,0.1-0.4-0.2,0,0c0.4,0.2,0.8,0.4,1.3,0.6c0.8,0.4,1.6,0.8,2.4,1.3
					c0.4,0.2,0.8,0.5,1.2,0.8c0.2,0.1,0.4,0.2,0.5,0.4c0.1,0.1,0.6,0.5,0.3,0.2c1.5,1.2,2.8,2.5,4,4c0.3,0.4-0.1-0.2,0.2,0.2
					c0.2,0.2,0.3,0.4,0.5,0.6c0.3,0.4,0.6,0.8,0.8,1.3c0.5,0.9,1,1.8,1.4,2.7c0.2,0.4,0-0.1,0.1,0.3c0.1,0.3,0.2,0.5,0.3,0.8
					c0.2,0.5,0.4,1,0.5,1.6c0.3,1.1,0.6,2.2,0.8,3.4c0.4,2.3,0.6,4.9,0.5,7.5c0,1.5-0.2,3-0.3,4.5c-0.1,1.3,1.3,2.5,2.5,2.5
					C1331.1,572.7,1332,571.5,1332.1,570.2L1332.1,570.2z"/>
			</g>
		</g>
		<g>
			<g>
				<path class="st1" d="M1320.7,572c11.1-1.5,20.6,6.5,25.6,15.7c4.8,8.8,5.6,19.5,3.5,29.2c-2.1,9.8-7.2,18.9-14.7,25.7
					c-8.3,7.4-20.4,12-31.5,9.1c-5.7-1.5-10.5-5.1-13.3-10.3c-2.5-4.6-3.4-10.3-1.1-15.1c0.6-1.2,0.3-2.7-0.9-3.4
					c-1.1-0.6-2.8-0.3-3.4,0.9c-5.1,11,0.7,24.4,10.9,30.2c11.9,6.7,27.3,3.4,38.1-4c18.7-13,27.4-39.5,18.5-60.7
					c-5.1-12.3-17.4-24-31.7-22.1c-1.3,0.2-2.5,1-2.5,2.5C1318.2,570.7,1319.3,572.2,1320.7,572L1320.7,572z"/>
			</g>
		</g>
		<g>
			<g>
				<path class="st1" d="M1273.7,587.1c-5.3,0.7-9.8,3.5-12.7,8c-2.8,4.3-3.6,9.6-2.7,14.6c1.7,8.9,7.9,16.9,17.1,18.6
					c4.1,0.7,8.3,0.4,12.2-0.9c3-1,1.7-5.9-1.3-4.8c-0.7,0.2-1.4,0.4-2,0.6c-0.3,0.1-0.7,0.2-1,0.2c-0.2,0-0.3,0.1-0.5,0.1
					c-0.2,0-0.3,0.1-0.5,0.1c0.2,0,0.3,0,0.1,0c-1.5,0.2-3,0.2-4.5,0.1c-0.2,0-0.4,0-0.6-0.1c0.4,0.1,0,0-0.1,0
					c-0.4-0.1-0.8-0.1-1.2-0.2c-0.8-0.2-1.6-0.4-2.4-0.7c-1-0.4-2.7-1.3-3.9-2.2c-0.2-0.2-1.1-1-1.5-1.4c-0.7-0.7-1.1-1.3-1.6-2
					c-1.1-1.7-2-3.5-2.6-5.4c-1.3-3.9-1.5-8,0.2-11.8c1.7-3.9,5.2-7.1,9.5-7.6c1.3-0.2,2.5-1,2.5-2.5
					C1276.2,588.4,1275,587,1273.7,587.1L1273.7,587.1z"/>
			</g>
		</g>
		<g>
			<g>
				<path class="st1" d="M1249.1,663.3c1.5-5.3,2.4-12.1-1.5-16.7c-2.8-3.3-7.5-3.7-11.4-2.8c-4.1,1-8,3.4-10.5,6.9
					c-2.5,3.4-3,8-0.6,11.5c4.5,6.7,15.1,9.7,21.6,4.2c0.8-0.7,1.5-1.6,2.1-2.5c0.7-1.1,0.2-2.8-0.9-3.4c-1.2-0.7-2.7-0.2-3.4,0.9
					c0,0-0.5,0.7-0.2,0.3c-0.1,0.2-0.3,0.4-0.4,0.5c-0.3,0.3-0.5,0.5-0.8,0.8c0.4-0.3-0.1,0.1-0.2,0.1c-0.2,0.1-0.4,0.2-0.6,0.3
					c-0.2,0.1-0.4,0.2-0.6,0.3c-0.5,0.2,0.3-0.1-0.2,0.1c-0.4,0.1-0.8,0.3-1.3,0.4c-0.1,0-0.3,0.1-0.4,0.1c-0.7,0.1,0.5,0-0.2,0
					c-0.4,0-0.9,0.1-1.3,0c-0.2,0-0.3,0-0.5,0c-0.1,0-1-0.1-0.5,0c-0.8-0.1-1.7-0.3-2.5-0.6c-0.2-0.1-0.4-0.2-0.7-0.2
					c0.4,0.1,0,0-0.1,0c-0.5-0.2-1-0.5-1.5-0.8c-0.3-0.2-0.7-0.4-1-0.6c0,0-0.6-0.5-0.3-0.2c-0.2-0.2-0.4-0.3-0.5-0.5
					c-0.3-0.3-0.6-0.5-0.9-0.8c-0.1-0.1-0.4-0.6-0.6-0.7c0.2,0.1,0.3,0.5,0.2,0.2c-0.1-0.1-0.1-0.2-0.2-0.3
					c-0.1-0.2-0.2-0.4-0.4-0.6c-0.1-0.2-0.2-0.3-0.3-0.5c-0.3-0.5,0.2,0.6,0-0.1c-0.1-0.4-0.2-0.7-0.3-1.1c-0.1-0.6,0,0.7,0,0
					c0-0.2,0-0.4,0-0.6c0-0.2,0-0.4,0-0.6c0-0.3-0.1,0.8,0,0.1c0.1-0.4,0.2-0.8,0.3-1.1c0-0.1,0.1-0.2,0.1-0.3
					c0.1-0.4-0.3,0.5-0.1,0.3c0.1-0.2,0.2-0.3,0.2-0.5c0.2-0.4,0.4-0.7,0.6-1.1c0.1-0.1,0.2-0.3,0.3-0.4c0.2-0.4-0.4,0.5-0.1,0.2
					c0.1-0.1,0.1-0.2,0.2-0.2c0.3-0.3,0.6-0.6,0.9-1c0.3-0.3,0.6-0.6,0.9-0.8c0.1,0,0.1-0.1,0.2-0.1c0.3-0.2,0.1-0.3-0.2,0.1
					c0.1-0.2,0.4-0.3,0.6-0.4c0.7-0.5,1.4-0.9,2.2-1.3c0.2-0.1,0.4-0.2,0.6-0.3c0.6-0.3-0.6,0.2,0,0c0.4-0.2,0.8-0.3,1.3-0.5
					c0.4-0.1,0.8-0.2,1.2-0.3c0.2,0,0.4-0.1,0.6-0.1c0.1,0,0.2,0,0.3,0c0.6-0.1-0.6,0-0.1,0c0.8-0.1,1.6-0.1,2.4,0
					c0.1,0,0.1,0,0.2,0c0.4,0-0.7-0.1-0.3,0c0.2,0,0.4,0.1,0.6,0.1c0.4,0.1,0.7,0.2,1.1,0.3c0.4,0.1-0.6-0.3,0,0
					c0.2,0.1,0.3,0.2,0.5,0.3c0.2,0.1,0.3,0.2,0.4,0.3c0.5,0.3-0.5-0.4,0,0c0.2,0.2,0.3,0.3,0.5,0.5c0,0,0.1,0.1,0.1,0.1
					c0.4,0.4-0.1,0.1-0.1-0.1c0,0.1,0.6,1,0.7,1.2c0,0.1,0.1,0.2,0.1,0.3c0.2,0.4-0.2-0.6-0.1-0.2c0.1,0.3,0.2,0.5,0.3,0.8
					c0.1,0.3,0.5,1.2,0.3,1.5c0.1-0.2-0.1-0.6,0-0.1c0,0.2,0,0.4,0,0.6c0,0.3,0,0.6,0,0.9c0,0.7,0,1.5-0.1,2.2c0,0.2,0,0.4-0.1,0.5
					c-0.1,0.6,0.1-0.6,0,0.1c-0.1,0.5-0.2,0.9-0.2,1.4c-0.2,0.9-0.4,1.9-0.7,2.8c-0.4,1.3,0.4,2.7,1.7,3.1
					C1247.3,665.4,1248.7,664.6,1249.1,663.3L1249.1,663.3z"/>
			</g>
		</g>
		<g>
			<g>
				<path class="st1" d="M1409.6,282.3c10-20.9,28.5-37.3,50.3-45.1c22.1-7.8,46.7-5.9,67.6,4.6c11.8,5.9,22.3,14.4,30.3,24.9
					c1,1.3,2.6,1.7,3.9,0.5c24.2-22.1,53.5-38.4,84.8-47.9c31.2-9.5,64.4-12.5,96.8-8.4c33.4,4.2,66.8,16.3,93.8,36.7
					c27.9,21.1,48.4,53.5,48.9,89.3c0.4,31.6-17.6,63.7-47.7,75.8c-3.5,1.4-7.1,2.5-10.8,3.3c-1.7,0.4-2.6,3-1.1,4.2
					c10.1,8.1,15.9,20.7,15.6,33.6c-0.3,13.3-7.9,24.2-18.9,31.3c-6,3.9-12.9,6.7-20.1,7.5c-3.2,0.4-3.2,5.4,0,5
					c14.2-1.7,27.8-9.4,36.3-20.9c8.6-11.6,9.6-27.3,4.5-40.6c-2.9-7.6-7.6-14.4-14-19.4c-0.4,1.4-0.7,2.8-1.1,4.2
					c31.9-7,55.9-36.1,61-67.7c5.8-36.4-10.4-73-36.4-98.1c-25.5-24.5-59.6-39.6-94-46.5c-33.4-6.7-68.1-5.6-101.2,2.4
					c-33,8-64.3,23.2-90.7,44.7c-3.2,2.6-6.3,5.3-9.4,8.1c1.3,0.2,2.6,0.3,3.9,0.5c-15.2-19.9-38.1-32.9-62.8-36.1
					c-24.5-3.2-49.2,4.5-68.5,19.8c-10.8,8.6-19.6,19.5-25.6,31.9C1403.9,282.6,1408.2,285.2,1409.6,282.3L1409.6,282.3z"/>
			</g>
		</g>
		<g>
			<g>
				<path class="st1" d="M1409.3,281.5c-0.8-4.3-2.6-8.5-4.9-12.1c-2-3.1-4.6-6.4-8-8c-4-1.9-8.6-1.9-12.8-1c-2.1,0.5-4,1.1-5.6,2.5
					c-1.4,1.2-2.4,2.8-3.1,4.4c-2.2,4.9-2.2,10.1-1.9,15.3c0.2,3.2,5.2,3.2,5,0c-0.3-5.5-0.9-15.3,5.9-17.1c3.2-0.9,6.9-1.2,10,0.2
					c2.5,1.1,4.4,3.5,5.9,5.8c2.3,3.5,4,7.3,4.8,11.4c0.3,1.3,1.8,2.1,3.1,1.7C1409,284.2,1409.6,282.8,1409.3,281.5L1409.3,281.5z"
					/>
			</g>
		</g>
	</g>
</g>
</svg>
