<?xml version="1.0" encoding="utf-8"?>
<!-- Generator: Adobe Illustrator 24.3.0, SVG Export Plug-In . SVG Version: 6.00 Build 0)  -->
<svg version="1.1" xmlns="http://www.w3.org/2000/svg" xmlns:xlink="http://www.w3.org/1999/xlink" x="0px" y="0px"
	 viewBox="0 0 1920 1080" style="enable-background:new 0 0 1920 1080;" xml:space="preserve">
<style type="text/css">
	.st0{fill:#FFC215;}
</style>
<g id="ПЧЕЛ">
	<path class="st0" d="M974.9,890.6c11,2.2,15.6,15.1,18.3,26c9.1,37.1,18.3,74.1,27.4,111.2c21.5,0.6,42.9,1.2,64.4,1.8
		c-0.1,3.9-0.2,7.9-0.3,11.8c32.1,0.2,64.2,0.5,96.4,0.7c-0.7-22.9-1.5-45.8-2.2-68.7c30.8-21,47.8-60.5,42-97.3s-34-69.2-69.7-79.8
		c-7-2.1-15.6-4.6-17.5-11.7c-2-7.4,3.6-15.4,10.3-19.2c50.7-29,42.5-90.8,23.7-131.2s-65.1-58.3-109.4-53.6
		c-19.6,2.1-39.6,10.4-51,26.5c-11.4,16.1-11.7,40.7,2.8,54.1c12.3,11.4,30.9,12.2,47.7,11.7c-9.6-0.7-19.3,6.3-21.5,15.8
		c-2.2,9.4,3.4,20,12.4,23.6c-9.6,21.5,1.1,49.8,22.4,59.7c-1.8,5-3.6,10-5.4,15c-0.4,1-15.4,3.6-17.3,4.3c-5.6,1.9-11.1,4.2-16.4,7
		c-11,5.7-21,13.2-29.6,22.1c-7.9,8.2-10.1,17.1-13.6,27.9C984.1,862.3,979.5,876.4,974.9,890.6z"/>
	<g id="Слой_9">
		<g id="контур">
		</g>
		<g>
			<g>
				<path d="M1069.2,761.4c17.8,10.8,39.3,15.4,60,12.7c5-0.7,10-1.7,14.9-3.2c2.7-0.9,5.3-2.3,7.8-3.6c2.5-1.3,5-2.7,7.4-4.3
					c4.4-2.9,8.3-6.5,11.8-10.4c3.5-3.8,6.7-8,9.2-12.5c2.5-4.6,4.4-9.6,6.2-14.5c1.7-4.8,3.1-9.7,4.2-14.7
					c2.2-10.1,3.2-20.4,2.7-30.7c-0.4-10.4-2.3-20.7-5.5-30.6c-1.7-5.1-3.7-10.1-6.1-14.9c-1.2-2.4-2.4-4.8-3.8-7.1
					c-0.7-1.1-1.3-2.3-2-3.4c-0.8-1.2-1.7-2.2-2.6-3.4c-1.5-1.9-2.5-4-3.9-5.9c-1.4-1.9-2.9-3.8-4.4-5.6c-3-3.5-6.1-6.8-9.6-9.8
					c-6.8-6.1-14.3-11.2-22.4-15.3c-16-8-34.1-11.9-52-11c-18.1,0.9-36.5,6.3-50.7,17.8c-6.9,5.6-12.8,12.6-16.7,20.6
					c-4,8.1-7,17.8-4.7,26.9c2.3,9,9.1,16.2,17,20.7c8.3,4.8,17.5,7.8,27.1,8.3c8.5,0.4,17.1-0.2,25.5-1.4c2.7-0.4,5.3-0.8,7.9-1.8
					c5.1-2.1,10.1-4.6,14.7-7.6c4.5-2.9,8.8-6.2,12.7-9.9c-1.3-1-2.6-2-3.9-3c-2,3-3.8,6.4-3.8,10.1c0,3.3,1.6,6.5,4.7,7.9
					c2.5,1.1,5.2,1.7,7.9,2.1c1.1,0.2,2.2,0.3,3.3,0.3c1.3,0,2.4-0.1,3.6,0.2c5.9,1.1,10.8,4.9,16,7.7c2.6,1.4,5.4,2.7,8.3,3.2
					c3.2,0.6,6,0.1,9.1-0.6c2.6-0.6,4.5-1,7.1-1c1.1,0,2.1,0,3.1,0.1c0.5,0.1-0.3-0.1,0.2,0c0.2,0,0.5,0.1,0.7,0.1
					c0.4,0.1,0.9,0.2,1.3,0.3c0.4,0.1,0.8,0.3,1.2,0.4c0.5,0.2-0.1,0,0.1,0c0.2,0.1,0.4,0.2,0.6,0.3c0.3,0.2,0.6,0.3,1,0.5
					c0.2,0.1,0.3,0.2,0.5,0.3c0.1,0,0.1,0.1,0.2,0.1c0.4,0.2-0.3-0.2,0,0c0.6,0.5,1.1,1,1.6,1.5c0.1,0.1,0.2,0.3,0.4,0.4
					c0.4,0.4-0.2-0.3,0.1,0.1c0.2,0.3,0.4,0.6,0.6,0.9c0.4,0.7,0.8,1.3,1.1,2c0.1,0.2,0.1,0.3,0.2,0.5c-0.2-0.5-0.1-0.1,0,0.1
					c0.1,0.4,0.3,0.7,0.4,1.1c0.5,1.5,0.9,3.1,1.2,4.7c0.1,0.4,0.1,0.8,0.2,1.3c0,0.2,0.1,0.4,0.1,0.5c0.1,0.5,0,0,0-0.1
					c0,0.1,0,0.2,0,0.4c0.1,0.9,0.2,1.7,0.3,2.6c0.2,1.7,0.3,3.3,0.4,5c0.2,3.2,0.3,6.3,0.9,9.4c0.4,2.3,1.1,4.9,2.8,6.5
					c0.4,0.4,0.9,0.8,1.4,1c1.2,0.6,2.7,0.3,3.4-0.9c0.6-1.1,0.3-2.8-0.9-3.4c-0.2-0.1-0.3-0.2-0.5-0.3c-0.3-0.1,0.3,0.3,0.2,0.2
					c0-0.1-0.2-0.1-0.2-0.2c-0.4-0.5-0.1-0.1-0.1,0c-0.1-0.2-0.3-0.4-0.4-0.6c-0.1-0.2-0.2-0.4-0.3-0.6c0-0.1,0.2,0.6,0.1,0.1
					c0-0.1-0.1-0.2-0.1-0.4c-0.2-0.5-0.3-1.1-0.4-1.6c-0.1-0.6-0.2-1.2-0.3-1.8c-0.1-0.6,0,0.5,0,0c0-0.1,0-0.3-0.1-0.4
					c0-0.4-0.1-0.7-0.1-1.1c-0.1-1.5-0.2-3-0.3-4.6c-0.4-6.7-0.7-13.7-3.5-19.9c-1.4-3-3.5-5.6-6.4-7.4c-3.3-2-7.4-2.6-11.3-2.4
					c-2.6,0.1-5.3,0.6-7.9,1.2c-1.3,0.3-2.6,0.7-3.7,0.8c-1.4,0.1-2.3-0.1-3.6-0.4c-5.6-1.4-10.3-5.1-15.4-7.7
					c-2.7-1.4-5.5-2.6-8.5-3.1c-1.5-0.2-2.8-0.2-4.3-0.2c-0.4,0-0.7,0-1.1-0.1c-0.2,0-0.4,0-0.7-0.1c-0.1,0-0.2,0-0.4,0
					c0.4,0.1-0.2,0-0.2,0c-1.3-0.2-2.6-0.4-3.9-0.8c-0.6-0.2-1.2-0.3-1.8-0.5c-0.6-0.2-0.7-0.2-1.3-0.6c-0.2-0.1-0.4-0.2-0.6-0.3
					c-0.3-0.2,0.3,0.3,0,0c-0.1-0.1-0.1-0.1-0.2-0.2c-0.3-0.4-0.7-1.1-0.8-1.8c-0.3-1.5,0.2-3,0.7-4.3c0.6-1.5,1.5-2.9,2.4-4.2
					c1.6-2.4-1.9-4.9-3.9-3c-7.5,7.1-16.4,12.8-26,16.6c-2.3,0.9-4.9,1.2-7.3,1.6c-1.3,0.2-3.5,0.4-5.2,0.6
					c-2.1,0.2-4.2,0.3-6.2,0.5c-8.1,0.4-16.3,0.5-24.1-1.8c-4.6-1.4-9.1-3.4-13.3-5.8c-3.7-2.1-7-4.9-9.7-8.2
					c-2.5-3.1-4.3-6.8-5-10.7c-0.8-4.2-0.2-8.3,1-12.3c2.2-8.1,6.4-15.6,12-21.9c11.5-12.9,27.7-19.7,44.6-22.4
					c16.7-2.7,34-0.8,49.9,5.1c16.1,5.9,30.5,16.2,41.4,29.4c1.4,1.7,2.8,3.4,4,5.3c1.3,2,2.5,4.1,4.1,5.9c1.6,1.9,2.8,4.2,4,6.3
					c1.3,2.3,2.5,4.6,3.6,6.9c4.3,9,7.3,18.6,9,28.4c3.3,19.3,1.1,39.2-5.3,57.6c-1.6,4.6-3.4,9.2-5.8,13.5
					c-2.4,4.2-5.3,8.1-8.6,11.6c-3.4,3.7-7.1,7.1-11.3,9.8c-2.3,1.4-4.6,2.8-7,4c-2.3,1.2-4.5,2.4-7,3.2
					c-18.8,5.6-39.2,4.4-57.4-2.8c-4.5-1.8-8.8-4-12.9-6.5C1069,755.4,1066.5,759.7,1069.2,761.4L1069.2,761.4z"/>
			</g>
		</g>
		<g>
			<g>
				<path d="M1074.2,787.8c8.1,4.3,16.8,7.7,25.9,9.3c9.4,1.7,19,1.5,28.4,0.3c6.4-0.8,12.7-2.1,18.9-3.7c3.1-0.8,1.8-5.6-1.3-4.8
					c-9.9,2.5-20,4.4-30.3,4.5c-8.6,0.1-17.1-1.1-25.3-3.8c-4.8-1.6-9.3-3.7-13.8-6C1073.9,782,1071.4,786.3,1074.2,787.8
					L1074.2,787.8z"/>
			</g>
		</g>
		<g>
			<g>
				<path d="M1075.5,781.7c-10,1.3-19.9,3.2-29.4,6.9c-8,3.1-15.5,7.4-21.9,13.1c-6.3,5.6-11.5,12.4-15.6,19.7
					c-4.8,8.6-8.4,17.9-11.4,27.4c-3.7,11.7-6.4,23.6-8.9,35.5c-0.4,1.7-0.7,3.4-1.1,5.2c-0.3,1.3,0.4,2.7,1.7,3.1
					c1.2,0.3,2.8-0.4,3.1-1.7c2.5-12.1,5.1-24.2,8.6-36.1c2.8-9.5,6-18.7,10.4-27.4c1.9-3.8,4.1-7.5,6.6-11c1.3-1.8,2-2.7,3.4-4.4
					c1.3-1.5,2.7-3,4.1-4.4c1.4-1.4,2.9-2.7,4.4-3.9c0.3-0.3,0.7-0.6,1.1-0.8c0.1,0,0.4-0.3,0,0c0.1-0.1,0.2-0.1,0.3-0.2
					c0.2-0.2,0.4-0.3,0.6-0.5c0.8-0.6,1.6-1.2,2.4-1.7c3.4-2.3,7.1-4.2,10.8-5.9c0.6-0.3,0.6-0.3,1-0.4c0.5-0.2,1.1-0.4,1.6-0.6
					c1-0.4,2-0.8,3.1-1.1c2.2-0.7,4.3-1.4,6.5-2c4.9-1.3,9.8-2.3,14.8-3c1.3-0.2,2.4-0.3,3.7-0.5c1.3-0.2,2.5-1,2.5-2.5
					C1078,783,1076.8,781.5,1075.5,781.7L1075.5,781.7z"/>
			</g>
		</g>
		<g>
			<g>
				<path d="M1025,836.5c-5.2,22.3-9.5,44.7-14.1,67.1c-1.2,6-2.5,12-3.8,18c-0.7,3.1,4.1,4.5,4.8,1.3c4.9-22.3,9.1-44.7,13.9-67
					c1.3-6.1,2.6-12.1,4-18.2C1030.5,834.7,1025.7,833.4,1025,836.5L1025,836.5z"/>
			</g>
		</g>
		<g>
			<g>
				<path d="M1027.3,1002.3c16.1-10,31.7-20.9,47.1-32c15.7-11.3,31.3-22.7,47.3-33.7c8.7-6,17.5-11.9,26.6-17.5
					c2.7-1.7,0.2-6-2.5-4.3c-16.1,10-31.7,20.9-47.1,32c-15.7,11.3-31.3,22.7-47.3,33.7c-8.7,6-17.5,11.9-26.6,17.5
					C1022,999.7,1024.5,1004,1027.3,1002.3L1027.3,1002.3z"/>
			</g>
		</g>
		<g>
			<g>
				<path d="M1078.3,1027.8c15.8-6.3,31.2-13.8,46.3-21.7c15.6-8.1,31.1-16.5,46.7-24.4c8.9-4.5,17.9-8.9,27.1-13
					c1.2-0.6,1.5-2.3,0.9-3.4c-0.7-1.3-2.2-1.4-3.4-0.9c-16.1,7.2-31.7,15.2-47.2,23.4c-15.3,8-30.4,16.2-46,23.7
					c-8.4,4.1-17,7.9-25.7,11.4c-1.3,0.5-2.1,1.7-1.7,3.1C1075.6,1027.3,1077.1,1028.3,1078.3,1027.8L1078.3,1027.8z"/>
			</g>
		</g>
		<g>
			<g>
				<path d="M1160.1,832.7c-4.8,21.6-9,43.3-12.6,65.2c-1,6.1-2,12.3-2.9,18.4c-0.2,1.3,0.3,2.7,1.7,3.1c1.2,0.3,2.9-0.4,3.1-1.7
					c3.3-21.9,7.2-43.7,11.7-65.3c1.3-6.1,2.6-12.2,3.9-18.3C1165.6,830.9,1160.8,829.6,1160.1,832.7L1160.1,832.7z"/>
			</g>
		</g>
		<g>
			<g>
				<path d="M1146.8,793.8c12.4,1.2,25.4,5.8,36.8,11.5c6,3,11.8,6.5,17,10.9c5.2,4.4,9.4,9.8,12.8,15.6c7.5,12.7,11,27.5,12.2,42.1
					c0.6,7.5,0.7,15,0.1,22.5c-0.6,7.7-2.2,15.3-4.5,22.7c-4.7,15-12.3,29.3-22.1,41.6c-1.2,1.5-2.4,2.9-3.6,4.3
					c-2.1,2.4,1.4,6,3.5,3.5c10.9-12.4,19.4-26.8,25.1-42.3c2.8-7.6,4.8-15.5,5.9-23.5c1.1-7.8,1.3-15.8,0.9-23.6
					c-0.7-15.5-3.7-31.2-10.7-45.1c-3.3-6.6-7.6-13-12.9-18.3c-4.9-4.9-10.7-8.8-16.6-12.2c-12-6.8-25.6-11.9-39.3-14
					c-1.5-0.2-3-0.4-4.6-0.6c-1.3-0.1-2.5,1.2-2.5,2.5C1144.3,792.7,1145.4,793.6,1146.8,793.8L1146.8,793.8z"/>
			</g>
		</g>
		<g>
			<g>
				<path d="M1054.2,671.3c-6.6,2.5-11.3,8.6-11.8,15.7c-0.5,6.7,3.6,13.5,9.5,16.6c6.8,3.6,15.2,2,20.9-2.8c6.1-5.2,6.5-14,3-20.8
					c-1.9-3.6-5-6.8-8.7-8.4C1062.9,669.8,1058.4,669.9,1054.2,671.3c-3.1,1-1.8,5.8,1.3,4.8c2.8-0.9,5.7-1.3,8.6-0.4
					c2.5,0.8,4.8,2.7,6.3,4.8c3,4.3,4.2,11.1,0.4,15.3c-3.7,4-9.7,5.8-14.9,4c-4.4-1.5-7.9-5.9-8.4-10.6c-0.6-5.5,2.9-11.3,8.1-13.2
					c1.3-0.5,2.1-1.7,1.7-3.1C1056.9,671.8,1055.4,670.8,1054.2,671.3L1054.2,671.3z"/>
			</g>
		</g>
		<g>
			<g>
				<path d="M1076.9,691.5c6.2-0.9,12.4-1.2,18.6-0.9c1.4,0.1,2.5-1.2,2.5-2.5c0-1.4-1.1-2.4-2.5-2.5c-6.7-0.3-13.3,0.1-19.9,1.1
					c-1.3,0.2-2.1,1.9-1.7,3.1C1074.2,691.2,1075.5,691.7,1076.9,691.5L1076.9,691.5z"/>
			</g>
		</g>
		<g>
			<g>
				<path d="M1109.6,670.7c-3.6,1.4-7.2,3.4-9.7,6.5c-1.2,1.5-2.2,3.1-2.9,5c-0.7,1.9-0.8,4.1-1.1,6.1c-0.4,4-0.2,8.4,2.1,11.8
					c2.1,3.2,5.5,5.3,9.2,6.3c7,1.9,15.7,0.7,21.6-3.7c3.4-2.5,5.5-6,6-10.2c0.5-4.2-0.6-8.6-2.5-12.4c-4.4-8.5-14.4-13.1-23.4-9.1
					c-1.2,0.6-1.5,2.3-0.9,3.4c0.7,1.3,2.2,1.5,3.4,0.9c5.7-2.6,12.3,0.6,15.5,5.5c3.3,5,4.7,12.6-0.1,17.1
					c-4,3.8-10.6,4.9-15.9,4.2c-2.6-0.3-5.3-1.3-7.3-3.1c-2.3-2.2-2.9-5.1-2.8-8.1c0.1-3.2,0.4-6.8,2.2-9.5c1.8-2.7,4.9-4.7,7.9-5.8
					c1.3-0.5,2.1-1.7,1.7-3.1C1112.4,671.2,1110.9,670.2,1109.6,670.7L1109.6,670.7z"/>
			</g>
		</g>
		<g>
			<g>
				<path d="M1132.5,693c7-0.1,13.9-0.2,20.9-0.4c1.7,0,3.4-0.1,5.2-0.1c1.2,0,2.4,0,3.5,0.2c2.6,0.7,2.5,3.2,2.4,5.5
					c-0.1,3.2,4.9,3.2,5,0c0.1-3.4-0.4-7-3.4-9.1c-2.8-1.9-6.5-1.6-9.8-1.5c-7.9,0.1-15.9,0.3-23.8,0.4
					C1129.3,688.1,1129.3,693.1,1132.5,693L1132.5,693z"/>
			</g>
		</g>
		<g>
			<g>
				<path d="M1059,702.5c-3.3,8.9-6.2,18.4-6.2,28.1c0,7.1,1.9,14,5.8,20c2.7,4.2,6.3,7.3,10.1,10.5c1,0.9,2.5,1,3.5,0
					c0.9-0.9,1-2.7,0-3.5c-3-2.5-6.2-5-8.5-8.2c-1.2-1.6-2.2-3.4-3.1-5.2c-0.2-0.3-0.3-0.7-0.5-1c-0.1-0.2-0.2-0.4-0.2-0.6
					c0,0.1,0.2,0.4,0-0.1c-0.3-0.7-0.5-1.4-0.7-2.1c-2-6.4-1.7-13.3-0.3-20.1c1.1-5.7,2.9-11.2,4.9-16.6c0.5-1.3-0.5-2.7-1.7-3.1
					C1060.7,700.3,1059.5,701.2,1059,702.5L1059,702.5z"/>
			</g>
		</g>
		<g>
			<g>
				<path d="M1184.2,971.3c0.7,22.3,1.9,44.6,3.5,66.9c0.1,1.5,0.2,3,0.3,4.5c0.1,1.3,1.1,2.5,2.5,2.5c1.3,0,2.6-1.1,2.5-2.5
					c-1.3-15.8-2.2-31.6-2.9-47.4c-0.4-8-0.7-15.9-1-23.9C1189.1,968.1,1184.1,968.1,1184.2,971.3L1184.2,971.3z"/>
			</g>
		</g>
		<g>
			<g>
				<path d="M1076.5,737.8c5.9,0.9,11.9,1,17.9,0.1c4.7-0.7,9.8-2.2,13.2-5.8c2.2-2.3-1.3-5.9-3.5-3.5c-2.6,2.8-7,3.9-11,4.5
					c-5,0.7-10.2,0.6-15.2-0.1c-1.3-0.2-2.7,0.3-3.1,1.7C1074.4,735.9,1075.2,737.6,1076.5,737.8L1076.5,737.8z"/>
			</g>
		</g>
		<g>
			<g>
				<path d="M1080.3,697.8c-3.4,2.8-6.4,6.6-6.3,11.2c0,2.3,0.8,4.4,2.3,6.2c1.4,1.6,3.5,2.4,5.5,2.5c2.5,0.1,4.8-1.1,6.2-3.1
					c0.7-1.1,0.2-2.8-0.9-3.4c-1.3-0.7-2.6-0.3-3.4,0.9c-0.2,0.2-0.1,0.2,0.1-0.1c-0.1,0.1-0.2,0.2-0.2,0.3c-0.3,0.4,0.4-0.2,0,0
					c-0.1,0.1-0.4,0.3-0.6,0.3c0.1,0,0.2-0.1,0.3-0.1c-0.1,0-0.2,0.1-0.3,0.1c-0.1,0-0.2,0.1-0.3,0.1c-0.3,0-0.2,0,0.1,0
					c-0.1,0.1-0.4,0-0.5,0c-0.1,0-0.8,0-0.4,0c0.4,0-0.3-0.1-0.4-0.1c-0.1,0-0.5-0.1-0.5-0.2c0.3,0.1,0.4,0.2,0.1,0
					c-0.1-0.1-0.2-0.1-0.3-0.2c-0.2-0.1-0.3-0.2-0.4-0.3c0.6,0.4-0.1-0.1-0.2-0.2c-0.1-0.1-0.4-0.6-0.1-0.1
					c-0.1-0.2-0.3-0.4-0.4-0.6c-0.3-0.6,0,0.2-0.1-0.2c-0.1-0.2-0.2-0.4-0.2-0.7c-0.1-0.2-0.1-0.5-0.1-0.7c0.1,0.6,0,0,0-0.2
					c0-0.5,0-1,0-1.4c-0.1,0.6,0.1-0.2,0.1-0.4c0-0.2,0.1-0.4,0.2-0.6c0-0.1,0.3-0.8,0.2-0.5c-0.1,0.2,0.2-0.5,0.3-0.5
					c0.3-0.5,0.6-0.9,0.9-1.4c0.3-0.5-0.2,0.2,0.2-0.2c0.2-0.2,0.4-0.5,0.6-0.7c0.7-0.8,1.6-1.5,2.4-2.2c1-0.8,0.9-2.7,0-3.5
					C1082.7,696.8,1081.4,696.9,1080.3,697.8L1080.3,697.8z"/>
			</g>
		</g>
		<g>
			<g>
				<path d="M1066.4,663.8c-0.8,1.9-1.7,3.7-2.5,5.6c-0.3,0.6-0.4,1.2-0.3,1.9c0.2,0.6,0.6,1.2,1.1,1.5c0.6,0.3,1.3,0.5,1.9,0.3
					c0.6-0.2,1.2-0.6,1.5-1.1c0.8-1.9,1.7-3.7,2.5-5.6c0.3-0.6,0.4-1.2,0.3-1.9c-0.2-0.6-0.6-1.2-1.1-1.5c-0.6-0.3-1.3-0.5-1.9-0.3
					C1067.3,662.8,1066.6,663.2,1066.4,663.8L1066.4,663.8z"/>
			</g>
		</g>
		<g>
			<g>
				<path d="M1081.3,765.7c-2.7,5.8-5.3,11.5-8,17.3c-0.6,1.2-0.3,2.7,0.9,3.4c1.1,0.6,2.9,0.3,3.4-0.9c2.7-5.8,5.3-11.5,8-17.3
					c0.6-1.2,0.3-2.7-0.9-3.4C1083.7,764.1,1081.9,764.4,1081.3,765.7L1081.3,765.7z"/>
			</g>
		</g>
		<g>
			<g>
				<path d="M1138.7,770.2c1.9,7.3,3.8,14.5,5.6,21.8c0.8,3.1,5.6,1.8,4.8-1.3c-1.9-7.3-3.8-14.5-5.6-21.8
					C1142.7,765.7,1137.9,767,1138.7,770.2L1138.7,770.2z"/>
			</g>
		</g>
		<g>
			<g>
				<path d="M1095.3,1042.8c24.4,0.6,48.8,1.1,73.2,1.7c6.9,0.2,13.8,0.3,20.7,0.5c3.2,0.1,3.2-4.9,0-5c-24.4-0.6-48.8-1.1-73.2-1.7
					c-6.9-0.2-13.8-0.3-20.7-0.5C1092.1,1037.7,1092.1,1042.7,1095.3,1042.8L1095.3,1042.8z"/>
			</g>
		</g>
	</g>
</g>
<g id="КОМПУТЕР">
	<g id="контур_1_">
	</g>
	<g>
		<g>
			<path d="M872.5,1029.9c-4.3-8.3-8.2-16.8-12.1-25.3c-3.9-8.5-7.9-17.1-11.8-25.6c-7.9-17.1-15.7-34.3-23.6-51.4
				c-4.4-9.6-8.8-19.3-13.3-28.9c-0.6-1.2-2.3-1.5-3.4-0.9c-1.3,0.7-1.5,2.2-0.9,3.4c7.9,17.1,15.7,34.2,23.6,51.4
				c7.8,17.1,15.7,34.2,23.5,51.3c4.4,9.6,8.7,19.2,13.6,28.6C869.7,1035.3,874,1032.8,872.5,1029.9L872.5,1029.9z"/>
		</g>
	</g>
	<g>
		<g>
			<path d="M809.7,902.4c24.7-2.1,49.5-3.8,74.2-5.1c24.7-1.2,49.5-2,74.3-2.2c13.9-0.1,27.8-0.1,41.7,0.1c3.2,0,3.2-5,0-5
				c-24.8-0.3-49.6-0.1-74.4,0.6c-24.8,0.7-49.5,1.9-74.2,3.5c-13.9,0.9-27.7,2-41.6,3.2c-1.3,0.1-2.5,1.1-2.5,2.5
				C807.2,901.2,808.3,902.5,809.7,902.4L809.7,902.4z"/>
		</g>
	</g>
	<g>
		<g>
			<path d="M997.4,893.3c5.1,17,9.7,34.1,14,51.3c4.2,17.2,8,34.5,11.4,51.9c1.9,9.8,3.7,19.7,5.3,29.6c0.2,1.3,1.9,2.1,3.1,1.7
				c1.4-0.4,2-1.7,1.7-3.1c-2.9-17.5-6.2-34.9-9.9-52.2c-3.7-17.3-7.9-34.5-12.5-51.6c-2.6-9.7-5.4-19.3-8.2-28.9
				C1001.3,888.9,996.5,890.2,997.4,893.3L997.4,893.3z"/>
		</g>
	</g>
	<g>
		<g>
			<path d="M870.2,1033.1c20.9-1.7,41.9-2.8,62.9-3.5c21.1-0.7,42.2-0.9,63.2-0.5c11.8,0.2,23.6,0.5,35.5,1c3.2,0.1,3.2-4.9,0-5
				c-21-0.9-42-1.2-63-1.1c-21.1,0.1-42.2,0.7-63.2,1.8c-11.8,0.6-23.6,1.4-35.4,2.3c-1.3,0.1-2.5,1.1-2.5,2.5
				C867.7,1031.9,868.9,1033.2,870.2,1033.1L870.2,1033.1z"/>
		</g>
	</g>
	<g>
		<g>
			<path d="M867.6,1032.8c0.3,3.3,0.6,6.6,1,9.9c0.1,0.7,0.2,1.3,0.7,1.8c0.4,0.4,1.1,0.8,1.8,0.7c1.2-0.1,2.6-1.1,2.5-2.5
				c-0.3-3.3-0.6-6.6-1-9.9c-0.1-0.7-0.2-1.3-0.7-1.8c-0.4-0.4-1.1-0.8-1.8-0.7C868.9,1030.4,867.5,1031.4,867.6,1032.8
				L867.6,1032.8z"/>
		</g>
	</g>
	<g>
		<g>
			<path d="M871.1,1046.3c20.9-0.3,41.8-0.6,62.7-0.8c20.9-0.3,41.8-0.6,62.7-0.8c11.8-0.2,23.6-0.3,35.4-0.5c3.2,0,3.2-5,0-5
				c-20.9,0.3-41.8,0.6-62.7,0.8c-20.9,0.3-41.8,0.6-62.7,0.8c-11.8,0.2-23.6,0.3-35.4,0.5C867.9,1041.4,867.9,1046.4,871.1,1046.3
				L871.1,1046.3z"/>
		</g>
	</g>
	<g>
		<g>
			<path d="M1030.2,1027c0,4.9-0.8,9.8-0.8,14.7c0,1.3,1.2,2.6,2.5,2.5c1.4-0.1,2.5-1.1,2.5-2.5c0-4.9,0.8-9.8,0.8-14.7
				c0-1.3-1.2-2.6-2.5-2.5C1031.3,1024.6,1030.2,1025.6,1030.2,1027L1030.2,1027z"/>
		</g>
	</g>
	<g>
		<g>
			<path d="M1031.9,1028.7c20.4-0.3,40.9-0.2,61.3,0.2c3.2,0.1,3.2-4.9,0-5c-20.4-0.5-40.9-0.5-61.3-0.2
				C1028.6,1023.8,1028.6,1028.8,1031.9,1028.7L1031.9,1028.7z"/>
		</g>
	</g>
	<g>
		<g>
			<path d="M1031.8,1044.2c20.7-0.4,41.3,0.3,62,1.2c3.2,0.1,3.2-4.9,0-5c-20.6-1-41.3-1.6-62-1.2
				C1028.6,1039.2,1028.6,1044.2,1031.8,1044.2L1031.8,1044.2z"/>
		</g>
	</g>
	<g>
		<g>
			<path d="M1091,1026.6c0.7,5.4,0.7,10.9,0.3,16.3c-0.1,1.3,1.2,2.6,2.5,2.5c1.4-0.1,2.4-1.1,2.5-2.5c0.4-5.4,0.4-10.9-0.3-16.3
				c-0.2-1.3-1-2.6-2.5-2.5C1092.3,1024.1,1090.9,1025.2,1091,1026.6L1091,1026.6z"/>
		</g>
	</g>
</g>
</svg>
